<svg xmlns="http://www.w3.org/2000/svg" viewBox="0 0 80 37"><defs><style>.cls-1{fill:#e93d45;}</style></defs><g id="Layer_2" data-name="Layer 2"><g id="Layer_1-2" data-name="Layer 1"><path class="cls-1" d="M70,18.48V29.06H59.69a6.83,6.83,0,0,1-4.94-1.59c-1.08-1-1.63-2.74-1.71-5.07-.07-1-.11-2.34-.11-4s0-2.94.11-3.91a6.88,6.88,0,0,1,1.83-5A7.28,7.28,0,0,1,60,7.92H75V0H59.68c-5.23,0-9.31,1.25-12.22,3.73S43,9.79,42.87,14.44c0,1,0,2.38,0,4.07s0,3,0,4Q43.43,37,59.41,37H80V18.48Z"></path><path class="cls-1" d="M32.54,3.72Q28.19,0,20.32,0H0V18.52H10V7.94h10a7.24,7.24,0,0,1,5.08,1.61,6.94,6.94,0,0,1,1.83,5c.06,1,.11,2.29.11,3.91s0,2.94-.11,4q-.11,3.48-1.7,5.07a6.84,6.84,0,0,1-4.95,1.59H5V37H20.58q16,0,16.54-14.47c0-1,.05-2.32.05-4s0-3.05-.05-4.06Q36.89,7.45,32.54,3.72Z"></path></g></g></svg>