<svg width="701" height="500" viewBox="0 0 701 500" fill="none" xmlns="http://www.w3.org/2000/svg">
<path d="M62.3526 21.6152L63.8788 19.1162C122.053 -81.8178 212.849 -157.818 318.326 -198.509C329.022 -199.489 339.866 -200 350.822 -200C357.479 -200 364.095 -199.804 370.661 -199.44C248.678 -166.134 142.06 -85.5769 77.2497 26.9283L77.1517 27.0963L75.5066 29.7913C75.3036 30.1203 75.0515 30.5613 74.6455 31.2893L74.0155 32.4093L73.9653 32.5007C73.6674 33.043 73.3644 33.5945 72.7414 34.8804L72.6854 34.9854C68.8491 42.6014 66.0419 50.6655 64.3338 58.9606C53.8261 110.67 87.3024 161.344 138.966 171.893C145.651 173.251 152.295 173.937 158.714 173.937C194.291 173.937 227.109 153.63 244.365 120.946L244.456 120.771C271.471 72.6177 311.535 33.2633 360.314 6.95708C402.464 -15.9192 449.956 -28.0153 497.629 -28.0153C516.957 -28.0153 536.706 -25.9923 556.335 -22.0162C603.063 -12.4891 646.347 8.44809 682.617 38.2334C685.718 47.4315 688.441 56.8046 690.78 66.3317C653.194 29.5253 605.486 3.81404 553.248 -6.84006C534.641 -10.6131 515.928 -12.5241 497.629 -12.5241C452.532 -12.5241 407.596 -1.07901 367.686 20.5792C321.504 45.4855 283.582 82.7188 258.009 128.261C238.058 165.992 200.017 189.421 158.714 189.421C151.266 189.421 143.586 188.63 135.879 187.069C75.8426 174.812 36.9479 115.948 49.1637 55.8526C51.1449 46.2275 54.3931 36.8894 58.8314 28.0763C59.6645 26.3543 60.1195 25.5353 60.4905 24.8773L61.2355 23.5431C61.6738 22.7587 61.9832 22.205 62.3526 21.6152Z" fill="#1E2C3C"/>
<path d="M89.423 34.761L86.7558 39.2761L85.6077 41.5021C82.3385 47.9912 79.9513 54.8232 78.5232 61.8163C69.5906 105.742 97.9846 148.757 141.822 157.71C147.576 158.872 153.26 159.467 158.714 159.467C188.879 159.467 216.902 141.897 231.876 113.61C260.235 63.1043 302.245 21.8319 353.39 -5.74835C397.683 -29.7796 447.561 -42.4847 497.629 -42.4847C517.916 -42.4847 538.651 -40.3707 559.233 -36.1917C600.403 -27.7986 639.024 -10.9634 672.893 12.7248C669.036 3.68076 664.8 -5.16734 660.222 -13.7984C630.12 -31.4666 597.085 -44.2767 562.32 -51.3608C540.717 -55.7429 518.952 -57.9619 497.629 -57.9619C444.985 -57.9619 392.551 -44.6127 346.019 -19.3565C292.276 9.62379 248.124 53.0102 218.323 106.127L218.232 106.295C205.953 129.542 183.153 143.983 158.714 143.983C154.29 143.983 149.634 143.5 144.909 142.541C109.444 135.296 86.4688 100.478 93.7003 64.9243C94.8554 59.2753 96.7875 53.7382 99.4267 48.5022L100.211 46.9552L102.822 42.5381C176.985 -86.2071 309.07 -170.481 454.422 -184.411C441.163 -188.513 427.561 -191.845 413.679 -194.365C279.122 -169.76 159.365 -86.6132 89.423 34.761Z" fill="#1E2C3C"/>
<path d="M540.332 64.8198C526.849 62.1108 513.289 60.7388 500.002 60.7388H499.568C462.794 60.8228 426.714 71.0499 395.226 90.321C364.179 109.312 338.9 136.249 322.12 168.218C304.982 198.906 279.403 224.085 248.138 241.047C221.404 255.635 191.301 263.377 161.101 263.447C148.809 263.468 136.138 262.201 123.432 259.674C72.9302 249.496 28.6101 218.296 1.61621 173.958C2.34426 184.696 3.55535 195.301 5.22846 205.745C16.1912 219.052 28.7781 230.868 42.8771 241.033C66.1047 257.791 92.1815 269.166 120.401 274.85C134.121 277.587 147.814 278.959 161.143 278.924C193.92 278.854 226.57 270.454 255.545 254.641C289.413 236.28 317.128 208.965 335.701 175.666L335.799 175.491C367.826 114.408 430.592 76.3699 499.61 76.2159H500.009C512.274 76.2159 524.812 77.4899 537.28 79.989C621.706 97.0341 681.231 169.254 685.9 251.505C689.785 238.667 692.957 225.513 695.358 212.094C676.708 139.749 618.324 80.549 540.332 64.8058V64.8198Z" fill="#1E2C3C"/>
<path d="M667.67 298.923C667.908 297.859 668.132 296.795 668.349 295.724C686.943 203.253 626.871 112.84 534.437 94.1778C522.788 91.8398 511.097 90.6568 499.631 90.6848C436.038 90.8318 378.053 126.126 348.28 182.799C328.357 218.464 298.702 247.689 262.496 267.332C231.365 284.307 196.327 293.323 161.171 293.4H160.716C146.568 293.4 132.035 291.93 117.516 289.032C77.046 280.877 40.0134 261.13 10.6533 232.8C12.8935 242.033 15.5047 251.119 18.4589 260.044C46.4048 281.808 79.2231 297.103 114.471 304.208C130.166 307.344 145.875 308.905 161.206 308.877C198.938 308.793 236.524 299.126 269.895 280.926C308.699 259.884 340.495 228.523 361.854 190.254L361.952 190.079C389.03 138.446 441.799 106.295 499.666 106.169C510.089 106.148 520.744 107.219 531.378 109.354C615.44 126.322 670.078 208.559 653.165 292.658C650.449 306.14 645.92 319.265 639.717 331.669L639.654 331.788C638.772 333.636 638.023 335.008 637.233 336.456L636.581 337.619L636.439 337.87C635.609 339.332 634.819 340.725 633.991 342.036L633.914 342.162C633.662 342.575 633.41 342.988 633.144 343.443C621.866 363.121 609.44 381.923 595.978 399.801C625.464 370.863 649.854 336.744 667.663 298.916L667.67 298.923Z" fill="#1E2C3C"/>
<path d="M620.62 336.206L621.811 334.238C622.526 333.104 623.158 331.982 624.075 330.352L624.177 330.171L624.555 329.485C625.15 328.407 625.822 327.189 626.802 325.138C632.409 313.945 636.505 302.066 638.99 289.83C654.321 213.536 604.771 138.944 528.529 123.55C518.973 121.625 509.376 120.652 500.002 120.652H499.701C447.253 120.771 399.272 150.179 374.448 197.394C351.753 238.037 318.003 271.308 276.833 293.631C241.341 312.993 201.368 323.276 161.241 323.367C144.951 323.402 128.241 321.729 111.594 318.404C81.4077 312.321 52.9087 300.582 27.4409 284.16C30.9062 292.504 34.6864 300.687 38.7607 308.695C60.5462 320.189 84.0189 328.645 108.549 333.587C126.022 337.081 143.572 338.852 160.716 338.852H161.276C203.979 338.754 246.5 327.819 284.233 307.232C328 283.502 363.884 248.103 388.015 204.863L388.113 204.688C410.242 162.513 453.015 136.249 499.736 136.143C508.144 136.122 516.824 136.991 525.47 138.734C593.34 152.433 637.457 218.849 623.806 286.771C621.594 297.677 617.932 308.275 612.927 318.271L612.864 318.397C612.059 320.084 611.541 321.022 610.988 322.023L610.666 322.597L610.343 323.17L610.342 323.173C609.627 324.443 609.156 325.281 608.685 326.027L607.32 328.274L607.229 328.428C574.501 385.542 531.574 434.92 481.514 474.793C500.324 467.219 518.322 458.063 535.341 447.486C568.194 414.718 596.994 377.422 620.62 336.213V336.206Z" fill="#1E2C3C"/>
<path d="M596.511 318.201L594.985 320.714L594.978 320.693C555.488 389.567 500.821 446.89 436.655 489.381C422.57 492.937 408.142 495.632 393.434 497.417C470.642 455.045 536.384 391.786 581.593 312.909L581.691 312.741L583.329 310.046C583.5 309.778 583.693 309.432 583.982 308.918L583.983 308.915L584.131 308.651L584.197 308.534L584.82 307.407L584.843 307.365C585.137 306.832 585.453 306.26 586.087 304.95L586.136 304.838C589.958 297.215 592.745 289.144 594.432 280.849C604.827 229.111 571.239 178.515 519.547 168.084C512.932 166.754 506.351 166.082 499.995 166.082H499.792C464.223 166.166 431.446 186.544 414.267 219.269L414.176 219.444C387.273 267.653 347.293 307.099 298.57 333.517C256.469 356.484 209.013 368.685 161.332 368.797H160.709C141.584 368.797 122.046 366.823 102.619 362.931C89.9903 360.39 77.6064 357.009 65.5446 352.844C60.3922 345.62 55.5129 338.179 50.9136 330.556C68.4008 338.144 86.7421 343.94 105.678 347.755C124.09 351.444 142.613 353.32 160.716 353.32H161.304C206.408 353.222 251.317 341.672 291.177 319.923C337.304 294.919 375.141 257.601 400.609 211.996C420.476 174.223 458.461 150.703 499.764 150.612C507.227 150.598 514.899 151.368 522.614 152.915C582.671 165.039 621.699 223.812 609.623 283.936C607.663 293.561 604.435 302.913 600.018 311.733C599.211 313.415 598.758 314.235 598.396 314.888L598.38 314.918L597.541 316.422C597.148 317.127 596.855 317.651 596.511 318.201Z" fill="#1E2C3C"/>
<path d="M505.925 264.329L504.35 266.996C439.952 379.361 325.249 453.079 199.037 465.476C208.103 469.844 217.392 473.834 226.878 477.425C347.518 457.503 455.374 383.575 517.762 274.745L519.45 271.889L519.737 271.35C520.325 270.146 521.109 268.277 521.508 266.24C523.839 254.655 516.411 243.343 504.952 241.026C503.187 240.669 501.528 240.487 500.009 240.487H499.967C494.136 240.501 485.777 243.168 479.099 255.775C445.3 316.29 395.219 365.746 334.238 398.807C281.258 427.71 221.53 443.062 161.507 443.202H160.723C160.345 443.202 159.967 443.202 159.589 443.195C167.605 448.431 175.844 453.352 184.294 457.93C239.143 454.444 293.117 438.883 341.637 412.408C405.209 377.947 457.432 326.363 492.666 263.244L492.75 263.083C493.31 262.019 494.332 260.241 495.613 258.729C496.887 257.224 498.42 255.985 500.002 255.978H500.009C500.24 255.978 500.856 255.999 501.878 256.202C504.98 256.832 506.975 259.961 506.317 263.223C506.282 263.384 506.163 263.797 505.925 264.329Z" fill="#1E2C3C"/>
<path d="M545.772 286.218L543.588 289.921C486.429 389.623 393.546 461.982 286.873 494.176C276.001 492.174 265.297 489.668 254.803 486.679C369.24 460.435 470.138 386.956 530.175 282.186L530.217 282.116L532.296 278.588L532.583 278.014C534.025 275.143 535.075 272.126 535.705 269.06C539.597 249.691 527.08 230.742 507.801 226.85C505.05 226.297 502.439 226.024 499.94 226.024C493.086 226.038 486.625 228.089 480.94 231.925C475.249 235.754 470.334 241.361 466.589 248.487L466.498 248.655C434.051 306.805 385.909 354.342 327.286 386.123C276.442 413.864 219.101 428.606 161.48 428.732H160.717C153.219 428.732 145.666 428.473 138.091 427.976C130.776 422.362 123.691 416.468 116.845 410.315C131.546 412.254 146.233 413.241 160.724 413.241H161.445C216.497 413.115 271.283 399.031 319.887 372.514C375.912 342.141 421.912 296.732 452.931 241.179C463.047 222.027 480.597 210.575 499.904 210.526H500.01C503.482 210.526 507.129 210.911 510.86 211.66C538.505 217.246 556.454 244.378 550.882 272.133C549.972 276.557 548.474 280.863 546.416 284.965L545.772 286.218Z" fill="#1E2C3C"/>
<path d="M572.065 300.596L569.405 305.118V305.111C519.554 392.052 444.173 459.498 356.051 499.958C354.308 499.986 352.565 500 350.822 500C340.125 500 329.54 499.517 319.088 498.579C417.382 461.801 502.116 391.373 555.992 297.369L558.596 292.945L559.38 291.398C562.005 286.155 563.923 280.618 565.065 274.969C572.212 239.394 549.167 204.625 513.681 197.464C508.998 196.526 504.398 196.05 500.009 196.05H499.869C475.43 196.106 452.665 210.596 440.442 233.871L440.344 234.046C410.669 287.226 366.608 330.71 312.935 359.817C266.459 385.171 214.053 398.646 161.409 398.765C140.744 398.807 119.595 396.756 98.6009 392.675C92.3915 386.228 86.4271 379.543 80.7217 372.634C87.0011 374.328 93.3436 375.84 99.756 377.128C120.351 381.258 141.108 383.33 161.374 383.281C211.449 383.169 261.299 370.352 305.535 346.215C356.611 318.523 398.53 277.167 426.777 226.591C441.688 198.269 469.669 180.636 499.834 180.573H500.002C505.413 180.573 511.035 181.147 516.733 182.288C560.591 191.143 589.076 234.088 580.249 278.035C578.835 285.035 576.461 291.874 573.213 298.37L572.065 300.596Z" fill="#1E2C3C"/>
<path d="M37.0878 5.52251L38.2779 3.56247C74.1624 -58.7171 121.843 -112.016 177.539 -154.163C203.181 -168.8 230.847 -180.294 260.025 -188.106C174.36 -143.46 101.352 -74.9153 51.6628 11.3676L51.5718 11.5216L50.2067 13.7616C49.6607 14.6156 49.1146 15.5816 48.2116 17.1846L47.8826 17.7796C47.3295 18.7666 46.8115 19.7047 46.0064 21.3847L45.9434 21.5107C40.9101 31.4998 37.2278 42.0839 34.9947 52.99C21.1897 120.877 65.1528 187.391 132.995 201.244C141.633 203.001 150.293 203.897 158.721 203.897C205.443 203.897 248.272 177.724 270.498 135.598L270.596 135.423C294.825 92.2394 330.786 56.917 374.609 33.2848C412.384 12.7886 454.94 1.94547 497.636 1.94547C514.962 1.94547 532.695 3.75848 550.357 7.33553C607.404 18.9626 658.745 49.5599 696.289 93.3664C697.885 103.208 699.082 113.191 699.845 123.292C663.905 71.4911 609.154 35.1258 547.263 22.5117C530.629 19.1446 513.926 17.4296 497.629 17.4296C457.502 17.4296 417.508 27.6217 381.967 46.9069C340.755 69.1391 306.929 102.333 284.142 142.92C259.213 190.086 211.169 219.382 158.714 219.382C149.25 219.382 139.554 218.388 129.893 216.421C53.686 200.859 4.30451 126.155 19.8106 49.889C22.3168 37.6598 26.4471 25.7947 32.0755 14.6086C33.0555 12.5716 33.7276 11.3536 34.3226 10.2825L34.7146 9.58253C35.6877 7.85352 36.3387 6.69852 37.0878 5.52251Z" fill="#1E2C3C"/>
<path d="M700.727 152.244C699.565 150.039 698.263 147.736 696.639 145.02C663.309 89.1031 607.81 49.6157 544.357 36.6796C528.669 33.5085 512.946 31.9055 497.629 31.9055C459.903 31.9055 422.29 41.4886 388.883 59.6118C350.03 80.57 318.164 111.853 296.722 150.081L296.624 150.256C269.427 201.818 216.58 233.858 158.714 233.858C148.311 233.858 137.643 232.759 127.016 230.596C61.2673 217.169 13.6289 163.829 4.20627 100.982C2.17613 115.465 1.03505 130.229 0.832031 145.223C22.2115 195.119 66.8606 234.117 123.922 245.772C135.563 248.138 147.275 249.342 158.714 249.342C222.314 249.342 280.376 214.18 310.275 157.571C330.275 121.947 359.999 92.7921 396.248 73.2339C427.414 56.3287 462.472 47.3897 497.629 47.3897C511.924 47.3897 526.611 48.8947 541.277 51.8557C600.452 63.9238 652.235 100.772 683.345 152.965C684.871 155.52 686.075 157.641 687.118 159.636L687.363 160.077C691.129 166.272 695.281 172.187 699.754 177.808C700.412 169.422 700.776 160.959 700.832 152.419L700.727 152.251V152.244Z" fill="#1E2C3C"/>
<path d="M126.477 61.3753L126.19 61.9493C124.741 64.8264 123.684 67.8364 123.047 70.8954C119.112 90.2576 131.587 109.235 150.853 113.176C153.604 113.736 156.25 114.023 158.714 114.023C172.414 114.023 184.581 105.861 192.113 91.6296L192.204 91.4616C224.785 33.382 273.032 -14.0434 331.731 -45.6908C382.632 -73.32 440.008 -87.9292 497.629 -87.9292C520.94 -87.9292 544.721 -85.5002 568.313 -80.7191C589.188 -76.4631 609.497 -70.317 629.014 -62.4419C635.111 -54.4689 640.873 -46.2298 646.277 -37.7387C620.746 -50.3528 593.535 -59.7679 565.219 -65.543C542.656 -70.121 519.911 -72.445 497.629 -72.445C442.577 -72.445 387.763 -58.4869 339.096 -32.0686C283.001 -1.82132 236.903 43.4761 205.757 98.9587C195.6 118.09 178.021 129.507 158.714 129.507C155.214 129.507 151.525 129.115 147.758 128.352C120.127 122.703 102.241 95.5356 107.877 67.7874C108.794 63.3633 110.299 59.0583 112.371 54.9633L113.022 53.7173L115.206 50.0142C192.659 -84.3801 335.077 -168.808 488.458 -171.895C499.68 -167.093 510.601 -161.724 521.185 -155.816C513.17 -156.271 505.161 -156.509 497.167 -156.509C345.984 -156.509 204.756 -74.398 128.605 57.7843L126.477 61.3753Z" fill="#1E2C3C"/>
<path d="M152.813 75.6976L154.395 73.0306C225.317 -50.0796 356.66 -126.548 497.167 -126.548C523.153 -126.548 549.314 -123.951 574.963 -118.834C566.507 -125.89 557.714 -132.554 548.614 -138.799C531.518 -140.955 514.304 -142.04 497.174 -142.04C351.165 -142.04 214.69 -62.6098 141.01 65.2535L139.316 68.1026L139.029 68.6415C138.434 69.8456 137.65 71.7146 137.244 73.7446C134.885 85.3297 142.291 96.6559 153.744 98.9939C155.522 99.3649 157.195 99.5469 158.721 99.5469C164.56 99.5469 172.918 96.9008 179.625 84.3077C213.563 23.8691 263.757 -25.4744 324.808 -58.3957C377.858 -87.187 437.614 -102.405 497.636 -102.405C521.9 -102.405 546.66 -99.8781 571.218 -94.8941C584.617 -92.1571 597.785 -88.678 610.68 -84.485C603.658 -92.262 596.287 -99.7241 588.6 -106.843C583.861 -108.005 579.101 -109.083 574.305 -110.056C548.726 -115.25 522.936 -117.882 497.636 -117.882C435.045 -117.882 372.726 -102.013 317.443 -72.0109C253.795 -37.6895 201.452 13.775 166.079 76.8177L165.995 76.9786C164.861 79.1067 161.885 84.0697 158.721 84.0697C158.504 84.0697 157.888 84.0417 156.852 83.8317C153.751 83.2017 151.763 80.0657 152.428 76.8036C152.463 76.6426 152.582 76.2366 152.82 75.7046L152.813 75.6976Z" fill="#1E2C3C"/>
</svg>
