<svg xmlns="http://www.w3.org/2000/svg" role="img" width="1280" height="958" viewBox="0 0 1280 958">
  <path fill="#D0D9E7"
    d="M640 776.729c-9.123 0-16.287-7.329-16.287-16.157V197.428C623.713 88.686 535.892.683 427.509.004V0h-.425l-.265.001h-.573v.003C317.863.683 230.042 88.686 230.042 197.428v405.243c0 8.828-7.165 16.156-16.288 16.156-9.123 0-16.287-7.328-16.287-16.156V386.72c0-109.164-88.504-197.428-197.467-197.428v181.272c9.123 0 16.288 7.328 16.288 16.156v215.951c0 109.164 88.504 197.428 197.466 197.428 108.963 0 197.467-88.264 197.467-197.428V197.428c0-8.622 6.834-15.814 15.652-16.145 8.822.327 15.661 7.521 15.661 16.145v563.144C442.534 869.736 531.038 958 640 958c108.963 0 197.467-88.264 197.467-197.428V308.006c0-8.827 7.165-16.156 16.288-16.156v-.11c8.513.639 15.025 7.693 15.025 16.109v247.499c0 109.165 88.504 197.428 197.47 197.428 108.96 0 197.46-88.263 197.46-197.428V386.721c0-8.828 7.17-16.157 16.29-16.157V189.293c-108.96 0-197.47 88.264-197.47 197.428v168.627c0 8.828-7.16 16.157-16.28 16.157-9.13 0-16.29-7.329-16.29-16.157V307.849c0-109.164-88.505-197.428-197.468-197.428v.161c-108.383.679-196.204 88.682-196.204 197.424v452.566c0 8.828-7.164 16.157-16.288 16.157Z" />
</svg>