<svg width="633" height="743" viewBox="0 0 633 743" fill="none" xmlns="http://www.w3.org/2000/svg">
<g clip-path="url(#clip0_1028_2391)">
<path d="M198.919 597.177C171.059 590.279 143.289 582.804 115.474 575.639L118.091 575.906C77.4115 570.878 45.2048 566.161 4.48055 560.866C1.73011 560.51 -0.310533 557.439 2.19792e-07 554.013C0.266172 551.031 2.17373 548.762 4.48055 548.45C45.3822 543.199 77.8108 538.216 118.712 533.41C147.636 537.103 176.605 540.44 205.529 544.401C234.985 550.008 228.464 602.873 198.919 597.177Z" fill="#4F6278"/>
<path d="M78.3884 598.467C73.3755 598.467 73.1094 562.912 73.1094 555.748C73.1094 548.584 73.3755 513.029 78.3884 513.029C83.4013 513.029 83.6675 548.584 83.6675 555.748C83.6675 562.912 83.4013 598.467 78.3884 598.467ZM78.3884 515.521C76.9689 518.458 75.1944 532.92 75.1944 555.748C75.1944 578.576 76.9689 593.038 78.3884 595.975C79.808 593.038 81.5825 578.576 81.5825 555.748C81.5825 532.92 79.808 518.458 78.3884 515.521Z" fill="#818EF4"/>
<path d="M52.9682 587.787C47.7779 587.787 47.5117 561.133 47.5117 555.793C47.5117 550.453 47.7779 523.798 52.9682 523.798C58.1586 523.798 58.4247 550.453 58.4247 555.793C58.4247 561.133 58.1586 587.787 52.9682 587.787ZM52.9682 526.512C51.6374 528.826 49.9516 539.64 49.9516 555.793C49.9516 571.946 51.6374 582.759 52.9682 585.073C54.2991 582.759 55.9848 571.946 55.9848 555.793C55.9848 539.64 54.2991 528.826 52.9682 526.512Z" fill="#818EF4"/>
<path d="M28.3907 580.489C27.4591 580.489 24.9749 580.489 24.2207 562.823C24.2207 562.156 24.7087 561.622 25.3741 561.577C26.0839 561.577 26.5719 562.067 26.6162 562.734C26.9268 570.833 27.7697 575.506 28.3907 577.375C29.278 574.749 30.2983 566.962 30.2983 555.748C30.2983 544.534 29.3223 536.791 28.3907 534.166C27.9027 535.59 27.2373 538.794 26.7937 545.068C26.7493 545.736 26.1283 546.225 25.5072 546.181C24.8418 546.136 24.3538 545.558 24.3982 544.89C25.3298 531.007 27.3704 531.007 28.3464 531.007C32.2058 531.007 32.6495 548.317 32.6495 555.748C32.6495 563.179 32.2502 580.489 28.3464 580.489H28.3907Z" fill="#818EF4"/>
<path d="M19.0314 546.537C17.7449 552.099 17.257 557.128 17.0352 562.512C21.2939 563.09 25.5083 563.624 29.6339 564.203V545.113C26.1293 545.602 22.6248 546.047 19.0314 546.537Z" fill="#4F6278"/>
<path d="M67.7852 539.906C67.7852 548.762 67.7852 559.441 67.7852 569.365C70.58 569.765 73.4191 570.121 76.2583 570.522V538.794C73.4191 539.194 70.58 539.55 67.7852 539.951V539.906Z" fill="#4F6278"/>
<path d="M45.4259 542.932C43.3853 550.586 42.7199 558.24 42.498 565.894C45.2928 566.294 48.0876 566.65 50.8824 567.051C50.9712 558.24 51.5035 550.987 54.2096 541.731C51.2817 542.131 48.3538 542.532 45.4259 542.932Z" fill="#4F6278"/>
<path d="M328.455 590.68C491.065 590.68 622.885 458.452 622.885 295.34C622.885 132.228 491.065 0 328.455 0C165.846 0 34.0254 132.228 34.0254 295.34C34.0254 458.452 165.846 590.68 328.455 590.68Z" fill="url(#paint0_linear_1028_2391)"/>
<path d="M470.669 352.297C519.256 345.552 550.891 283.899 541.328 214.591C531.765 145.284 484.625 94.5669 436.038 101.312C387.452 108.058 355.817 169.711 365.38 239.019C374.943 308.326 422.082 359.043 470.669 352.297Z" fill="white"/>
<path d="M481.106 273.002C461.897 277.051 442.422 258.005 437.631 230.416C432.84 202.827 444.551 177.195 463.805 173.146C483.013 169.096 502.488 188.142 507.279 215.731C512.07 243.321 500.314 268.952 481.106 273.002Z" fill="black"/>
<path d="M529.638 513.385C529.638 580.045 436.699 634.111 322.024 634.111C207.348 634.111 114.41 580.045 114.41 513.385H529.638Z" fill="#3B4A5A"/>
<path d="M614.412 453.89C614.412 503.195 486.339 543.155 328.411 543.155C170.482 543.155 42.3652 503.195 42.3652 453.89H614.412Z" fill="#3B4A5A"/>
<path d="M529.636 513.385C529.636 580.045 438.162 634.111 325.261 634.111C285.335 634.111 188.626 605.988 176.516 513.385H529.636Z" fill="#4F6278"/>
<path d="M371.176 101.947C370.112 101.947 369.003 101.591 368.115 100.835C366.075 99.1439 365.764 96.1179 367.45 94.0265C368.781 92.4245 400.411 54.7784 464.78 63.6782C467.442 64.0342 469.26 66.4816 468.906 69.1515C468.551 71.8215 466.066 73.6459 463.449 73.2899C404.625 65.1466 376.056 98.7434 374.858 100.212C373.882 101.369 372.507 101.947 371.132 101.947H371.176Z" fill="black"/>
<path d="M623.063 436.891H35.357C29.8689 436.891 25.4199 441.344 25.4199 446.837C25.4199 452.33 29.8689 456.782 35.357 456.782H623.063C628.552 456.782 633.001 452.33 633.001 446.837C633.001 441.344 628.552 436.891 623.063 436.891Z" fill="#28313C"/>
<path d="M517.747 470.088H130.379C129.62 470.088 129.004 470.705 129.004 471.467V472.046C129.004 472.807 129.62 473.425 130.379 473.425H517.747C518.507 473.425 519.122 472.807 519.122 472.046V471.467C519.122 470.705 518.507 470.088 517.747 470.088Z" fill="#28313C"/>
<path d="M186.852 575.239C195.99 575.239 203.399 567.808 203.399 558.641C203.399 549.474 195.99 542.042 186.852 542.042C177.713 542.042 170.305 549.474 170.305 558.641C170.305 567.808 177.713 575.239 186.852 575.239Z" fill="#28313C"/>
<path d="M473.076 570.967C482.215 570.967 489.623 563.536 489.623 554.369C489.623 545.202 482.215 537.771 473.076 537.771C463.938 537.771 456.529 545.202 456.529 554.369C456.529 563.536 463.938 570.967 473.076 570.967Z" fill="#28313C"/>
<path d="M275.354 614.086C284.492 614.086 291.901 606.655 291.901 597.488C291.901 588.321 284.492 580.89 275.354 580.89C266.215 580.89 258.807 588.321 258.807 597.488C258.807 606.655 266.215 614.086 275.354 614.086Z" fill="#28313C"/>
<path d="M386.969 614.086C396.108 614.086 403.516 606.655 403.516 597.488C403.516 588.321 396.108 580.89 386.969 580.89C377.83 580.89 370.422 588.321 370.422 597.488C370.422 606.655 377.83 614.086 386.969 614.086Z" fill="#28313C"/>
<path d="M288.352 635.179C285.424 635.179 282.496 634.823 279.613 634.066L159.481 603.139C150.431 600.826 142.801 595.041 138.01 586.942C133.219 578.843 131.888 569.365 134.195 560.287L147.947 506.577C150.254 497.499 156.021 489.845 164.095 485.039C172.168 480.233 181.618 478.898 190.667 481.212L310.799 512.139C319.849 514.453 327.479 520.238 332.271 528.337C337.062 536.436 338.393 545.914 336.086 554.992L322.334 608.702C320.027 617.78 314.26 625.434 306.186 630.239C300.685 633.488 294.563 635.179 288.352 635.179ZM282.541 622.719C288.574 624.277 294.873 623.342 300.241 620.138C305.653 616.934 309.469 611.861 311.021 605.809L324.773 552.099C326.326 546.047 325.394 539.728 322.2 534.344C319.006 528.915 313.949 525.088 307.916 523.531L187.784 492.604C181.751 491.047 175.451 491.981 170.083 495.185C164.671 498.389 160.856 503.462 159.304 509.514L145.551 563.224C142.357 575.773 149.899 588.588 162.409 591.792L282.541 622.719Z" fill="#FD5C5C"/>
<path d="M279.302 567.229L297.313 511.427C301.616 498.122 310.488 486.864 312.307 483.615C313.727 481.123 314.037 479.121 314.037 479.121L317.719 459.808L300.773 454.291L292.477 472.09C292.477 472.09 291.59 473.87 291.28 476.763C290.88 480.456 291.502 494.829 287.198 508.09L269.188 563.892L279.302 567.185V567.229Z" fill="#D6DEEA"/>
<path d="M254.947 559.709C251.442 558.596 249.047 562.735 251.797 568.119C252.729 569.899 256.633 575.639 253.039 586.675C249.49 597.711 244.522 602.472 238.888 610.527C233.254 618.536 226.112 628.282 224.16 651.243C223.716 656.717 223.627 670.867 237.38 675.362C251.132 679.812 259.383 668.286 262.178 663.614C274.023 643.856 273.89 631.797 274.023 621.963C274.156 612.129 272.914 605.365 276.463 594.329C280.011 583.293 286.533 580.935 288.307 580.045C293.719 577.33 294.163 572.524 290.703 571.367L254.903 559.753L254.947 559.709Z" fill="#D6DEEA"/>
<path d="M287.243 637.315L360.662 568.119C368.648 560.51 371.531 557.795 377.786 555.793C384.041 553.79 401.254 557.573 409.948 544.935C420.418 529.672 413.054 510.048 411.412 506.666C409.727 503.328 408.484 506.577 408.484 506.577L398.281 525.8C398.281 525.8 396.862 529.093 393.623 529.494C390.385 529.894 385.061 530.072 378.806 526.868C373.793 524.332 367.361 518.992 370.466 511.249L380.847 491.848C380.847 491.848 382.932 489.267 379.427 489.578C375.923 489.89 359.198 494.607 350.858 508.624C342.518 522.641 352.234 531.363 348.108 540.129C346.156 544.267 339.901 550.052 339.901 550.052L269.321 616.534C262.046 623.476 259.428 626.947 253.706 628.415C247.983 629.883 233.832 626.902 222.608 639.406C211.518 651.822 217.728 670.912 219.015 673.982C220.346 677.097 221.632 674.204 221.632 674.204L232.146 656.939C232.146 656.939 233.61 654.091 236.538 653.868C239.466 653.69 243.325 654.313 248.737 657.517C253.085 660.054 258.186 666.595 254.992 673.359L245.41 689.156C245.41 689.156 243.369 691.381 246.564 691.292C249.713 691.203 264.397 688.978 272.604 676.785C280.811 664.637 275.088 654.269 279.258 646.615C281.21 643.011 287.243 637.315 287.243 637.315Z" fill="url(#paint1_linear_1028_2391)"/>
<path d="M244.257 518.858C238.401 518.858 232.59 516.099 228.952 510.893C199.141 468.174 199.229 410.014 229.174 342.731C233.388 333.298 244.39 329.07 253.795 333.298C263.199 337.525 267.414 348.561 263.199 357.994C246.253 396.086 231.835 449.84 259.473 489.445C265.373 497.899 263.332 509.558 254.904 515.476C251.665 517.746 247.939 518.858 244.212 518.858H244.257Z" fill="url(#paint2_linear_1028_2391)"/>
<path d="M119.733 544.668C120.398 547.204 131.666 573.859 136.812 584.717C141.958 595.575 153.847 615.599 158.15 624.722C162.453 633.844 176.028 665.928 179.888 677.898C183.525 689.29 185.522 690.358 187.252 691.203C190.002 692.538 193.507 692.449 203.577 687.643C213.647 682.837 215.91 680.167 216.619 677.142C217.063 675.228 217.462 673.003 210.985 662.991C204.109 652.445 187.828 621.651 183.481 612.529C179.178 603.407 171.104 581.513 165.958 570.7C160.812 559.842 147.237 534.255 145.729 532.164L119.555 482.636C117.027 477.341 115.873 471.111 115.873 471.111C115.341 466.928 115.297 454.068 115.297 454.068C115.297 454.068 115.031 451.621 119.689 450.33C144.176 443.655 174.076 456.426 175.895 456.916C177.714 457.45 183.392 458.518 182.372 455.581C181.396 452.688 152.916 436.491 126.786 430.573C100.613 424.61 79.6297 436.624 71.3784 440.941C68.6723 442.32 66.1881 443.967 65.2121 445.88C64.1031 448.016 63.6151 450.419 61.885 452.555C55.3638 460.52 46.5357 463.012 43.9184 463.012C40.9461 463.012 39.3047 462.567 36.5543 463.902C33.8039 465.237 23.7337 470.043 23.7337 470.043C21.4713 471.111 20.4953 473.87 21.56 476.139L31.6745 497.41C32.7392 499.679 35.4896 500.658 37.7521 499.59C37.7521 499.59 47.8222 494.785 50.5727 493.45C53.3231 492.115 54.0773 490.602 55.8961 488.243C61.397 481.212 65.567 479.788 71.0679 477.741C82.1584 473.603 91.1638 480.901 92.9827 484.594C92.9827 484.594 96.1324 490.023 97.0196 491.803L119.733 544.623V544.668Z" fill="url(#paint3_linear_1028_2391)"/>
<path d="M119.6 482.681C117.072 477.385 115.918 471.156 115.918 471.156C115.386 466.973 115.342 454.112 115.342 454.112C115.342 454.112 115.075 451.665 119.733 450.375C144.221 443.7 174.121 456.471 175.94 456.96C177.759 457.494 183.437 458.562 182.417 455.625C181.441 452.733 152.96 436.535 126.831 430.617C100.658 424.654 79.6746 436.669 71.4233 440.985C68.7172 442.365 66.233 444.011 65.257 445.925C64.148 448.061 63.66 450.464 61.9299 452.599C55.4087 460.565 46.5807 463.057 43.9633 463.057C40.9911 463.057 39.3497 462.612 36.5992 463.947C33.8488 465.282 23.7786 470.088 23.7786 470.088C21.5162 471.156 20.5402 473.914 21.6049 476.184L31.7194 497.454C32.7841 499.724 35.5345 500.703 37.797 499.635C37.797 499.635 47.8671 494.829 50.6176 493.494C53.368 492.159 54.1222 490.646 55.941 488.288C61.4419 481.257 65.6119 479.833 71.1128 477.786C82.2033 473.648 91.2087 480.945 93.0276 484.639C93.0276 484.639 96.1773 490.068 97.0645 491.848" fill="#D6DEEA"/>
<path d="M361.637 618.536L340.122 702.595C333.867 727.069 301.837 740.152 277.261 733.789L101.41 688.489C76.8339 682.17 55.0522 655.203 61.3073 630.773L82.8228 546.715" fill="url(#paint4_linear_1028_2391)"/>
<path d="M288.262 588.323L163.912 556.297C160.685 555.466 157.397 557.416 156.568 560.654L152.585 576.213C151.757 579.451 153.701 582.749 156.929 583.58L281.279 615.606C284.506 616.437 287.794 614.487 288.623 611.25L292.605 595.69C293.434 592.453 291.489 589.155 288.262 588.323Z" fill="#2F4053"/>
<path d="M144.665 689.334C144.265 689.334 143.866 689.29 143.467 689.156L101.101 676.385C101.101 676.385 100.746 676.252 100.613 676.207C59.2679 657.785 75.9924 613.018 76.1255 612.573C76.9683 610.393 79.4082 609.281 81.582 610.126C83.7557 610.972 84.8648 613.419 84.0219 615.599C83.4452 617.112 70.181 653.112 103.763 668.286L145.862 680.968C148.125 681.636 149.367 683.994 148.702 686.264C148.169 688.088 146.483 689.29 144.665 689.29V689.334Z" fill="#AA1A22"/>
<path d="M217.55 564.069C208.811 561.622 199.672 561.756 190.844 563.535C192.086 563.98 193.328 564.47 194.571 564.915C196.7 565.449 198.829 565.983 200.914 566.561C201.402 566.695 201.846 566.962 202.245 567.229C206.948 566.962 211.694 567.318 216.264 568.519C224.47 570.611 230.814 576.129 222.829 582.893C220.079 585.34 216.175 585.785 212.182 585.118C204.064 583.694 196.168 579.555 187.473 577.152C159.436 569.009 127.229 588.455 130.556 619.916C134.105 649.641 169.994 654.669 184.234 676.34C197.365 697.122 185.654 730.273 160.944 735.836C135.303 742.11 111.658 726.491 92.7156 710.071C89.6103 707.49 85.7064 712.162 88.8118 714.788C102.298 725.912 117.203 736.859 135.126 741.131C164.538 748.918 192.53 731.43 194.925 700.281C197.277 680.701 185.121 664.237 169.284 654.625C146.482 640.474 125.765 624.766 142.667 596.376C151.761 582.448 170.659 577.375 186.452 581.38C194.881 583.516 202.733 587.698 211.561 589.3C218.97 591.036 227.043 587.476 230.193 580.312C234.141 572.035 223.938 565.627 217.594 564.069H217.55Z" fill="url(#paint5_linear_1028_2391)"/>
<path d="M93.9593 709.982L88.6802 715.9C87.8373 716.835 86.1072 716.701 84.8651 715.589L71.734 702.506C70.4918 701.393 70.1813 699.702 71.0242 698.768L75.1055 694.185C75.9483 693.25 77.6785 693.384 78.9206 694.496L93.2939 706.244C94.536 707.356 94.8465 709.047 94.0036 709.982H93.9593Z" fill="#66788C"/>
<path d="M97.2862 710.694L90.1439 718.659C88.9905 719.95 87.3491 720.35 86.4619 719.549L77.4564 709.804C76.5692 709.003 76.791 707.312 77.9444 706.021L83.4452 699.881C84.5987 698.59 86.24 698.19 87.1273 698.991L97.7741 706.956C98.6614 707.757 98.4396 709.448 97.2862 710.738V710.694Z" fill="#5D6FCF"/>
<path d="M78.4325 703.663L73.2422 698.946L73.9963 698.056L79.231 702.773L78.4325 703.663Z" fill="#2F4053"/>
<path d="M79.9853 701.927L74.7949 697.211L75.5934 696.321L80.7838 701.037L79.9853 701.927Z" fill="#2F4053"/>
<path d="M81.5824 700.147L76.3477 695.475L77.1462 694.585L82.3365 699.302L81.5824 700.147Z" fill="#2F4053"/>
<path d="M76.8798 705.398L71.6895 700.682L72.4436 699.836L77.6783 704.508L76.8798 705.398Z" fill="#2F4053"/>
<path d="M472.145 418.291C458.88 418.291 443.442 414.464 426.585 403.384C423.125 401.114 422.149 396.442 424.411 392.971C426.674 389.5 431.332 388.521 434.792 390.79C478.4 419.403 508.433 390.078 509.675 388.832C512.603 385.895 517.349 385.895 520.277 388.832C523.205 391.769 523.249 396.486 520.366 399.423C520.1 399.69 501.379 418.291 472.145 418.291Z" fill="black"/>
</g>
<defs>
<linearGradient id="paint0_linear_1028_2391" x1="8.55388" y1="502.249" x2="481.1" y2="199.552" gradientUnits="userSpaceOnUse">
<stop offset="0.02" stop-color="#5D6FCD"/>
<stop offset="0.26" stop-color="#5293C2"/>
<stop offset="0.59" stop-color="#43C2B4"/>
<stop offset="0.85" stop-color="#3BDFAC"/>
<stop offset="1" stop-color="#38EAA9"/>
</linearGradient>
<linearGradient id="paint1_linear_1028_2391" x1="396.822" y1="509.332" x2="242.765" y2="663.443" gradientUnits="userSpaceOnUse">
<stop stop-color="#95A1FF"/>
<stop offset="0.33" stop-color="#8693F2"/>
<stop offset="0.95" stop-color="#5F71D1"/>
<stop offset="0.99" stop-color="#5D6FCF"/>
</linearGradient>
<linearGradient id="paint2_linear_1028_2391" x1="206.682" y1="425.277" x2="264.885" y2="425.277" gradientUnits="userSpaceOnUse">
<stop stop-color="#63B1B8"/>
<stop offset="0.31" stop-color="#59BEB4"/>
<stop offset="0.88" stop-color="#3FE1AB"/>
<stop offset="1" stop-color="#3AEAAA"/>
</linearGradient>
<linearGradient id="paint3_linear_1028_2391" x1="120.088" y1="504.841" x2="188.262" y2="650.815" gradientUnits="userSpaceOnUse">
<stop stop-color="#95A1FF"/>
<stop offset="0.18" stop-color="#8391F0"/>
<stop offset="0.46" stop-color="#6E7EDD"/>
<stop offset="0.74" stop-color="#6172D2"/>
<stop offset="0.99" stop-color="#5D6FCF"/>
</linearGradient>
<linearGradient id="paint4_linear_1028_2391" x1="63.524" y1="629.065" x2="379.375" y2="649.605" gradientUnits="userSpaceOnUse">
<stop stop-color="#FA3640"/>
<stop offset="0.34" stop-color="#FB4A4F"/>
<stop offset="0.68" stop-color="#FC5758"/>
<stop offset="1" stop-color="#FD5C5C"/>
</linearGradient>
<linearGradient id="paint5_linear_1028_2391" x1="128.915" y1="665.305" x2="260.858" y2="629.644" gradientUnits="userSpaceOnUse">
<stop stop-color="#A9B7CC"/>
<stop offset="0.27" stop-color="#A5B3C8"/>
<stop offset="0.5" stop-color="#9BA9BE"/>
<stop offset="0.72" stop-color="#8999AD"/>
<stop offset="0.93" stop-color="#708296"/>
<stop offset="1" stop-color="#66788C"/>
</linearGradient>
<clipPath id="clip0_1028_2391">
<rect width="633" height="743" fill="white"/>
</clipPath>
</defs>
</svg>
