<svg width="22" height="10" viewBox="0 0 22 10" fill="none" xmlns="http://www.w3.org/2000/svg">
<g clip-path="url(#clip0)">
<path d="M21.8442 5H19.1084V10.0019H21.8442V5Z" fill="#FB2640"/>
<path d="M11.6919 5.0019C11.6919 5.45765 11.6919 5.81846 11.6919 6.08811C11.7896 8.69604 13.2945 10 16.2066 10H20.4512V7.85796H16.2953C16.0526 7.87774 15.8083 7.85 15.5765 7.77634C15.3447 7.70268 15.13 7.58455 14.9448 7.42879C14.6243 7.05082 14.4591 6.56851 14.4817 6.07672C14.4625 5.79947 14.4509 5.44246 14.4509 5.0057C14.4509 4.56893 14.4509 4.21572 14.4817 3.94987C14.4695 3.70296 14.5076 3.45614 14.5938 3.22394C14.6799 2.99174 14.8124 2.77885 14.9834 2.5978C15.3696 2.2799 15.8667 2.12316 16.3687 2.16103H20.4743V0H16.2953C14.8638 0 13.7486 0.33422 12.9576 1.00646C12.5497 1.37174 12.2268 1.81945 12.011 2.31895C11.7952 2.81845 11.6916 3.35794 11.7073 3.90049C11.6996 4.17774 11.6919 4.55754 11.6919 5.0019Z" fill="#FB2640"/>
<path d="M8.82149e-06 5H2.73584L2.73584 -0.00189924H8.82149e-06L8.82149e-06 5Z" fill="#FB2640"/>
<path d="M10.1366 3.90049C10.0941 2.65856 9.68126 1.67869 8.87479 1.00646C8.06832 0.33422 6.98016 0 5.54857 0H1.36572V2.14204H5.47526C5.97723 2.10417 6.47436 2.26091 6.86054 2.57881C7.03082 2.76034 7.16283 2.97331 7.24893 3.20539C7.33504 3.43748 7.37353 3.68406 7.36217 3.93088C7.38147 4.19673 7.39304 4.54615 7.39304 4.98671C7.39304 5.42727 7.39304 5.78048 7.36217 6.05773C7.39019 6.55667 7.22313 7.04725 6.89527 7.42879C6.71091 7.58462 6.49691 7.70281 6.26571 7.77649C6.03452 7.85017 5.79074 7.87786 5.54857 7.85796H1.36572V10H5.61031C8.51979 10 10.0247 8.69604 10.125 6.08811C10.125 5.81846 10.125 5.45765 10.125 5.0019C10.125 4.54615 10.1443 4.17774 10.1366 3.90049Z" fill="#FB2640"/>
</g>
<defs>
<clipPath id="clip0">
<rect width="21.8182" height="10" fill="white"/>
</clipPath>
</defs>
</svg>
