
<svg viewBox="0 0 121 121" xmlns="http://www.w3.org/2000/svg">
<path d="M85.2659 68.6383C85.7759 68.2415 86.3832 67.9894 87.0235 67.9107L120.832 63.705V57.1602L87.0235 52.9545C85.0639 52.711 83.6687 50.9176 83.9123 48.9594C83.9925 48.3191 84.2446 47.7104 84.6399 47.2018L105.572 20.3221L100.944 15.6938L74.0642 36.6261C72.5057 37.8394 70.2511 37.5586 69.0392 36.0016C68.6424 35.4916 68.3903 34.8828 68.3101 34.2425L64.1045 0.431152H57.5596L53.354 34.2397C53.2365 35.1894 52.7552 36.0359 52.0003 36.6232C51.2454 37.2105 50.3072 37.4698 49.3575 37.3509C48.7172 37.2707 48.1084 37.02 47.5998 36.6232L20.7201 15.691L16.0918 20.3192L37.0241 47.199C38.2374 48.7575 37.9566 51.0121 36.3981 52.224C35.8882 52.6208 35.2808 52.8729 34.6405 52.9517L0.832031 57.1587V63.7036L34.6405 67.9092C36.6001 68.1527 37.9953 69.9462 37.7518 71.9057C37.6716 72.546 37.4209 73.1548 37.0241 73.6633L16.0918 100.543L20.7201 105.171L47.5998 84.2391C48.3547 83.6518 49.2916 83.3925 50.2427 83.5114C51.1924 83.6288 52.039 84.1101 52.6263 84.865C53.0231 85.375 53.2752 85.9824 53.354 86.6227L57.5596 120.431H64.1045L68.3101 86.6227C68.5536 84.6645 70.347 83.2693 72.3052 83.5114C72.9469 83.5916 73.5543 83.8437 74.0642 84.2391L100.944 105.171L105.572 100.543L84.6399 73.6633C84.0541 72.9113 83.7962 71.9731 83.9151 71.0219C84.034 70.0708 84.5125 69.2242 85.2659 68.6383Z"/>
</svg>


