<svg width="336"  viewBox="0 0 336 336" fill="none" xmlns="http://www.w3.org/2000/svg">
<path d="M29.5299 106.375L30.2624 105.176C58.186 56.7275 101.768 20.2476 152.397 0.715687C157.531 0.245283 162.736 0 167.995 0C171.191 0 174.366 0.094081 177.518 0.268803C118.966 16.2558 67.7895 54.9231 36.6805 108.926L36.6334 109.006L35.8438 110.3C35.7463 110.458 35.6254 110.669 35.4305 111.019L35.1281 111.556L35.104 111.6C34.961 111.861 34.8156 112.125 34.5165 112.743L34.4896 112.793C32.6482 116.449 31.3007 120.319 30.4808 124.301C25.4371 149.122 41.5058 173.445 66.3043 178.509C69.5133 179.16 72.7022 179.49 75.7835 179.49C92.8602 179.49 108.613 169.742 116.896 154.054L116.94 153.97C129.907 130.857 149.137 111.966 172.552 99.3394C192.784 88.3588 215.579 82.5527 238.463 82.5527C247.74 82.5527 257.219 83.5237 266.642 85.4322C289.071 90.0052 309.847 100.055 327.257 114.352C328.745 118.767 330.052 123.266 331.175 127.839C313.134 110.172 290.234 97.8307 265.16 92.7168C256.228 90.9057 247.246 89.9884 238.463 89.9884C216.816 89.9884 195.247 95.4821 176.09 105.878C153.922 117.833 135.72 135.705 123.445 157.565C113.868 175.676 95.6089 186.922 75.7835 186.922C72.2082 186.922 68.5221 186.542 64.8224 185.793C36.0051 179.91 17.3356 151.655 23.1992 122.809C24.1502 118.189 25.7093 113.707 27.8397 109.477C28.2396 108.65 28.458 108.257 28.6361 107.941L28.9937 107.301C29.2041 106.924 29.3526 106.658 29.5299 106.375Z" fill="#4F6278"/>
<path d="M42.5237 112.685L41.2434 114.853L40.6923 115.921C39.1231 119.036 37.9773 122.315 37.2918 125.672C33.0041 146.756 46.6332 167.403 67.675 171.701C70.4371 172.259 73.1656 172.544 75.7833 172.544C90.2625 172.544 103.714 164.111 110.901 150.533C124.513 126.29 144.678 106.479 169.228 93.2408C190.488 81.7058 214.43 75.6073 238.462 75.6073C248.2 75.6073 258.153 76.6221 268.032 78.628C287.794 82.6567 306.332 90.7376 322.589 102.108C320.738 97.7668 318.705 93.5197 316.507 89.3768C302.058 80.896 286.201 74.7472 269.514 71.3468C259.145 69.2434 248.698 68.1783 238.462 68.1783C213.193 68.1783 188.025 74.5859 165.69 86.7089C139.893 100.619 118.7 121.445 104.396 146.941L104.352 147.021C98.4581 158.18 87.5138 165.112 75.7833 165.112C73.6596 165.112 71.425 164.88 69.1569 164.42C52.1339 160.942 41.1056 144.229 44.5768 127.164C45.1312 124.452 46.0586 121.794 47.3254 119.281L47.7018 118.538L48.9552 116.418C84.5535 54.6206 147.954 14.1691 217.723 7.48266C211.359 5.51368 204.83 3.9143 198.166 2.70469C133.579 14.5152 76.0958 54.4257 42.5237 112.685Z" fill="#4F6278"/>
<path d="M258.96 127.114C252.488 125.813 245.979 125.155 239.602 125.155H239.393C221.742 125.195 204.423 130.104 189.309 139.354C174.406 148.47 162.273 161.399 154.218 176.745C145.992 191.475 133.714 203.561 118.707 211.702C105.874 218.705 91.4253 222.421 76.9293 222.454C71.0287 222.465 64.9467 221.856 58.8479 220.643C34.6071 215.758 13.3335 200.782 0.376406 179.5C0.725871 184.654 1.30719 189.745 2.11029 194.758C7.37242 201.145 13.4141 206.817 20.1816 211.696C31.3309 219.74 43.8478 225.2 57.3929 227.928C63.9789 229.242 70.5516 229.9 76.9494 229.884C92.6821 229.85 108.354 225.818 122.262 218.228C138.519 209.414 151.822 196.303 160.737 180.32L160.784 180.236C176.157 150.916 206.285 132.658 239.413 132.584H239.605C245.492 132.584 251.51 133.195 257.495 134.395C298.019 142.576 326.591 177.242 328.833 216.722C330.698 210.56 332.22 204.246 333.372 197.805C324.421 163.079 296.396 134.664 258.96 127.107V127.114Z" fill="#4F6278"/>
<path d="M320.082 239.483C320.197 238.972 320.304 238.462 320.408 237.947C329.333 193.561 300.499 150.163 256.13 141.205C250.539 140.083 244.927 139.515 239.423 139.529C208.899 139.599 181.066 156.541 166.775 183.743C157.212 200.863 142.978 214.891 125.599 224.319C110.656 232.467 93.8377 236.795 76.9626 236.832H76.7442C69.9532 236.832 62.9773 236.126 56.0082 234.735C36.5827 230.821 18.807 221.342 4.71422 207.744C5.78949 212.176 7.04286 216.537 8.46088 220.821C21.8749 231.268 37.6277 238.609 54.5465 242.02C62.0802 243.525 69.6205 244.274 76.9794 244.261C95.0911 244.221 113.132 239.58 129.15 230.844C147.776 220.744 163.038 205.691 173.29 187.322L173.338 187.238C186.335 162.454 211.664 147.022 239.44 146.961C244.443 146.951 249.558 147.465 254.662 148.49C295.012 156.635 321.238 196.108 313.12 236.476C311.816 242.947 309.642 249.247 306.665 255.201L306.635 255.258C306.211 256.145 305.852 256.804 305.472 257.499L305.16 258.057L305.091 258.178C304.693 258.88 304.314 259.548 303.916 260.177L303.879 260.238C303.758 260.436 303.637 260.634 303.51 260.853C298.096 270.298 292.132 279.323 285.67 287.904C299.824 274.014 311.531 257.637 320.079 239.48L320.082 239.483Z" fill="#4F6278"/>
<path d="M297.498 257.379L298.07 256.434C298.413 255.89 298.716 255.352 299.157 254.569L299.205 254.482L299.387 254.153C299.673 253.636 299.995 253.051 300.466 252.066C303.157 246.694 305.123 240.992 306.316 235.118C313.675 198.497 289.891 162.693 253.295 155.304C248.708 154.38 244.101 153.913 239.602 153.913H239.457C214.282 153.97 191.251 168.086 179.336 190.749C168.442 210.258 152.242 226.228 132.481 236.943C115.444 246.237 96.2573 251.173 76.9964 251.216C69.1772 251.233 61.1563 250.43 53.1657 248.834C38.6763 245.914 24.9968 240.279 12.7723 232.397C14.4356 236.402 16.2501 240.33 18.2058 244.174C28.6628 249.691 39.9297 253.75 51.704 256.122C60.0911 257.799 68.5152 258.649 76.7444 258.649H77.0133C97.5107 258.602 117.921 253.353 136.032 243.471C157.041 232.081 174.265 215.089 185.848 194.334L185.895 194.25C196.517 174.006 217.048 161.399 239.474 161.349C243.51 161.339 247.676 161.755 251.826 162.592C284.404 169.168 305.58 201.048 299.027 233.65C297.966 238.885 296.208 243.972 293.806 248.77L293.775 248.831C293.389 249.641 293.14 250.091 292.875 250.571L292.72 250.847L292.565 251.122L292.565 251.123C292.222 251.733 291.995 252.135 291.769 252.493L291.114 253.572L291.07 253.646C275.361 281.06 254.756 304.762 230.727 323.901C239.756 320.265 248.395 315.87 256.564 310.793C272.334 295.065 286.158 277.163 297.498 257.382V257.379Z" fill="#4F6278"/>
<path d="M285.926 248.736L285.193 249.943L285.19 249.933C266.235 282.992 239.995 310.507 209.195 330.903C202.434 332.61 195.509 333.903 188.449 334.76C225.509 314.422 257.065 284.057 278.765 246.196L278.812 246.116L279.599 244.822C279.68 244.694 279.773 244.528 279.912 244.28L279.913 244.279L279.984 244.152L280.015 244.096L280.314 243.555L280.325 243.535C280.466 243.279 280.618 243.005 280.922 242.376L280.946 242.322C282.781 238.663 284.118 234.789 284.928 230.807C289.918 205.973 273.795 181.687 248.983 176.681C245.808 176.042 242.649 175.72 239.598 175.72H239.501C222.427 175.76 206.695 185.541 198.449 201.249L198.405 201.333C185.492 224.474 166.301 243.407 142.914 256.088C122.706 267.112 99.9267 272.969 77.0401 273.023H76.7411C67.5609 273.023 58.1825 272.075 48.8578 270.207C42.796 268.987 36.8517 267.365 31.062 265.365C28.5889 261.898 26.2468 258.326 24.0391 254.667C32.433 258.309 41.2368 261.091 50.3263 262.923C59.1637 264.693 68.0549 265.594 76.7444 265.594H77.0267C98.6767 265.547 120.233 260.003 139.366 249.563C161.506 237.561 179.668 219.649 191.893 197.758C201.429 179.627 219.662 168.338 239.487 168.294C243.069 168.287 246.752 168.657 250.455 169.399C279.283 175.219 298.016 203.43 292.22 232.289C291.279 236.909 289.73 241.398 287.609 245.632C287.222 246.439 287.004 246.833 286.831 247.146L286.823 247.161L286.42 247.883C286.231 248.221 286.091 248.473 285.926 248.736Z" fill="#4F6278"/>
<path d="M242.444 222.878L241.688 224.158C210.778 278.093 155.72 313.478 95.1384 319.428C99.4899 321.525 103.949 323.44 108.502 325.164C166.409 315.601 218.18 280.116 248.127 227.878L248.936 226.507L249.074 226.248C249.356 225.67 249.733 224.773 249.924 223.795C251.043 218.234 247.478 212.804 241.977 211.692C241.131 211.521 240.334 211.434 239.605 211.434H239.585C236.786 211.44 232.774 212.72 229.568 218.772C213.345 247.819 189.306 271.558 160.035 287.427C134.604 301.301 105.935 308.67 77.1242 308.737H76.7479C76.5664 308.737 76.385 308.737 76.2035 308.733C80.051 311.247 84.006 313.609 88.0618 315.806C114.389 314.133 140.297 306.664 163.586 293.956C194.101 277.415 219.168 252.654 236.08 222.357L236.12 222.28C236.389 221.769 236.88 220.916 237.495 220.19C238.106 219.467 238.842 218.873 239.602 218.869H239.605C239.716 218.869 240.012 218.879 240.502 218.977C241.991 219.279 242.948 220.781 242.633 222.347C242.616 222.424 242.559 222.622 242.444 222.878Z" fill="#4F6278"/>
<path d="M261.571 233.384L260.523 235.162C233.086 283.019 188.503 317.752 137.299 333.204C132.081 332.243 126.943 331.04 121.906 329.606C176.836 317.009 225.267 281.739 254.084 231.449L254.105 231.415L255.103 229.722L255.24 229.447C255.933 228.069 256.437 226.621 256.739 225.149C258.607 215.852 252.599 206.756 243.345 204.888C242.025 204.623 240.771 204.492 239.572 204.492C236.282 204.498 233.18 205.483 230.452 207.324C227.72 209.162 225.361 211.853 223.563 215.274L223.52 215.355C207.945 243.266 184.837 266.084 156.698 281.339C132.293 294.655 104.769 301.731 77.1109 301.791H76.7447C73.1459 301.791 69.5202 301.667 65.8844 301.429C62.373 298.734 58.9724 295.905 55.6861 292.951C62.7426 293.882 69.7924 294.356 76.748 294.356H77.0941C103.519 294.295 129.816 287.535 153.146 274.807C180.038 260.228 202.118 238.431 217.008 211.766C221.863 202.573 230.287 197.076 239.555 197.052H239.605C241.272 197.052 243.023 197.237 244.814 197.597C258.083 200.278 266.699 213.302 264.024 226.624C263.587 228.748 262.868 230.814 261.88 232.783L261.571 233.384Z" fill="#4F6278"/>
<path d="M274.192 240.286L272.915 242.457V242.453C248.987 284.185 212.804 316.559 170.505 335.98C169.668 335.993 168.832 336 167.995 336C162.861 336 157.78 335.768 152.763 335.318C199.944 317.664 240.616 283.859 266.477 238.737L267.727 236.614L268.103 235.871C269.363 233.354 270.284 230.697 270.832 227.985C274.262 210.909 263.201 194.22 246.167 190.783C243.92 190.332 241.712 190.104 239.605 190.104H239.538C227.807 190.131 216.88 197.086 211.013 208.258L210.966 208.342C196.722 233.868 175.572 254.741 149.809 268.712C127.501 280.882 102.346 287.35 77.0771 287.407C67.1577 287.427 57.0064 286.443 46.9291 284.484C43.9485 281.389 41.0856 278.181 38.347 274.864C41.3612 275.677 44.4055 276.403 47.4835 277.021C57.3693 279.004 67.3324 279.998 77.0603 279.975C101.096 279.921 125.024 273.769 146.258 262.183C170.774 248.891 190.895 229.04 204.454 204.764C211.611 191.169 225.042 182.705 239.521 182.675H239.602C242.199 182.675 244.897 182.95 247.633 183.498C268.684 187.749 282.357 208.362 278.12 229.457C277.441 232.817 276.302 236.1 274.743 239.218L274.192 240.286Z" fill="#4F6278"/>
<path d="M17.4028 98.6508L17.974 97.71C35.1986 67.8158 58.0851 42.2325 84.8192 22.0017C97.1277 14.9759 110.407 9.4587 124.413 5.70891C83.2936 27.1392 48.2497 60.0407 24.3988 101.456L24.3551 101.53L23.6999 102.606C23.4378 103.015 23.1757 103.479 22.7422 104.249L22.5843 104.534C22.3188 105.008 22.0701 105.458 21.6837 106.265L21.6535 106.325C19.2375 111.12 17.47 116.2 16.3981 121.435C9.77168 154.021 30.8739 185.948 63.438 192.597C67.5845 193.441 71.7411 193.871 75.7868 193.871C98.2131 193.871 118.771 181.308 129.44 161.087L129.487 161.003C141.117 140.275 158.378 123.32 179.413 111.977C197.545 102.139 217.972 96.9338 238.466 96.9338C246.783 96.9338 255.294 97.8041 263.772 99.5211C291.154 105.102 315.798 119.789 333.819 140.816C334.585 145.54 335.16 150.331 335.526 155.18C318.275 130.316 291.994 112.86 262.287 106.806C254.303 105.189 246.285 104.366 238.463 104.366C219.202 104.366 200.005 109.258 182.945 118.515C163.163 129.187 146.926 145.12 135.989 164.602C124.023 187.241 100.962 201.303 75.7835 201.303C71.2405 201.303 66.5865 200.826 61.9494 199.882C25.3699 192.413 1.66679 156.554 9.10971 119.947C10.3127 114.077 12.2952 108.381 14.9968 103.012C15.4673 102.034 15.7899 101.45 16.0755 100.936L16.2637 100.6C16.7307 99.7697 17.0432 99.2153 17.4028 98.6508Z" fill="#4F6278"/>
<path d="M335.95 169.077C335.392 168.019 334.767 166.913 333.987 165.609C317.989 138.77 291.349 119.816 260.892 113.606C253.362 112.084 245.815 111.315 238.462 111.315C220.354 111.315 202.3 115.915 186.265 124.614C167.615 134.674 152.319 149.69 142.027 168.039L141.98 168.123C128.925 192.873 103.559 208.252 75.7834 208.252C70.7901 208.252 65.6691 207.724 60.5682 206.686C29.0089 200.241 6.14251 174.638 1.61963 144.471C0.645165 151.423 0.0974468 158.51 0 165.707C10.2622 189.657 31.6937 208.376 59.083 213.97C64.6711 215.106 70.2928 215.684 75.7834 215.684C106.311 215.684 134.181 198.807 148.532 171.634C158.133 154.535 172.4 140.54 189.8 131.152C204.759 123.038 221.587 118.747 238.462 118.747C245.324 118.747 252.374 119.469 259.414 120.891C287.818 126.683 312.673 144.371 327.606 169.423C328.339 170.649 328.917 171.668 329.417 172.625L329.535 172.837C331.343 175.811 333.335 178.65 335.483 181.348C335.798 177.323 335.973 173.26 336 169.161L335.95 169.08V169.077Z" fill="#4F6278"/>
<path d="M60.3095 125.46L60.1717 125.736C59.4762 127.117 58.9688 128.561 58.663 130.03C56.7745 139.324 62.7625 148.433 72.0098 150.324C73.3304 150.593 74.6006 150.731 75.7834 150.731C82.3594 150.731 88.1994 146.813 91.815 139.982L91.8587 139.902C107.497 112.023 130.656 89.2592 158.832 74.0685C183.264 60.8064 210.804 53.794 238.462 53.794C249.652 53.794 261.067 54.9599 272.391 57.2548C282.411 59.2977 292.159 62.2478 301.527 66.0279C304.454 69.855 307.22 73.8097 309.814 77.8854C297.559 71.8307 284.498 67.3114 270.905 64.5394C260.075 62.3419 249.158 61.2264 238.462 61.2264C212.038 61.2264 185.727 67.9263 162.367 80.6071C135.441 95.1258 113.314 116.869 98.3642 143.5C93.4884 152.683 85.0509 158.163 75.7834 158.163C74.1032 158.163 72.3324 157.975 70.5246 157.609C57.2618 154.897 48.6764 141.857 51.3813 128.538C51.8215 126.414 52.544 124.348 53.5386 122.382L53.8511 121.784L54.8995 120.007C92.0772 55.4975 160.438 14.9722 234.061 13.4904C239.447 15.7954 244.689 18.3725 249.77 21.2084C245.922 20.99 242.078 20.8757 238.241 20.8757C165.673 20.8757 97.8836 60.2889 61.331 123.736L60.3095 125.46Z" fill="#4F6278"/>
<path d="M72.9508 132.335L73.7102 131.055C107.753 71.9618 170.797 35.2568 238.241 35.2568C250.714 35.2568 263.271 36.5033 275.583 38.9595C271.524 35.5726 267.303 32.3739 262.935 29.3767C254.729 28.3418 246.467 27.821 238.244 27.821C168.16 27.821 102.652 65.9473 67.2854 127.322L66.4723 128.689L66.3345 128.948C66.0489 129.526 65.6725 130.423 65.4776 131.397C64.3452 136.958 67.9004 142.395 73.3977 143.517C74.2512 143.695 75.0543 143.783 75.7868 143.783C78.5893 143.783 82.6014 142.512 85.8205 136.468C102.111 107.457 126.204 83.7723 155.508 67.9701C180.972 54.1502 209.655 46.8455 238.466 46.8455C250.112 46.8455 261.998 48.0585 273.785 50.4508C280.217 51.7646 286.537 53.4346 292.727 55.4472C289.357 51.7142 285.818 48.1324 282.129 44.7153C279.854 44.1575 277.569 43.6401 275.267 43.173C262.989 40.6799 250.61 39.4165 238.466 39.4165C208.422 39.4165 178.509 47.0337 151.973 61.4348C121.422 77.909 96.2977 102.612 79.3184 132.872L79.2781 132.95C78.7337 133.971 77.3057 136.353 75.7868 136.353C75.6827 136.353 75.387 136.34 74.8896 136.239C73.4011 135.937 72.4468 134.432 72.766 132.866C72.7828 132.788 72.8399 132.594 72.9542 132.338L72.9508 132.335Z" fill="#4F6278"/>
</svg>
