<svg width="797" height="1055" viewBox="0 0 797 1055" fill="none" xmlns="http://www.w3.org/2000/svg">
<g clip-path="url(#clip0_1028_2394)">
<path d="M223.035 984.826C217.273 984.826 211.467 982.774 206.883 978.583C197.06 969.677 196.362 954.485 205.268 944.663C248.094 897.602 235.608 875.687 235.477 875.469C235.957 876.254 236.307 876.604 236.307 876.604L273.501 846.219C277.692 851.327 312.18 898.432 240.76 976.924C236.001 982.119 229.496 984.782 222.992 984.782L223.035 984.826Z" fill="#4F6278"/>
<path d="M393.333 1054.67C392.635 1054.67 391.936 1054.67 391.194 1054.59C377.966 1053.45 368.231 1041.8 369.366 1028.57C378.097 928.816 367.183 885.553 367.052 885.117C363.735 872.369 371.287 859.185 384.034 855.78C396.782 852.375 409.879 859.753 413.371 872.5C413.939 874.508 426.817 922.748 417.213 1032.76C416.121 1045.25 405.644 1054.67 393.333 1054.67Z" fill="#4F6278"/>
<path d="M578.133 984.826C571.891 984.826 565.648 982.425 560.977 977.579C500.077 915.239 500.208 865.864 500.47 860.451L548.448 862.372V861.848C548.448 862.197 549.233 896.816 595.334 944.008C604.589 953.481 604.414 968.673 594.941 977.972C590.27 982.556 584.202 984.826 578.177 984.826H578.133Z" fill="#4F6278"/>
<path opacity="0.4" d="M398.008 796.016C617.821 796.016 796.016 617.821 796.016 398.008C796.016 178.194 617.821 0 398.008 0C178.194 0 0 178.194 0 398.008C0 617.821 178.194 796.016 398.008 796.016Z" fill="url(#paint0_linear_1028_2394)"/>
<path d="M633.968 314.015C633.968 291.62 708.183 277.17 687.752 265.776C668.805 201.602 513.086 148.91 431.974 148.91C377.623 148.91 320.609 162.312 288.828 195.665C288.828 195.665 245.652 192.216 221.161 232.51C195.798 239.67 176.371 257.83 171.176 280.575C150.92 289 135.727 304.804 130.794 324.012C107.526 334.839 100.105 363.564 100.105 387.749C100.105 387.88 100.105 387.968 100.105 388.055C91.7226 395.738 86.484 405.954 86.484 417.26C86.484 422.368 87.7063 427.17 89.6272 431.71C84.5195 440.311 81.4199 449.915 81.4199 460.217C81.4199 494.356 112.896 521.946 152.448 523.693C160.262 538.754 177.899 549.319 198.46 549.319C212.823 549.319 225.658 544.124 234.869 535.916C248.141 546.219 265.603 552.636 284.986 552.636C304.369 552.636 321.962 546.132 335.277 535.785C347.981 544.211 363.74 549.449 381.072 549.449C406.436 549.449 428.744 538.623 442.277 522.208C448.694 523.736 455.286 524.784 462.227 524.784C493.135 524.784 519.634 508.806 531.072 485.974C568.922 482.831 598.607 455.896 598.607 422.805C598.607 422.543 598.52 422.281 598.52 422.019C619.78 410.756 634.056 390.849 634.056 367.93C634.056 358.282 631.349 349.201 626.809 340.994C631.349 332.787 634.056 323.707 634.056 314.015H633.968Z" fill="url(#paint1_linear_1028_2394)"/>
<path d="M735.246 344.574C735.071 322.178 721.8 302.664 701.893 291.401C683.078 227.358 616.939 180.123 538.403 180.56C485.798 180.865 439.043 202.475 408.484 236.002C408.484 236.002 408.441 236.002 408.397 236.002C379.366 236.177 354.613 251.413 343.263 273.197C318.772 280.487 300.087 298.779 295.242 321.523C275.684 330.036 261.103 345.927 256.432 365.179C233.993 376.137 218.67 397.004 218.844 421.189C218.844 421.32 218.844 421.407 218.844 421.495C210.768 429.222 205.791 439.481 205.879 450.788C205.879 455.895 207.145 460.697 209.022 465.194C204.176 473.838 201.208 483.442 201.295 493.745C201.557 527.883 232.247 555.299 270.533 556.827C278.216 571.844 295.373 582.322 315.28 582.191C329.162 582.104 341.604 576.865 350.422 568.614C363.344 578.829 380.326 585.159 399.055 585.072C417.87 584.985 434.808 578.393 447.643 567.959C459.998 576.341 475.277 581.492 492.085 581.405C516.619 581.274 538.141 570.36 551.107 553.815C557.306 555.299 563.723 556.347 570.446 556.303C600.394 556.128 625.932 540.02 636.803 517.144C673.43 513.783 701.98 486.716 701.719 453.625C701.719 453.363 701.631 453.101 701.631 452.839C722.149 441.489 735.814 421.495 735.639 398.576C735.552 388.928 732.889 379.847 728.436 371.684C732.758 363.433 735.333 354.352 735.246 344.661V344.574Z" fill="url(#paint2_linear_1028_2394)"/>
<path d="M222.822 672.121C217.278 672.121 211.559 671.16 205.796 669.196C180.389 660.596 157.906 633.529 148.52 600.264C147.079 595.2 150.048 589.917 155.112 588.477C160.351 587.124 165.458 590.005 166.899 595.069C174.495 622.092 192.612 644.618 211.952 651.123C220.377 654.004 228.41 653.567 235.133 650.031C243.34 645.753 249.714 636.935 253.075 625.235C254.559 620.171 259.754 617.289 264.906 618.73C269.97 620.214 272.895 625.497 271.41 630.561C266.565 647.325 256.83 660.247 243.951 666.97C237.359 670.418 230.243 672.121 222.822 672.121Z" fill="#AAB3E4"/>
<path d="M94.8619 266.342C93.4213 266.342 91.937 266.08 90.4963 265.469C84.5592 263.068 81.7216 256.302 84.1226 250.364C153.404 79.9768 294.892 64.2608 300.872 63.6496C307.246 62.9948 312.921 67.6659 313.533 74.0397C314.144 80.4134 309.516 86.0886 303.143 86.6998C302.575 86.7434 269.135 90.4541 228.361 113.417C173.66 144.194 132.362 193.219 105.601 259.052C103.768 263.548 99.4457 266.299 94.8619 266.299V266.342Z" fill="#D4DCE8"/>
<path d="M306.24 579.616C335.582 579.616 359.369 548.05 359.369 509.112C359.369 470.174 335.582 438.608 306.24 438.608C276.898 438.608 253.111 470.174 253.111 509.112C253.111 548.05 276.898 579.616 306.24 579.616Z" fill="#AAB3E4"/>
<path d="M132.367 525.482C161.709 525.482 185.496 493.917 185.496 454.979C185.496 416.04 161.709 384.475 132.367 384.475C103.025 384.475 79.2383 416.04 79.2383 454.979C79.2383 493.917 103.025 525.482 132.367 525.482Z" fill="#AAB3E4"/>
<path d="M253.112 518.759C249.838 518.759 246.608 517.057 244.818 514.044C221.811 475.453 185.795 485.101 185.402 485.232C180.251 486.672 174.925 483.704 173.484 478.552C172.044 473.401 175.012 468.075 180.164 466.634C197.626 461.701 237.003 463.229 261.407 504.178C264.157 508.762 262.629 514.699 258.045 517.406C256.517 518.323 254.771 518.759 253.112 518.759Z" fill="black"/>
<path d="M132.363 535.174C97.7438 535.174 69.5859 499.202 69.5859 454.979C69.5859 410.756 97.7438 374.783 132.363 374.783C166.981 374.783 195.139 410.756 195.139 454.979C195.139 499.202 166.981 535.174 132.363 535.174ZM132.363 394.123C108.396 394.123 88.8817 421.408 88.8817 454.979C88.8817 488.55 108.396 515.835 132.363 515.835C156.33 515.835 175.844 488.55 175.844 454.979C175.844 421.408 156.33 394.123 132.363 394.123Z" fill="black"/>
<path d="M306.244 589.263C271.625 589.263 243.467 553.291 243.467 509.068C243.467 464.845 271.625 428.872 306.244 428.872C340.862 428.872 369.02 464.845 369.02 509.068C369.02 553.291 340.862 589.263 306.244 589.263ZM306.244 448.212C282.277 448.212 262.763 475.496 262.763 509.068C262.763 542.639 282.277 569.923 306.244 569.923C330.21 569.923 349.724 542.639 349.724 509.068C349.724 475.496 330.21 448.212 306.244 448.212Z" fill="black"/>
<path d="M393.38 892.495C323.88 890.006 248.4 875.687 166.633 826.837L168.947 762.576C231.592 804.092 320.082 828.015 395.606 830.722C486.235 833.996 557.699 807.497 631.477 755.241L629.163 819.764C545.781 878.656 474.623 891.578 393.38 892.495Z" fill="#2AAF80"/>
<path d="M393.376 900.222C393.376 900.222 393.201 900.222 393.114 900.222C306.938 897.122 233.727 875.906 162.7 833.472C160.298 832.032 158.858 829.369 158.945 826.575L161.259 762.27C161.346 759.476 162.961 756.944 165.45 755.678C167.938 754.412 170.907 754.543 173.264 756.115C231.195 794.532 316.542 820.157 395.908 822.995C480.381 826.007 549.488 803.874 627.02 748.911C629.421 747.209 632.564 747.034 635.14 748.431C637.716 749.828 639.287 752.579 639.2 755.503L636.886 820.026C636.799 822.427 635.577 824.654 633.612 826.051C548.353 886.296 475.972 899.261 393.463 900.222C393.463 900.222 393.419 900.222 393.376 900.222ZM174.53 822.515C241.978 861.979 311.696 881.799 393.463 884.768C471.956 883.851 540.975 871.627 621.563 815.617L623.178 770.303C548.44 820.288 477.543 841.374 395.296 838.449C318.288 835.699 235.779 812.081 176.145 776.284L174.487 822.558L174.53 822.515Z" fill="#2AAF80"/>
<path d="M610.771 811.852C611.155 801.178 605.04 792.294 597.113 792.009C589.186 791.724 582.448 800.146 582.064 810.82C581.68 821.494 587.795 830.378 595.723 830.663C603.65 830.948 610.387 822.526 610.771 811.852Z" fill="#28313C"/>
<path d="M210.695 812.406C211.078 801.732 205.432 792.865 198.083 792.601C190.735 792.336 184.466 800.775 184.082 811.449C183.698 822.123 189.344 830.99 196.693 831.254C204.042 831.519 210.311 823.08 210.695 812.406Z" fill="#28313C"/>
<path d="M389.619 880.751C400.3 880.751 408.958 872.093 408.958 861.412C408.958 850.731 400.3 842.072 389.619 842.072C378.938 842.072 370.279 850.731 370.279 861.412C370.279 872.093 378.938 880.751 389.619 880.751Z" fill="#28313C"/>
<path opacity="0.08" d="M398.005 0C276.861 0 168.377 54.1329 95.3848 139.48C152.966 100.233 222.553 77.2703 297.51 77.2703C495.968 77.2703 656.883 238.141 656.883 436.643C656.883 618.512 521.725 768.818 346.404 792.698C363.299 794.88 380.499 796.016 398.005 796.016C617.811 796.016 796.013 617.813 796.013 398.008C796.013 178.202 617.811 0 398.005 0Z" fill="white"/>
<path d="M380.245 67.1854C374.7 67.1854 369.811 63.2128 368.85 57.5812C367.759 51.2948 371.95 45.2703 378.28 44.1789C379.808 43.917 415.868 37.7179 440.795 43.0875C447.038 44.4409 451.054 50.5963 449.701 56.839C448.347 63.0818 442.192 67.0981 435.949 65.7448C418.88 62.0777 391.42 65.4392 382.296 67.0108C381.642 67.1418 380.943 67.1854 380.288 67.1854H380.245Z" fill="#D4DCE8"/>
</g>
<defs>
<linearGradient id="paint0_linear_1028_2394" x1="0" y1="398.008" x2="796.016" y2="398.008" gradientUnits="userSpaceOnUse">
<stop offset="0.02" stop-color="#5D6FCD"/>
<stop offset="0.26" stop-color="#5293C2"/>
<stop offset="0.59" stop-color="#43C2B4"/>
<stop offset="0.85" stop-color="#3BDFAC"/>
<stop offset="1" stop-color="#38EAA9"/>
</linearGradient>
<linearGradient id="paint1_linear_1028_2394" x1="145.899" y1="231.113" x2="578.133" y2="476.545" gradientUnits="userSpaceOnUse">
<stop offset="0.08" stop-color="#FB5C5C"/>
<stop offset="0.36" stop-color="#FB8888"/>
<stop offset="0.38" stop-color="#FB8D8D"/>
</linearGradient>
<linearGradient id="paint2_linear_1028_2394" x1="182.61" y1="226.922" x2="641.91" y2="499.987" gradientUnits="userSpaceOnUse">
<stop stop-color="#F83640"/>
<stop offset="0.02" stop-color="#F83B44"/>
<stop offset="0.11" stop-color="#F94D51"/>
<stop offset="0.19" stop-color="#FA5859"/>
<stop offset="0.3" stop-color="#FB5C5C"/>
<stop offset="0.61" stop-color="#FB7C7C"/>
<stop offset="0.81" stop-color="#FB8D8D"/>
</linearGradient>
<clipPath id="clip0_1028_2394">
<rect width="796.016" height="1054.67" fill="white"/>
</clipPath>
</defs>
</svg>
