<svg width="40" height="36" viewBox="0 0 40 36" fill="none" xmlns="http://www.w3.org/2000/svg">
<path d="M10 19.875V3.625C10 1.90625 8.59375 0.5 6.875 0.5H3.125C1.32812 0.5 0 1.90625 0 3.625V19.875C0 21.6719 1.32812 23 3.125 23H6.875C8.59375 23 10 21.6719 10 19.875ZM7.5 19.875C7.5 20.2656 7.1875 20.5 6.875 20.5H3.125C2.73438 20.5 2.5 20.2656 2.5 19.875V3.625C2.5 3.3125 2.73438 3 3.125 3H6.875C7.1875 3 7.5 3.3125 7.5 3.625V19.875ZM37.2656 16.4375C37.5 15.9688 37.5781 15.3438 37.5781 14.7969C37.5781 13 36.5625 11.4375 35.0781 10.5781C35.1562 10.2656 35.2344 9.875 35.2344 9.48438C35.2344 7.76562 34.2969 6.20312 32.8125 5.34375C32.8906 2.6875 30.7031 0.5 28.0469 0.5H23.6719C17.6562 0.5 12.5 5.5 12.5 6.82812C12.5 7.45312 13.0469 8.07812 13.75 8.07812C15.2344 8 17.3438 3 23.6719 3H28.0469C29.2969 3 30.3906 4.09375 30.3906 5.34375C30.3906 5.73438 30.2344 5.8125 30.2344 6.125C30.2344 7.76562 32.7344 7.0625 32.7344 9.48438C32.7344 10.5 32.1875 10.6562 32.1875 11.3594C32.1875 12.0625 32.7344 12.4531 33.2031 12.5312C34.2969 12.7656 35.0781 13.7031 35.0781 14.7969C35.0781 16.2031 34.1406 16.2812 34.1406 17.2188C34.1406 17.8438 34.6875 18.3906 35.3125 18.4688C36.4844 18.5469 37.5 19.5625 37.5 20.7344C37.5 21.9844 36.4062 23 35.1562 23H25.1562C24.4531 23 23.9844 23.5469 23.9844 24.3281C23.9844 24.4844 23.9844 24.7188 24.1406 24.875C25.4688 27.375 26.1719 30.0312 26.1719 30.8125C26.0938 31.75 25.3906 33 23.75 33C22.5 33 22.2656 32.6875 21.5625 30.5C19.8438 25.2656 18.6719 25.0312 14.6094 20.8906C14.375 20.6562 14.0625 20.5 13.75 20.5C13.0469 20.5 12.5 21.0469 12.5 21.75C12.5 23.5469 16.9531 24.5625 19.1406 31.2031C19.8438 33.2344 20.5469 35.5 23.75 35.5C26.7969 35.5 28.5938 33.1562 28.5938 30.8125C28.5938 29.7188 28.125 27.6875 27.1875 25.5H35.1562C37.8125 25.5 40 23.3906 40 20.7344C40 18.8594 38.9062 17.2188 37.2656 16.4375Z"/>
</svg>
