<svg width="40" height="36" viewBox="0 0 40 36" fill="none" xmlns="http://www.w3.org/2000/svg">
<path d="M6.875 13H3.125C1.32812 13 0 14.4062 0 16.125V32.375C0 34.1719 1.32812 35.5 3.125 35.5H6.875C8.59375 35.5 10 34.1719 10 32.375V16.125C10 14.4062 8.59375 13 6.875 13ZM7.5 32.375C7.5 32.7656 7.1875 33 6.875 33H3.125C2.73438 33 2.5 32.7656 2.5 32.375V16.125C2.5 15.8125 2.73438 15.5 3.125 15.5H6.875C7.1875 15.5 7.5 15.8125 7.5 16.125V32.375ZM40 15.3438C40 12.6875 37.8125 10.5 35.1562 10.5H27.1875C28.0469 8.39062 28.5938 6.35938 28.5938 5.26562C28.5938 2.92188 26.7969 0.5 23.75 0.5C20.5469 0.5 19.8438 2.84375 19.1406 4.79688C17.0312 11.4375 12.5 12.4531 12.5 14.25C12.5 15.0312 13.0469 15.5 13.75 15.5C14.0625 15.5 14.375 15.4219 14.6094 15.1875C18.6719 11.0469 19.8438 10.8125 21.5625 5.57812C22.2656 3.39062 22.5 3 23.75 3C25.3906 3 26.0938 4.32812 26.0938 5.26562C26.0938 6.04688 25.3906 8.70312 24.0625 11.2031C23.9062 11.3594 23.9062 11.5938 23.9062 11.75C23.9062 12.5312 24.5312 13 25.1562 13H35.1562C36.4062 13 37.5 14.0938 37.5 15.3438C37.5 16.5156 36.4844 17.5312 35.3125 17.6094C34.6875 17.6875 34.1406 18.2344 34.1406 18.8594C34.1406 19.7969 35.0781 19.875 35.0781 21.2812C35.0781 22.375 34.2969 23.3125 33.2031 23.5469C32.7344 23.625 32.1875 24.0156 32.1875 24.7188C32.1875 25.4219 32.7344 25.5781 32.7344 26.5938C32.7344 29.0156 30.2344 28.3125 30.2344 29.9531C30.2344 30.2656 30.3906 30.3438 30.3906 30.7344C30.3906 31.9844 29.2969 33 28.0469 33H23.6719C17.2656 33 15.2344 28 13.75 28C13.0469 28 12.5 28.625 12.5 29.25C12.4219 30.5781 17.5 35.5 23.6719 35.5H28.0469C30.7031 35.5 32.8906 33.3906 32.8906 30.7344C34.2969 29.875 35.2344 28.3125 35.2344 26.5938C35.2344 26.2031 35.1562 25.8125 35.0781 25.5C36.5625 24.6406 37.5781 23.0781 37.5781 21.2812C37.5781 20.7344 37.5 20.1094 37.2656 19.6406C38.9062 18.8594 40 17.2188 40 15.3438Z" />
</svg>
