<svg width="1647" height="220" viewBox="0 0 1647 220" fill="none" xmlns="http://www.w3.org/2000/svg">
<rect width="1647" height="220" rx="1" fill="#1E2C3C"/>
<mask id="mask0_1979_16819" style="mask-type:alpha" maskUnits="userSpaceOnUse" x="0" y="0" width="1647" height="220">
<rect width="1647" height="220" rx="1" fill="#FB3640"/>
</mask>
<g mask="url(#mask0_1979_16819)">
<path d="M1477.44 -35.127C1411.67 -35.127 1358.35 18.2516 1358.35 84.0852V168.63H1477.09V49.9344H1427.02C1437.86 33.8826 1456.22 23.3216 1477.04 23.3216L1477.44 -35.127Z" fill="url(#paint0_linear_1979_16819)"/>
<path d="M1527.91 253.715C1593.68 253.715 1647 200.336 1647 134.503V49.958L1528.26 49.958V168.654H1578.33C1567.49 184.705 1549.13 195.266 1528.31 195.266L1527.91 253.715Z" fill="url(#paint1_linear_1979_16819)"/>
</g>
<defs>
<linearGradient id="paint0_linear_1979_16819" x1="1647" y1="188.639" x2="1380.17" y2="5.43108" gradientUnits="userSpaceOnUse">
<stop stop-color="#5D6FD0"/>
<stop offset="0.84375" stop-color="#FB3640"/>
</linearGradient>
<linearGradient id="paint1_linear_1979_16819" x1="1647" y1="188.639" x2="1380.17" y2="5.43108" gradientUnits="userSpaceOnUse">
<stop stop-color="#5D6FD0"/>
<stop offset="0.84375" stop-color="#FB3640"/>
</linearGradient>
</defs>
</svg>
