<svg width="454" height="221" viewBox="0 0 454 221" fill="none" xmlns="http://www.w3.org/2000/svg">
<path d="M426.583 -5.30358L339.707 81.573L513.455 81.5679L513.475 138.125L339.705 138.13L426.588 225.012L386.592 265.008L251.433 129.849C240.406 118.822 240.392 100.949 251.391 89.902L386.594 -45.297L426.585 -5.30529L426.583 -5.30358Z" fill="url(#paint0_linear_668_9193)"/>
<path d="M305.685 -5.30358L218.808 81.573L189.36 109.851L218.807 138.13L305.689 225.012L265.693 265.008L130.535 129.849C119.507 118.822 119.493 100.949 130.493 89.902L265.695 -45.297L305.687 -5.30529L305.685 -5.30358Z" fill="#ECEFF4"/>
<path d="M183.88 -5.30358L97.0037 81.573L67.5548 109.851L97.0021 138.13L183.884 225.012L143.889 265.008L8.73027 129.849C-2.29751 118.822 -2.31152 100.949 8.68785 89.902L143.89 -45.297L183.882 -5.30529L183.88 -5.30358Z" fill="#F3F7FC"/>
<defs>
<linearGradient id="paint0_linear_668_9193" x1="309.015" y1="320.133" x2="309.015" y2="1.9782" gradientUnits="userSpaceOnUse">
<stop offset="0.338542" stop-color="#5D6FD0"/>
<stop offset="0.75" stop-color="#FE5C5C"/>
</linearGradient>
</defs>
</svg>
