<svg width="423" height="755" viewBox="0 0 423 755" fill="none" xmlns="http://www.w3.org/2000/svg">
<path fill-rule="evenodd" clip-rule="evenodd" d="M213.443 57.4739C37.7189 233.176 34.0967 518.198 214.058 698.137L157.383 754.806C-54.2357 543.214 -49.9001 207.448 156.768 0.805664L213.443 57.4739ZM317.302 161.873C199.369 279.79 202.295 470.187 321.801 589.678L265.126 646.346C115.663 496.903 110.065 255.747 260.627 105.204L317.302 161.873ZM421.968 266.042C361.186 326.815 361.205 429.005 422.215 490.007L365.539 546.675C273.323 454.47 273.116 301.538 365.292 209.374L421.968 266.042Z" fill="url(#paint0_linear_310_5167)"/>
<defs>
<linearGradient id="paint0_linear_310_5167" x1="393.877" y1="523.633" x2="51.4086" y2="421.892" gradientUnits="userSpaceOnUse">
<stop offset="0.14061" stop-color="#38EDAC"/>
<stop offset="0.494791" stop-color="#5D6FD0"/>
<stop offset="0.989603" stop-color="#E61A32"/>
</linearGradient>
</defs>
</svg>
