<svg width="33" height="43" viewBox="0 0 33 43" fill="none" xmlns="http://www.w3.org/2000/svg">
<path d="M13.087 0.927247C14.3273 3.8449 16.249 5.79487 18.6326 7.96904C19.876 9.04874 22.8957 11.2288 20.7449 12.8898C18.9429 14.1142 14.0985 13.6453 14.3441 16.3181C14.4248 16.7902 15.0321 17.864 15.0321 17.864C15.6231 18.8434 16.5727 20.0618 16.098 21C15.1163 22.6875 12.2387 23.195 10.4528 24.5138C12.888 25.1332 11.7836 24.9674 14.2752 25.3662C15.8739 25.4281 15.8482 27.7528 14.9116 28.4668C12.4831 30.3609 12.6349 30.6293 15.2027 36.3555C15.4192 40.0963 11.5147 40.1702 6.77049 41.5245" stroke="#141E29" stroke-width="1.5" stroke-miterlimit="10" stroke-linecap="round" stroke-linejoin="round"/>
<path d="M21.375 20.373C22.2451 21.4858 22.7672 22.7575 22.7672 24.1882C22.7672 25.6189 22.2451 27.0496 21.375 28.0034" stroke="#141E29" stroke-width="1.5" stroke-miterlimit="10" stroke-linecap="round" stroke-linejoin="round"/>
<path d="M24.6797 17.9893C26.0719 19.7379 26.942 21.8044 26.942 24.1889C26.942 26.5734 26.0719 28.64 24.6797 30.3886" stroke="#141E29" stroke-width="1.5" stroke-miterlimit="10" stroke-linecap="round" stroke-linejoin="round"/>
<path d="M28.1641 15.7637C30.0783 18.1482 31.2965 21.1685 31.2965 24.3478C31.2965 27.5271 30.0783 30.5475 28.1641 32.932" stroke="#141E29" stroke-width="1.5" stroke-miterlimit="10" stroke-linecap="round" stroke-linejoin="round"/>
</svg>
