<svg role="img"
	xmlns="http://www.w3.org/2000/svg" viewBox="0 0 227 28" fill="currentColor" stroke="currentColor">
	<title>Deepgram</title>
  <path d="M62.065 14h-7.668v14h7.668V14Z"/>
  <path d="M33.607 14v3.04c.274 7.299 4.493 10.948 12.656 10.948H58.16v-5.995H46.51a5.257 5.257 0 0 1-2.015-.228 5.193 5.193 0 0 1-1.77-.973 5.456 5.456 0 0 1-1.298-3.784 44.232 44.232 0 0 1-.087-2.998c0-1.222 0-2.21.087-2.955a5.105 5.105 0 0 1 .314-2.032 5.172 5.172 0 0 1 1.092-1.752 5.471 5.471 0 0 1 3.883-1.223h11.509V0H46.512c-4.013 0-7.14.935-9.357 2.817a10.55 10.55 0 0 0-2.653 3.673 10.386 10.386 0 0 0-.851 4.427c-.022.776-.044 1.839-.044 3.082ZM.833 14h7.669V.002H.833v14Z"/>
  <path d="M29.248 10.917c-.119-3.476-1.276-6.219-3.537-8.1C23.451.935 20.401 0 16.387 0H4.662v5.995h11.52a5.471 5.471 0 0 1 3.883 1.223 5.214 5.214 0 0 1 1.089 1.753c.241.65.349 1.34.317 2.03.054.745.087 1.723.087 2.956 0 1.233 0 2.222-.087 2.997a5.414 5.414 0 0 1-1.309 3.838 5.16 5.16 0 0 1-1.764.973 5.223 5.223 0 0 1-2.01.228H4.661v5.995H16.56c8.156 0 12.375-3.65 12.656-10.948V14c0-1.276.054-2.307.032-3.083Zm44.727 11.842a.615.615 0 0 1-.195-.447V5.71a.628.628 0 0 1 .184-.479.595.595 0 0 1 .422-.191h6.847a9.032 9.032 0 0 1 5.992 1.807 6.777 6.777 0 0 1 1.728 2.34c.397.894.594 1.862.576 2.837v3.922c-.173 4.67-2.873 7.005-8.102 7.005h-7.041a.632.632 0 0 1-.411-.191Zm7.301-3.625a3.365 3.365 0 0 0 2.423-.765 3.48 3.48 0 0 0 .833-2.424c0-.5.054-1.137.054-1.924 0-.787 0-1.414-.054-1.892a3.274 3.274 0 0 0-.2-1.3 3.318 3.318 0 0 0-.698-1.124 3.6 3.6 0 0 0-2.488-.776h-2.433v10.205h2.563Zm12.579 3.625a.617.617 0 0 1-.195-.447V5.708a.674.674 0 0 1 .412-.625.626.626 0 0 1 .259-.044h12.233a.65.65 0 0 1 .476.19.647.647 0 0 1 .206.48v2.53a.587.587 0 0 1-.206.456.676.676 0 0 1-.476.181h-8.231v3.253h7.658a.694.694 0 0 1 .487.191.632.632 0 0 1 .194.468v2.328a.638.638 0 0 1-.418.622.695.695 0 0 1-.263.047h-7.658v3.349h8.437a.677.677 0 0 1 .632.412c.034.081.051.17.049.257v2.52a.579.579 0 0 1-.194.457.651.651 0 0 1-.487.18H94.277a.653.653 0 0 1-.422-.201Zm17.879 0a.604.604 0 0 1-.195-.447V5.708a.676.676 0 0 1 .184-.478.603.603 0 0 1 .465-.191h12.288a.677.677 0 0 1 .632.411c.034.082.051.17.049.258v2.53a.579.579 0 0 1-.194.457.701.701 0 0 1-.487.18h-8.221v3.254h7.658a.67.67 0 0 1 .478.19.653.653 0 0 1 .193.469v2.328a.64.64 0 0 1-.195.478.651.651 0 0 1-.476.191h-7.658v3.349h8.437a.658.658 0 0 1 .671.67v2.519a.58.58 0 0 1-.195.457.65.65 0 0 1-.476.18h-12.45a.634.634 0 0 1-.508-.201Zm17.924-.001a.615.615 0 0 1-.195-.446V5.708a.672.672 0 0 1 .174-.479.632.632 0 0 1 .475-.19h7.367a8.376 8.376 0 0 1 5.31 1.509 5.305 5.305 0 0 1 1.489 1.987 5.23 5.23 0 0 1 .415 2.435 5.067 5.067 0 0 1-.419 2.415 5.169 5.169 0 0 1-1.506 1.953 8.647 8.647 0 0 1-5.311 1.446h-2.964v5.538a.641.641 0 0 1-.66.638h-3.742a.633.633 0 0 1-.433-.202Zm7.691-9.63a2.427 2.427 0 0 0 1.676-.553 2.11 2.11 0 0 0 .617-1.627 2.295 2.295 0 0 0-.563-1.615 2.22 2.22 0 0 0-.798-.488 2.253 2.253 0 0 0-.932-.118h-2.921v4.4h2.921Zm12.957 8.27a6.804 6.804 0 0 1-1.703-2.337 6.694 6.694 0 0 1-.569-2.818v-4.678a6.38 6.38 0 0 1 .575-2.752 6.471 6.471 0 0 1 1.708-2.254 9.075 9.075 0 0 1 5.895-1.775 11.07 11.07 0 0 1 4.326.797 6.936 6.936 0 0 1 2.834 2.03 4.4 4.4 0 0 1 1.028 2.54.53.53 0 0 1-.161.406.556.556 0 0 1-.413.158h-3.991a.723.723 0 0 1-.4-.085 1.07 1.07 0 0 1-.281-.266 3.047 3.047 0 0 0-.995-1.233 3.29 3.29 0 0 0-1.947-.51c-2.012 0-3.051 1.063-3.116 3.072v4.422c.065 2.126 1.082 3.253 3.17 3.253a3.613 3.613 0 0 0 2.401-.744 2.772 2.772 0 0 0 .887-2.253v-.426h-2.326a.662.662 0 0 1-.623-.41.622.622 0 0 1-.047-.26v-2.02a.639.639 0 0 1 .194-.478.65.65 0 0 1 .476-.191h6.62a.662.662 0 0 1 .671.67v2.965a6.676 6.676 0 0 1-1.082 3.753 6.56 6.56 0 0 1-2.899 2.402 10.78 10.78 0 0 1-4.326.83 8.844 8.844 0 0 1-5.906-1.808Zm18.487 1.36a.602.602 0 0 1-.195-.447V5.708a.672.672 0 0 1 .184-.479.61.61 0 0 1 .476-.19h7.16a8.502 8.502 0 0 1 5.409 1.53 5.33 5.33 0 0 1 1.484 1.94c.336.75.49 1.567.452 2.386a5.341 5.341 0 0 1-.844 3.05 5.652 5.652 0 0 1-2.369 2l3.516 6.239a.66.66 0 0 1 .086.287.547.547 0 0 1-.162.372.501.501 0 0 1-.39.16h-3.666a1.1 1.1 0 0 1-.658-.17 1.07 1.07 0 0 1-.424-.521l-2.866-5.55h-2.499v5.56a.571.571 0 0 1-.195.457.647.647 0 0 1-.487.18h-3.558a.658.658 0 0 1-.454-.201Zm7.571-9.811a2.384 2.384 0 0 0 1.709-.553 1.989 1.989 0 0 0 .584-1.52 2.12 2.12 0 0 0-.584-1.563 2.318 2.318 0 0 0-1.709-.585h-2.888v4.252l2.888-.031Zm10.826 9.843a.547.547 0 0 1-.162-.371.657.657 0 0 1 0-.234l6.068-16.402a.984.984 0 0 1 .399-.57c.199-.137.441-.199.682-.174h4.067a1.02 1.02 0 0 1 .683.173c.199.137.34.34.399.571l6.068 16.402a.614.614 0 0 1 0 .234.558.558 0 0 1-.173.372c-.1.1-.236.157-.378.16h-3.386a.9.9 0 0 1-.538-.138.875.875 0 0 1-.349-.426l-.941-2.477h-6.814l-.941 2.477a.88.88 0 0 1-.349.426.901.901 0 0 1-.538.137h-3.386a.551.551 0 0 1-.411-.16Zm6.685-6.717h4.629l-2.315-6.506-2.314 6.506Zm15.035 6.697a.58.58 0 0 1-.195-.457V5.709a.658.658 0 0 1 .419-.622.685.685 0 0 1 .263-.048h2.942c.196-.009.39.04.558.14a.97.97 0 0 1 .383.424l4.478 7.876 4.5-7.876a.97.97 0 0 1 .382-.424c.168-.1.363-.149.559-.14h2.942a.648.648 0 0 1 .476.191.638.638 0 0 1 .194.478v16.615a.578.578 0 0 1-.194.457.632.632 0 0 1-.476.181h-3.31a.678.678 0 0 1-.453-.193.65.65 0 0 1-.196-.445v-9.322l-2.856 5.07c-.084.17-.212.314-.372.419-.16.105-.345.166-.536.177h-1.406a1.096 1.096 0 0 1-.543-.175 1.067 1.067 0 0 1-.377-.42l-2.78-5.06v9.311a.578.578 0 0 1-.194.457.657.657 0 0 1-.487.181h-3.245a.66.66 0 0 1-.476-.191Z"/>
</svg>
