<svg width="223" height="28" viewBox="0 0 223 28" fill="none" xmlns="http://www.w3.org/2000/svg">
  <path d="M60.425 13.8159H52.8572V27.6308H60.425V13.8159Z" fill="#E93D45"></path>
  <path
    d="M32.3419 13.8149C32.3419 15.0736 32.3419 16.0701 32.3419 16.8149C32.6123 24.0178 36.7751 27.6192 44.8304 27.6192H56.5717V21.7031H45.0759C44.4044 21.7577 43.7285 21.6811 43.0873 21.4776C42.4461 21.2742 41.8522 20.9479 41.34 20.5177C40.4535 19.4738 39.9966 18.1417 40.0591 16.7834C40.0057 16.0177 39.9737 15.0316 39.9737 13.8253C39.9737 12.619 39.9737 11.6435 40.0591 10.9092C40.0253 10.2273 40.1307 9.5456 40.369 8.90428C40.6073 8.26296 40.9737 7.67497 41.4467 7.17491C42.515 6.29689 43.8901 5.86399 45.2787 5.9686H56.6357V0H45.0759C41.1158 0 38.0311 0.923088 35.8429 2.77975C34.7146 3.78863 33.8214 5.02517 33.2245 6.40475C32.6276 7.78432 32.3411 9.27436 32.3846 10.7729C32.3632 11.5386 32.3419 12.5876 32.3419 13.8149Z"
    fill="#E93D45"></path>
  <path d="M-9.53674e-07 13.8159L7.56781 13.8159L7.56781 0.00106621L-9.53674e-07 0.00106621L-9.53674e-07 13.8159Z"
    fill="#E93D45"></path>
  <path
    d="M28.0404 10.7729C27.923 7.34275 26.7808 4.63642 24.55 2.77975C22.3191 0.923088 19.3091 0 15.3491 0H3.77855V5.91615H15.1463C16.5348 5.81154 17.91 6.24444 18.9782 7.12246C19.4492 7.62385 19.8144 8.21206 20.0526 8.85305C20.2908 9.49404 20.3972 10.1751 20.3658 10.8568C20.4192 11.591 20.4512 12.5561 20.4512 13.7729C20.4512 14.9897 20.4512 15.9652 20.3658 16.731C20.4433 18.109 19.9812 19.464 19.0743 20.5177C18.5643 20.9481 17.9723 21.2746 17.3328 21.4781C16.6933 21.6816 16.019 21.758 15.3491 21.7031H3.77855V27.6192H15.5199C23.568 27.6192 27.7308 24.0178 28.0084 16.8149C28.0084 16.0701 28.0084 15.0736 28.0084 13.8149C28.0084 12.5561 28.0617 11.5386 28.0404 10.7729Z"
    fill="#E93D45"></path>
  <path
    d="M72.1771 22.4584C72.1164 22.4016 72.068 22.3333 72.035 22.2575C72.002 22.1818 71.985 22.1003 71.985 22.0179V5.63307C71.9804 5.54635 71.9942 5.45964 72.0255 5.3784C72.0567 5.29717 72.1047 5.22316 72.1664 5.16104C72.2194 5.10373 72.2835 5.05748 72.355 5.02505C72.4266 4.99261 72.504 4.97464 72.5827 4.97223H79.3393C81.465 4.84438 83.5658 5.4779 85.2527 6.75546C85.9836 7.39585 86.5651 8.18383 86.9575 9.06551C87.3499 9.94718 87.5439 10.9018 87.5262 11.8639C87.5262 12.3569 87.5262 12.9968 87.5262 13.815C87.5262 14.6332 87.5262 15.2626 87.5262 15.7346C87.3554 20.343 84.6905 22.6473 79.5314 22.6473H72.5827C72.4282 22.6364 72.2835 22.569 72.1771 22.4584ZM79.382 18.8815C79.8115 18.9169 80.2439 18.8683 80.6543 18.7387C81.0647 18.6091 81.4448 18.4009 81.773 18.1262C82.3426 17.4586 82.6359 16.6049 82.5948 15.7346C82.5948 15.2416 82.6482 14.6122 82.6482 13.836C82.6482 13.0597 82.6482 12.4408 82.5948 11.9688C82.6166 11.5323 82.5494 11.0959 82.3973 10.6852C82.2452 10.2745 82.0111 9.89781 81.7089 9.57718C81.0188 9.02557 80.1414 8.7519 79.2539 8.81143H76.8523V18.8815H79.382Z"
    fill="#E93D45"></path>
  <path
    d="M91.7957 22.4584C91.735 22.4016 91.6867 22.3333 91.6536 22.2575C91.6206 22.1818 91.6036 22.1003 91.6036 22.0179V5.63305C91.6022 5.45704 91.6712 5.28752 91.7957 5.16102C91.8555 5.09818 91.9285 5.04878 92.0095 5.0162C92.0906 4.98361 92.1779 4.9686 92.2654 4.9722H104.338C104.425 4.96994 104.512 4.98556 104.593 5.01807C104.673 5.05057 104.747 5.09925 104.807 5.16102C104.872 5.2221 104.923 5.29544 104.958 5.37658C104.993 5.45772 105.01 5.54497 105.01 5.63305V8.12958C105.011 8.21472 104.994 8.29915 104.959 8.37704C104.924 8.45492 104.872 8.52439 104.807 8.58064C104.681 8.69857 104.512 8.76265 104.338 8.75896H96.2147V11.9688H103.772C103.861 11.9675 103.949 11.9836 104.031 12.016C104.114 12.0484 104.189 12.0965 104.252 12.1576C104.314 12.2176 104.364 12.2895 104.397 12.3689C104.43 12.4482 104.446 12.5334 104.444 12.6191V14.9164C104.447 15.0038 104.431 15.0908 104.398 15.172C104.365 15.2531 104.315 15.3268 104.252 15.3884C104.189 15.4495 104.114 15.4976 104.031 15.53C103.949 15.5624 103.861 15.5785 103.772 15.5772H96.2147V18.8815H104.54C104.629 18.88 104.717 18.8962 104.799 18.9289C104.882 18.9616 104.956 19.0102 105.019 19.0719C105.082 19.1335 105.131 19.2069 105.165 19.2877C105.198 19.3686 105.214 19.4551 105.213 19.5423V22.0284C105.216 22.1128 105.201 22.1969 105.168 22.2749C105.135 22.3528 105.084 22.4226 105.021 22.4794C104.957 22.5401 104.882 22.5873 104.8 22.6179C104.717 22.6486 104.629 22.6622 104.54 22.6577H92.212C92.0528 22.6446 91.9043 22.5736 91.7957 22.4584Z"
    fill="#E93D45"></path>
  <path
    d="M109.44 22.4584C109.379 22.4016 109.331 22.3332 109.298 22.2575C109.265 22.1818 109.248 22.1002 109.248 22.0178V5.63302C109.243 5.45847 109.308 5.28915 109.429 5.16098C109.487 5.0984 109.558 5.04905 109.637 5.01643C109.717 4.9838 109.802 4.96869 109.888 4.97217H122.014C122.102 4.97075 122.19 4.98688 122.273 5.01958C122.355 5.05229 122.43 5.10092 122.492 5.16257C122.555 5.22422 122.605 5.29763 122.638 5.37845C122.671 5.45927 122.688 5.54584 122.686 5.63302V8.12955C122.69 8.21397 122.674 8.29813 122.641 8.37607C122.608 8.45401 122.558 8.52383 122.494 8.5806C122.364 8.69916 122.191 8.76313 122.014 8.75893H113.901V11.9688H121.459C121.546 11.9673 121.633 11.9832 121.714 12.0154C121.794 12.0476 121.868 12.0954 121.93 12.1561C121.991 12.2168 122.04 12.289 122.073 12.3686C122.106 12.4481 122.122 12.5333 122.12 12.6191V14.9163C122.123 15.0037 122.107 15.0907 122.074 15.1719C122.041 15.2531 121.991 15.3268 121.928 15.3884C121.867 15.4496 121.794 15.498 121.713 15.5304C121.632 15.5629 121.546 15.5788 121.459 15.5772H113.901V18.8814H122.227C122.314 18.8798 122.401 18.8957 122.482 18.9282C122.563 18.9606 122.636 19.009 122.697 19.0702C122.76 19.1318 122.81 19.2055 122.843 19.2867C122.876 19.3679 122.891 19.4549 122.889 19.5423V22.0283C122.892 22.1127 122.877 22.1969 122.844 22.2748C122.811 22.3528 122.76 22.4226 122.697 22.4794C122.635 22.5387 122.561 22.5851 122.48 22.6158C122.4 22.6464 122.314 22.6607 122.227 22.6577H109.941C109.848 22.664 109.754 22.6493 109.667 22.6148C109.58 22.5802 109.503 22.5268 109.44 22.4584Z"
    fill="#E93D45"></path>
  <path
    d="M127.126 22.4578C127.066 22.4009 127.017 22.3326 126.984 22.2569C126.951 22.1811 126.934 22.0996 126.934 22.0172V5.63238C126.927 5.45927 126.988 5.29014 127.105 5.16035C127.166 5.09858 127.239 5.0499 127.32 5.0174C127.401 4.98489 127.487 4.96927 127.575 4.97153H134.844C136.713 4.86287 138.563 5.38875 140.085 6.46106C140.724 6.99252 141.227 7.66447 141.554 8.42255C141.88 9.18062 142.02 10.0035 141.963 10.8247C142.022 11.6405 141.881 12.4583 141.55 13.2088C141.219 13.9593 140.709 14.6204 140.063 15.136C138.525 16.168 136.682 16.6697 134.822 16.5626H131.898V22.0277C131.897 22.192 131.832 22.3497 131.716 22.4682C131.655 22.53 131.582 22.5787 131.502 22.6112C131.421 22.6437 131.334 22.6593 131.247 22.6571H127.553C127.39 22.6487 127.236 22.5771 127.126 22.4578ZM134.716 12.9541C135.318 12.9858 135.909 12.7907 136.37 12.4087C136.581 12.1983 136.744 11.9466 136.848 11.67C136.953 11.3935 136.998 11.0983 136.978 10.8038C137.007 10.2222 136.808 9.65201 136.423 9.20934C136.199 8.99553 135.93 8.83153 135.635 8.72839C135.341 8.62525 135.027 8.58537 134.716 8.61144H131.834V12.9541H134.716Z"
    fill="#E93D45"></path>
  <path
    d="M147.503 21.1158C146.782 20.4736 146.209 19.6875 145.823 18.8101C145.436 17.9327 145.245 16.9843 145.261 16.0283C145.261 15.5563 145.261 14.7906 145.261 13.7311C145.261 12.6717 145.261 11.8954 145.261 11.4129C145.246 10.4776 145.439 9.55026 145.829 8.69654C146.218 7.84282 146.793 7.08351 147.514 6.47228C149.181 5.23098 151.242 4.61034 153.331 4.72051C154.794 4.69475 156.246 4.96244 157.6 5.50723C158.692 5.92894 159.655 6.61878 160.397 7.51075C160.995 8.22056 161.35 9.09798 161.411 10.0178C161.414 10.0916 161.401 10.1652 161.374 10.234C161.347 10.3028 161.305 10.3652 161.252 10.4175C161.199 10.4697 161.135 10.5105 161.065 10.5374C160.995 10.5643 160.92 10.5767 160.845 10.5737H156.907C156.769 10.5843 156.632 10.5551 156.512 10.4898C156.404 10.4197 156.31 10.3308 156.234 10.2276C156.022 9.74404 155.683 9.32428 155.252 9.01077C154.682 8.64683 154.009 8.47049 153.331 8.50727C151.346 8.50727 150.321 9.55623 150.257 11.5388C150.257 12.0073 150.257 12.7311 150.257 13.7101C150.257 14.6857 150.257 15.4199 150.257 15.9025C150.321 18.0004 151.324 19.1123 153.384 19.1123C154.239 19.1585 155.081 18.8975 155.754 18.378C156.059 18.0948 156.296 17.7482 156.447 17.3634C156.599 16.9787 156.661 16.5655 156.629 16.1542V15.7346H154.334C154.247 15.7363 154.16 15.7204 154.08 15.6879C153.999 15.6554 153.926 15.6071 153.865 15.5458C153.801 15.4842 153.752 15.4105 153.719 15.3294C153.686 15.2482 153.67 15.1612 153.672 15.0738V13.0808C153.67 12.9933 153.686 12.9064 153.719 12.8252C153.752 12.744 153.801 12.6703 153.865 12.6087C153.926 12.5475 153.999 12.4991 154.08 12.4667C154.16 12.4342 154.247 12.4183 154.334 12.4199H160.867C160.954 12.4183 161.041 12.4342 161.121 12.4667C161.202 12.4991 161.275 12.5475 161.336 12.6087C161.399 12.6703 161.449 12.744 161.482 12.8252C161.515 12.9064 161.531 12.9933 161.528 13.0808V16.0074C161.551 17.3179 161.179 18.6058 160.461 19.7102C159.765 20.7589 158.77 21.5833 157.6 22.0809C156.251 22.644 154.797 22.9227 153.331 22.8991C151.232 23.0227 149.159 22.3885 147.503 21.1158Z"
    fill="#E93D45"></path>
  <path
    d="M165.745 22.4577C165.684 22.4008 165.636 22.3325 165.603 22.2568C165.569 22.181 165.552 22.0995 165.552 22.0171V5.63228C165.548 5.45774 165.613 5.28842 165.734 5.16025C165.794 5.09741 165.867 5.04802 165.948 5.01543C166.029 4.98284 166.116 4.96784 166.204 4.97144H173.27C175.173 4.85634 177.058 5.38985 178.607 6.48194C179.239 7.00052 179.74 7.65575 180.071 8.39639C180.403 9.13703 180.555 9.94299 180.517 10.7512C180.551 11.8138 180.261 12.8621 179.685 13.7618C179.108 14.6208 178.299 15.304 177.347 15.7338L180.816 21.8912C180.866 21.9781 180.895 22.0749 180.902 22.1744C180.897 22.3123 180.84 22.4435 180.741 22.5416C180.693 22.5939 180.634 22.6351 180.567 22.6622C180.501 22.6894 180.429 22.702 180.357 22.6989H176.739C176.51 22.713 176.283 22.6543 176.09 22.5315C175.898 22.4087 175.751 22.2283 175.671 22.0171L172.843 16.5415H170.377V22.0276C170.381 22.112 170.365 22.1962 170.332 22.2741C170.299 22.352 170.249 22.4219 170.185 22.4786C170.122 22.5393 170.046 22.5865 169.964 22.6172C169.881 22.6479 169.793 22.6614 169.705 22.657H166.193C166.108 22.6544 166.025 22.6355 165.948 22.6013C165.872 22.5671 165.802 22.5183 165.745 22.4577ZM173.216 12.7757C173.83 12.8201 174.436 12.624 174.903 12.2303C175.1 12.0338 175.254 11.7988 175.353 11.5404C175.452 11.282 175.495 11.006 175.479 10.7302C175.494 10.4483 175.45 10.1665 175.351 9.90151C175.252 9.63656 175.1 9.39397 174.903 9.18827C174.677 8.98419 174.41 8.82774 174.12 8.72852C173.83 8.62931 173.523 8.58943 173.216 8.61134H170.366V12.8072L173.216 12.7757Z"
    fill="#E93D45"></path>
  <path
    d="M183.901 22.4904C183.802 22.3923 183.745 22.2611 183.741 22.1232C183.727 22.0469 183.727 21.9688 183.741 21.8925L189.729 5.70695C189.787 5.47863 189.927 5.27857 190.123 5.14363C190.319 5.0087 190.558 4.94798 190.796 4.97267H194.81C195.048 4.94798 195.287 5.0087 195.483 5.14363C195.679 5.27857 195.819 5.47863 195.877 5.70695L201.865 21.8925C201.879 21.9687 201.879 22.0469 201.865 22.1232C201.857 22.2623 201.796 22.3933 201.694 22.4904C201.596 22.5892 201.462 22.6457 201.321 22.6477H197.98C197.793 22.6595 197.606 22.6118 197.449 22.5117C197.291 22.4116 197.171 22.2644 197.105 22.0918L196.176 19.6477H189.451L188.523 22.0918C188.457 22.2644 188.336 22.4116 188.179 22.5117C188.021 22.6118 187.835 22.6595 187.648 22.6477H184.307C184.231 22.651 184.157 22.6387 184.087 22.6116C184.017 22.5845 183.953 22.5432 183.901 22.4904ZM190.497 15.8609H195.066L192.782 9.44126L190.497 15.8609Z"
    fill="#E93D45"></path>
  <path
    d="M205.334 22.4694C205.27 22.4127 205.22 22.3429 205.187 22.2649C205.154 22.187 205.138 22.1028 205.142 22.0184V5.63358C205.141 5.5464 205.157 5.45983 205.19 5.37901C205.224 5.2982 205.273 5.22478 205.336 5.16313C205.399 5.10148 205.473 5.05286 205.555 5.02015C205.638 4.98744 205.726 4.97131 205.815 4.97273H208.718C208.911 4.9638 209.103 5.01197 209.269 5.11104C209.434 5.21011 209.566 5.35556 209.646 5.52868L214.065 13.3015L218.506 5.52868C218.586 5.35556 218.718 5.21011 218.884 5.11104C219.049 5.01197 219.241 4.9638 219.434 4.97273H222.338C222.425 4.97047 222.512 4.98609 222.593 5.01859C222.674 5.0511 222.747 5.09978 222.807 5.16154C222.871 5.22315 222.92 5.29682 222.953 5.378C222.986 5.45919 223.002 5.54617 223 5.63358V22.0289C223.003 22.1133 222.988 22.1975 222.954 22.2754C222.921 22.3533 222.871 22.4232 222.807 22.4799C222.746 22.5403 222.673 22.5874 222.592 22.6181C222.511 22.6489 222.424 22.6625 222.338 22.6583H219.072C218.903 22.653 218.744 22.585 218.625 22.4681C218.506 22.3512 218.436 22.1941 218.431 22.0289V12.8295L215.613 17.833C215.53 18.0003 215.403 18.1429 215.246 18.2461C215.088 18.3493 214.906 18.4095 214.717 18.4204H213.329C213.138 18.4113 212.953 18.352 212.794 18.2487C212.634 18.1453 212.506 18.0018 212.422 17.833L209.678 12.84V22.0289C209.682 22.1133 209.667 22.1975 209.633 22.2754C209.6 22.3533 209.55 22.4232 209.486 22.4799C209.423 22.5406 209.348 22.5878 209.265 22.6185C209.182 22.6492 209.094 22.6627 209.006 22.6583H205.804C205.717 22.6599 205.63 22.644 205.549 22.6115C205.468 22.579 205.395 22.5307 205.334 22.4694Z"
    fill="#E93D45"></path>
</svg>