<svg width="816" height="611" viewBox="0 0 816 611" fill="none" xmlns="http://www.w3.org/2000/svg">
<path fill-rule="evenodd" clip-rule="evenodd" d="M408.001 494.904C402.185 494.904 397.617 490.237 397.617 484.616V126.038C397.617 56.7971 341.631 0.761597 272.536 0.329895V0.327332C272.399 0.327332 272.262 0.327576 272.125 0.328003C271.994 0.327576 271.863 0.327393 271.732 0.327393V0.329834C202.638 0.761536 146.652 56.7971 146.652 126.038V384.074C146.652 389.695 142.084 394.361 136.268 394.361C130.452 394.361 125.885 389.695 125.885 384.074V246.569C125.885 177.059 69.4636 120.858 0 120.858V236.281C5.816 236.281 10.3834 240.948 10.3834 246.569V384.074C10.3834 453.583 66.8046 509.785 136.268 509.785C205.732 509.785 262.153 453.583 262.153 384.074V126.038C262.153 120.548 266.511 115.968 272.133 115.758C277.757 115.967 282.116 120.547 282.116 126.038V484.616C282.116 554.126 338.537 610.327 408.001 610.327C477.464 610.327 533.886 554.126 533.886 484.616V196.448C533.886 190.827 538.453 186.161 544.269 186.161V186.09C549.695 186.498 553.846 190.989 553.846 196.348V353.941C553.846 423.451 610.268 479.652 679.731 479.652C749.195 479.652 805.616 423.451 805.616 353.941V246.569C805.616 240.948 810.183 236.281 815.999 236.281V120.858C746.536 120.858 690.114 177.059 690.114 246.569V353.941C690.114 359.563 685.547 364.229 679.731 364.229C673.915 364.229 669.348 359.562 669.348 353.941V196.348C669.348 126.838 612.927 70.6369 543.463 70.6369V70.7397C474.369 71.1725 418.384 127.208 418.384 196.448V484.616C418.384 490.237 413.817 494.904 408.001 494.904Z" fill="#1E2C3C"/>
</svg>
