
<svg width="685" height="685" viewBox="0 0 685 685" fill="none" xmlns="http://www.w3.org/2000/svg">
<path d="M676.795 416.55C677.806 411.962 678.704 407.33 679.517 402.671L481.295 356.543L684.647 349.974C684.689 347.609 684.832 345.272 684.832 342.906C684.832 340.541 684.704 338.189 684.647 335.838L481.295 329.269L679.517 283.142C678.69 278.482 677.806 273.851 676.795 269.262L475.98 302.507L661.433 218.589C659.709 214.186 657.927 209.825 656.032 205.522L465.548 277.314L631.023 158.853C628.472 154.877 625.864 150.959 623.157 147.097L450.386 254.642L589.54 106.199C586.277 102.794 582.942 99.4593 579.536 96.196L431.091 235.347L538.638 62.5802C534.776 59.8727 530.857 57.265 526.882 54.7142L408.419 220.185L480.212 29.7055C475.908 27.8102 471.548 26.029 467.144 24.3047L383.224 209.754L416.47 8.94325C411.882 7.9315 407.25 7.048 402.591 6.2215L356.462 204.439L349.907 1.0915C347.542 1.04875 345.205 0.90625 342.839 0.90625C340.474 0.90625 338.122 1.0345 335.771 1.0915L329.202 204.439L283.073 6.2215C278.414 7.048 273.782 7.9315 269.194 8.94325L302.44 209.754L218.52 24.3047C214.116 26.029 209.756 27.8102 205.452 29.7055L277.245 220.185L158.782 54.7142C154.806 57.265 150.888 59.8727 147.026 62.5802L254.573 235.347L106.127 96.196C102.722 99.4593 99.3871 102.794 96.1237 106.199L235.278 254.642L62.5073 147.097C59.7998 150.959 57.192 154.877 54.6412 158.853L220.116 277.314L29.6318 205.522C27.7365 209.825 25.9554 214.186 24.2311 218.589L209.684 302.507L8.86922 269.262C7.85745 273.851 6.97388 278.482 6.14736 283.142L204.369 329.269L1.01729 335.838C0.974541 338.204 0.832031 340.541 0.832031 342.906C0.832031 345.272 0.960291 347.623 1.01729 349.974L204.369 356.543L6.14736 402.671C6.97388 407.33 7.85745 411.962 8.86922 416.55L209.684 383.305L24.2311 467.223C25.9554 471.626 27.7365 475.987 29.6318 480.29L220.116 408.499L54.6412 526.959C57.192 530.935 59.7998 534.854 62.5073 538.716L235.278 431.171L96.1237 579.613C99.3871 583.019 102.722 586.353 106.127 589.617L254.573 450.465L147.026 623.232C150.888 625.94 154.806 628.547 158.782 631.098L277.245 465.627L205.452 656.107C209.756 658.002 214.116 659.783 218.52 661.508L302.44 476.058L269.194 676.869C273.782 677.881 278.414 678.764 283.073 679.591L329.202 481.374L335.771 684.721C338.137 684.764 340.474 684.906 342.839 684.906C345.205 684.906 347.556 684.778 349.907 684.721L356.477 481.374L402.605 679.591C407.265 678.764 411.896 677.881 416.485 676.869L383.239 476.058L467.159 661.508C471.562 659.783 475.923 658.002 480.226 656.107L408.433 465.627L526.896 631.098C530.872 628.562 534.791 625.94 538.652 623.232L431.105 450.465L579.551 589.617C582.957 586.353 586.291 583.019 589.554 579.613L450.4 431.171L623.171 538.716C625.879 534.854 628.486 530.935 631.037 526.959L465.563 408.499L656.046 480.29C657.941 475.987 659.723 471.626 661.447 467.223L475.994 383.305L676.809 416.55H676.795Z" fill="#4F6278"/>
</svg>
