<svg width="288" height="289" viewBox="0 0 288 289" fill="none" xmlns="http://www.w3.org/2000/svg">
  <path fill-rule="evenodd" clip-rule="evenodd"
    d="M163.226 1.82275C158.004 1.88471 153.013 3.9866 149.321 7.6792L5.85656 151.143C-1.95392 158.954 -1.95392 171.617 5.85656 179.428L109.026 282.597C116.836 290.407 129.5 290.407 137.31 282.597L280.733 139.174C284.45 135.457 286.554 130.426 286.59 125.169L287.304 20.7257C287.381 9.53392 278.259 0.457581 267.067 0.590395L163.226 1.82275ZM210.227 77.8978C218.582 86.2537 232.13 86.2536 240.486 77.8978C248.841 69.542 248.841 55.9945 240.486 47.6387C232.13 39.2829 218.582 39.2829 210.227 47.6387C201.871 55.9945 201.871 69.542 210.227 77.8978Z"
    fill="url(#paint0_linear_2508_20037)" />
  <defs>
    <linearGradient id="paint0_linear_2508_20037" x1="49.538" y1="223.109" x2="273.824" y2="-1.17641"
      gradientUnits="userSpaceOnUse">
      <stop offset="0.203125" stop-color="#38EDAC" />
      <stop offset="0.496524" stop-color="#9EA9FF" />
      <stop offset="0.817708" stop-color="#FE5C5C" />
    </linearGradient>
  </defs>
</svg>