<svg width="79" height="80" viewBox="0 0 90 90" fill="none" xmlns="http://www.w3.org/2000/svg">
  <path d="M38.6943 0.519791C38.4981 0.540451 37.8679 0.612762 37.2998 0.664413C29.2215 1.51149 21.2673 4.93079 14.7799 10.3645C13.5816 11.3562 10.8545 14.0833 9.86276 15.2816C4.49105 21.6967 1.35067 28.8968 0.193691 37.4193C-0.0645637 39.3097 -0.0645637 45.6937 0.193691 47.5842C1.35067 56.1066 4.49105 63.3067 9.86276 69.7218C10.8545 70.9201 13.5816 73.6473 14.7799 74.639C21.195 80.0107 28.3951 83.151 36.9175 84.308C38.808 84.5663 45.192 84.5663 47.0825 84.308C55.6049 83.151 62.805 80.0107 69.2201 74.639C70.4184 73.6473 73.1455 70.9201 74.1372 69.7218C79.5089 63.3067 82.6493 56.1066 83.8063 47.5842C84.0646 45.6937 84.0646 39.3097 83.8063 37.4193C82.6493 28.8968 79.5089 21.6967 74.1372 15.2816C73.1455 14.0833 70.4184 11.3562 69.2201 10.3645C62.8257 5.01343 55.5532 1.83173 47.1444 0.705734C46.2354 0.581772 44.9131 0.530121 42.4649 0.50946C40.5951 0.4888 38.8906 0.49913 38.6943 0.519791ZM39.2108 4.98244C39.2108 6.19107 39.2935 8.81494 39.4071 11.3045C39.4691 12.5235 39.5414 14.2693 39.5724 15.1783C39.686 18.4014 40.0269 26.8618 40.0786 27.6159L40.1302 28.37L39.6654 28.3184C39.4071 28.2977 39.1695 28.2357 39.1282 28.2047C39.0972 28.1634 39.0249 27.4506 38.9836 26.6139C38.7976 22.9363 38.1882 8.67032 38.1262 6.58362L38.0642 4.29031L38.3534 4.24899C38.5084 4.22833 38.7666 4.19734 38.9319 4.18701L39.2108 4.17668V4.98244ZM49.0968 4.73451C49.1072 4.74484 49.1382 7.86456 49.1692 11.6661C49.2105 15.4779 49.2621 18.8972 49.2931 19.2691C49.3241 19.6513 49.3138 19.9819 49.2621 20.0025C49.2208 20.0335 48.9626 20.0335 48.7043 20.0025L48.2291 19.9612L48.1568 16.9551C48.1155 15.292 48.0638 13.4532 48.0432 12.854C47.9605 11.0256 47.8882 4.81715 47.9502 4.6622C47.9915 4.54857 48.1051 4.53824 48.539 4.61055C48.8386 4.67253 49.0865 4.72418 49.0968 4.73451ZM25.2031 8.19513C25.2651 8.2881 25.7506 13.98 26.3498 21.4281C26.546 23.959 26.7423 26.273 26.7733 26.5622C26.8249 27.0891 26.8146 27.1097 26.484 27.3163C26.2981 27.43 26.1122 27.5229 26.0708 27.5229C26.0398 27.5229 25.9779 27.2543 25.9469 26.9238C25.8022 25.5809 25.2444 19.0935 24.8519 14.4036C24.6246 11.6454 24.418 9.1765 24.387 8.90791C24.3354 8.45338 24.3457 8.41206 24.6143 8.26744C24.9448 8.09183 25.1308 8.06084 25.2031 8.19513ZM53.6421 10.2715C53.9314 10.3748 53.9624 10.4265 54.0243 11.0153C54.1277 12.0483 54.0967 16.9861 53.983 16.9861C53.6835 16.9861 53.0636 16.6349 53.012 16.4386C52.981 16.3147 52.95 14.8478 52.95 13.1846C52.95 9.8273 52.9087 10.0236 53.6421 10.2715ZM34.5623 10.757C34.5623 11.0359 34.6346 12.5751 34.7172 14.197C34.7999 15.8188 34.8928 17.8745 34.9341 18.7629C35.0065 20.5604 35.0271 20.4984 34.335 20.5397C33.9941 20.55 33.9941 20.55 33.9734 20.0335C33.9528 19.7443 33.9011 18.8456 33.8391 18.0191C33.7875 17.1927 33.6635 15.4056 33.5809 14.042C33.4982 12.6784 33.3949 11.3252 33.364 11.0359C33.302 10.5194 33.3123 10.4988 33.5912 10.3955C33.7565 10.3335 34.0457 10.2818 34.2317 10.2818C34.5623 10.2715 34.5623 10.2715 34.5623 10.757ZM63.2182 12.1723L63.5695 12.3169L63.6418 13.7011C63.6728 14.4552 63.6934 16.0874 63.6728 17.3167L63.6418 19.5687L63.2079 19.3517L62.774 19.1451L62.743 15.7155C62.7224 13.8251 62.7327 12.2239 62.7534 12.1516C62.7947 11.9966 62.7947 11.9966 63.2182 12.1723ZM44.3553 13.5255C44.4173 13.5875 44.5619 18.5976 44.5722 21.1389L44.5826 22.6677L44.097 22.5954C43.8181 22.5644 43.5909 22.5334 43.5805 22.5231C43.5495 22.5025 43.2396 14.8478 43.2396 14.104V13.3396L43.7665 13.4016C44.066 13.4429 44.3243 13.4945 44.3553 13.5255ZM68.1457 14.259C68.2697 14.4036 68.2904 16.6659 68.3213 29.1448C68.3523 43.4728 68.3523 43.8446 68.1664 43.8446C68.0528 43.8446 67.8978 43.7827 67.8048 43.7103C67.6499 43.5967 67.6292 42.3468 67.5776 30.1055C67.5362 22.6884 67.4846 15.9531 67.4536 15.137L67.3916 13.6495L67.6912 13.8664C67.8668 13.9904 68.0631 14.166 68.1457 14.259ZM58.8795 16.3766C58.9312 16.418 58.9828 17.0068 58.9932 17.6783C59.0448 19.9612 59.0552 33.9586 59.0035 34C58.9828 34.0206 58.7969 33.969 58.5903 33.8863L58.2184 33.7314V24.9404V16.1597L58.5077 16.2217C58.6626 16.263 58.8279 16.325 58.8795 16.3766ZM30.3682 16.9551C30.3992 17.2341 30.4508 17.8642 30.4818 18.3807C30.5128 18.8869 30.5851 20.0439 30.6471 20.9426C30.7711 22.7607 30.7504 22.8743 30.1616 22.8743C29.8517 22.8743 29.8104 22.8433 29.769 22.5334C29.6657 21.924 29.3042 16.8415 29.3558 16.7589C29.4075 16.6866 29.9447 16.5006 30.1926 16.4799C30.2546 16.4696 30.3372 16.6866 30.3682 16.9551ZM13.2821 19.5893C13.3957 20.6843 13.6229 22.9776 13.7882 24.6821C13.9638 26.3866 14.1085 27.8328 14.1085 27.8948C14.1085 28.0188 13.313 28.4113 13.2304 28.3287C13.1787 28.277 12.1457 19.1348 12.1457 18.7216C12.1457 18.4737 12.9412 17.4303 13.0445 17.544C13.0754 17.5646 13.1787 18.484 13.2821 19.5893ZM53.7868 20.674L54.0863 20.8496L54.0967 23.0809C54.107 24.2999 54.1277 25.6635 54.1277 26.1077C54.1483 27.0374 54.0347 27.1924 53.4768 26.9961L53.1566 26.8825V25.9941C53.1566 25.4982 53.1256 24.0623 53.0843 22.7917L53.0223 20.4984H53.2599C53.3839 20.4984 53.6215 20.581 53.7868 20.674ZM17.817 24.6821C18.003 26.6655 18.3025 30.0125 18.4988 32.1199L18.85 35.942L18.4471 36.3449L18.0546 36.7478L17.9823 35.9317C17.941 35.4772 17.7344 33.3698 17.5174 31.2418C17.3005 29.1138 16.9906 26.0251 16.8356 24.3825L16.5464 21.4075L16.9493 21.0356C17.3108 20.6947 17.3521 20.6843 17.4245 20.8703C17.4658 20.9736 17.6414 22.6884 17.817 24.6821ZM10.0797 25.9321C10.307 27.9671 10.9061 33.3801 11.4226 37.9564C11.9391 42.5327 12.4246 46.9437 12.5176 47.7701C12.6003 48.5965 12.7449 49.8465 12.8275 50.5593C12.9721 51.7679 12.9721 51.8505 12.8069 51.9745C12.5589 52.1604 12.4556 52.1398 12.4556 51.9229C12.4556 51.8299 12.3627 51.0448 12.249 50.1977C12.0631 48.7825 11.7532 46.3859 11.0611 41.0038C10.9164 39.9192 10.6375 37.7602 10.4412 36.2003C10.2346 34.6404 9.93507 32.3161 9.76978 31.0352C9.6045 29.7542 9.32559 27.5642 9.14997 26.149C8.96403 24.7441 8.8504 23.4942 8.88139 23.3599C8.9537 23.0809 9.56318 22.1099 9.62516 22.1719C9.64582 22.2029 9.85243 23.8867 10.0797 25.9321ZM6.91865 30.3844C7.0736 31.624 7.36285 33.8863 7.55912 35.4255C7.7554 36.9544 8.00332 38.8655 8.11695 39.6609L8.31323 41.1071L8.09629 41.2931C7.97233 41.3964 7.84837 41.4377 7.80705 41.3964C7.76573 41.3551 7.68308 40.9419 7.6211 40.4873C7.55912 40.0328 7.1769 37.3779 6.7637 34.5991L6.03025 29.5373L6.26785 28.8349C6.39181 28.4526 6.5261 28.1427 6.55709 28.1427C6.59841 28.1427 6.75337 29.1551 6.91865 30.3844ZM63.6314 29.0311C63.7761 29.1758 63.7967 29.8162 63.7967 34.5578V39.9192H63.5075C62.8773 39.9192 62.8877 40.0741 62.8463 34.2066L62.8153 28.8659H63.1459C63.3215 28.8659 63.5488 28.9382 63.6314 29.0311ZM41.0186 30.8802C43.3533 31.2315 45.3883 31.8823 47.4027 32.9153C48.7043 33.5868 49.3241 34.0516 50.7703 35.4359C52.919 37.4916 54.2413 39.289 55.4809 41.8302C57.2887 45.5285 57.9911 48.8031 58.8795 57.5838C59.2824 61.5196 59.8093 68.6578 59.9229 71.5812C59.9539 72.4283 60.0262 73.8229 60.0882 74.6803C60.2018 76.4984 60.3361 76.2505 58.7349 77.0252C56.5139 78.0996 54.3756 78.8433 51.5554 79.5355C48.1051 80.3825 45.8738 80.6511 42.4649 80.6615L39.9856 80.6718L40.0063 79.4838C40.0063 78.833 40.0683 77.3145 40.1302 76.1265C40.4401 70.3726 40.3782 63.1105 39.9753 59.0817C39.748 56.7677 39.3038 53.9579 39.0559 53.3381C39.0042 53.2038 39.2418 53.0902 40.2645 52.7389C42.1343 52.0881 43.7561 51.272 44.0041 50.8692C44.4483 50.1047 43.6528 49.0097 42.6405 49.0097C42.4649 49.0097 41.938 49.1957 41.4525 49.4126C39.1385 50.4766 34.5003 51.7266 31.8248 52.0055C29.9757 52.2018 27.1039 52.0881 25.1101 51.7266C24.0255 51.5303 22.0834 50.7969 20.4615 49.9601C18.5918 48.9891 17.4451 47.6978 17.1042 46.1689C16.9183 45.3425 16.9699 43.6897 17.2075 42.76C17.4658 41.7373 18.1889 40.2497 18.85 39.382C21.7941 35.5082 27.8683 32.1509 34.0974 30.9732C36.0808 30.6013 38.8906 30.56 41.0186 30.8802ZM72.8873 31.2005C73.2592 31.3554 73.3005 31.3968 73.3005 31.748C73.3212 34.5681 73.2592 41.0142 73.2075 41.2827C73.1972 41.3757 72.66 41.3861 72.4328 41.3034C72.2881 41.2518 72.2675 40.6939 72.2675 36.1383C72.2675 32.874 72.3088 31.0352 72.3708 31.0352C72.4224 31.0352 72.66 31.1075 72.8873 31.2005ZM77.4016 36.8718L77.7735 37.0267L77.7012 45.5801C77.6185 56.4785 77.6082 56.7987 77.2156 57.7388C76.5752 59.278 76.6062 59.5879 76.6681 52.8319C76.6888 49.4539 76.7405 46.0346 76.7611 45.2392C76.7818 44.4438 76.8024 42.2021 76.8128 40.2497C76.8128 37.8944 76.8438 36.7168 76.9161 36.7168C76.9781 36.7168 77.195 36.7891 77.4016 36.8718ZM15.2758 39.444C15.3378 40.2807 15.3171 40.3634 15.0175 41.0245L14.687 41.7269L14.563 40.6939C14.3667 39.0411 14.3667 38.9688 14.7593 38.7209C14.9349 38.5969 15.1208 38.5143 15.1518 38.5349C15.1828 38.5556 15.2448 38.9688 15.2758 39.444ZM8.89172 45.6731C8.98469 46.5202 9.7078 52.1398 10.0797 54.8979C10.6375 59.1643 10.6788 59.7738 10.4309 59.5155C10.3999 59.4846 10.1623 58.0487 9.91441 56.3235C8.3029 45.1876 8.31323 45.2599 8.44752 45.1772C8.72643 44.9913 8.81941 45.0946 8.89172 45.6731ZM16.3295 50.4043C16.3914 50.6626 16.691 53.4621 16.691 53.8029C16.691 54.0922 16.3191 54.3608 16.1538 54.1955C16.1022 54.1438 15.9679 53.2658 15.8646 52.2534C15.751 51.2307 15.6373 50.1667 15.6063 49.8878L15.5444 49.3713L15.9059 49.7845C16.1125 50.0118 16.2985 50.2907 16.3295 50.4043ZM24.6659 54.2988C24.7796 54.4021 24.8519 54.8153 24.9448 55.931C25.0998 57.9454 25.1205 57.7904 24.6969 57.7904C24.2631 57.7904 24.2734 57.8214 24.1288 56.0033C23.9841 54.1542 23.9841 54.1748 24.2631 54.1748C24.3973 54.1748 24.573 54.2368 24.6659 54.2988ZM32.8474 54.4538C32.8681 54.5571 32.9198 55.1769 32.9611 55.8277C32.9921 56.4785 33.085 57.9454 33.1677 59.0817C33.4569 63.2551 33.4673 63.7819 33.2916 63.7819C33.0954 63.7819 33.0747 63.627 32.8474 60.6829C32.7648 59.4639 32.6099 57.5425 32.5065 56.4165C32.4136 55.2905 32.3516 54.3504 32.3826 54.3298C32.4962 54.2058 32.7958 54.2988 32.8474 54.4538ZM13.4267 56.4371C13.4887 56.5301 13.8812 59.8358 14.3667 64.3501C14.5113 65.7137 14.656 67.0256 14.687 67.2735L14.7386 67.7177L14.4804 67.5524C14.2841 67.4181 14.2118 67.2839 14.2118 67.0463C14.2118 66.3955 13.7676 62.1084 13.4267 59.4846C13.2304 57.997 13.0754 56.6851 13.0754 56.5611C13.0754 56.3442 13.3234 56.2615 13.4267 56.4371ZM73.0422 60.7552L72.9699 65.0732L72.7117 65.4554C72.1229 66.3231 72.1538 66.4884 72.1848 61.6539L72.2055 57.2222L72.5877 56.8297C72.7943 56.6231 73.0009 56.4475 73.0422 56.4475C73.0732 56.4475 73.0732 58.3896 73.0422 60.7552ZM63.4868 67.6041C63.5385 73.6059 63.5281 74.0708 63.3629 74.2567C63.2595 74.3704 63.1666 74.4427 63.1356 74.4117C63.0633 74.329 62.96 61.2407 63.0426 61.1684C63.0839 61.1271 63.1872 61.1064 63.2802 61.1167C63.4145 61.1477 63.4455 61.8812 63.4868 67.6041ZM29.7484 63.4927C29.8207 64.1331 30.079 67.2012 30.1823 68.6474C30.2442 69.6185 30.2442 69.6495 30.017 69.7218C29.893 69.7631 29.7484 69.7528 29.7071 69.7011C29.6348 69.6288 29.4075 67.3355 29.1286 63.8026L29.0563 62.9555H29.3765C29.6761 62.9555 29.6967 62.9762 29.7484 63.4927ZM21.6289 67.1082C21.7012 67.1806 21.7528 67.4388 21.7528 67.6971C21.7528 67.9656 21.8768 69.3602 22.0111 70.8065C22.4036 74.7629 22.4346 75.3001 22.259 75.1968C21.9904 75.0418 21.7528 74.8042 21.8045 74.7423C21.8251 74.7009 21.7838 74.1844 21.7012 73.5956C21.6289 72.9965 21.5359 72.0254 21.4946 71.4263C21.4532 70.8271 21.3603 69.7321 21.2776 68.9987C21.0814 67.1909 21.0917 66.9843 21.3189 66.9843C21.4222 66.9843 21.5565 67.0359 21.6289 67.1082ZM26.515 74.0605C26.546 74.2877 26.608 75.1348 26.6493 75.9406C26.7216 77.4901 26.6906 77.6037 26.2671 77.2835C26.1431 77.1905 26.0605 76.798 25.9365 75.6203C25.7196 73.4923 25.7093 73.5749 26.1122 73.6163C26.4117 73.6473 26.4531 73.6886 26.515 74.0605Z" fill="black"/>
  <path d="M22.8259 35.8285C21.7516 36.2933 21.6689 37.7499 22.6813 38.2664C23.4147 38.6383 24.1585 38.4627 24.5407 37.8222C25.2638 36.6446 24.0862 35.281 22.8259 35.8285Z" fill="black"/>
  <path d="M29.8297 36.82C28.838 37.4295 28.838 38.8964 29.8297 39.5058C30.8111 40.0947 32.0817 39.3199 32.0817 38.1423C32.0817 37.0059 30.7801 36.2415 29.8297 36.82Z" fill="black"/>
</svg>