<svg width="155" height="39" viewBox="0 0 155 39" fill="none" xmlns="http://www.w3.org/2000/svg">
<g clip-path="url(#clip0_2864_20926)">
<path d="M80.0939 19.4373H70.0625V37.9443H80.0939V19.4373Z" fill="#FB3640"/>
<path d="M42.875 19.4367C42.875 21.123 42.875 22.458 42.875 23.4557C43.2334 33.105 48.7514 37.9297 59.4289 37.9297H74.9924V30.0041H59.7543C58.8642 30.0773 57.9683 29.9747 57.1184 29.7021C56.2684 29.4296 55.4813 28.9925 54.8023 28.4162C53.6272 27.0177 53.0216 25.2332 53.1045 23.4135C53.0337 22.3877 52.9913 21.0668 52.9913 19.4508C52.9913 17.8347 52.9913 16.5279 53.1045 15.5442C53.0597 14.6306 53.1993 13.7174 53.5152 12.8583C53.8311 11.9991 54.3168 11.2114 54.9438 10.5415C56.3598 9.3653 58.1826 8.78536 60.0231 8.92551H75.0773V0.929688H59.7543C54.5052 0.929688 50.4162 2.1663 47.5158 4.65358C46.0201 6.00511 44.8362 7.66164 44.045 9.50979C43.2538 11.3579 42.874 13.3541 42.9316 15.3615C42.9033 16.3873 42.875 17.7926 42.875 19.4367Z" fill="#FB3640"/>
<path d="M-0.0001297 19.4373H10.0312L10.0313 0.930229H-0.0001297L-0.0001297 19.4373Z" fill="#FB3640"/>
<path d="M37.1677 15.3615C37.012 10.7664 35.4981 7.14085 32.541 4.65358C29.584 2.1663 25.5941 0.929688 20.3449 0.929688H5.00781V8.85525H20.0761C21.9167 8.7151 23.7395 9.29504 25.1555 10.4713C25.7798 11.143 26.2639 11.9309 26.5796 12.7896C26.8953 13.6483 27.0364 14.5607 26.9948 15.4739C27.0655 16.4576 27.108 17.7504 27.108 19.3805C27.108 21.0106 27.108 22.3175 26.9948 23.3433C27.0975 25.1894 26.485 27.0045 25.2828 28.4162C24.6068 28.9928 23.8221 29.4301 22.9744 29.7027C22.1267 29.9753 21.2329 30.0778 20.3449 30.0041H5.00781V37.9297H20.5713C31.2394 37.9297 36.7573 33.105 37.1252 23.4557C37.1252 22.458 37.1252 21.123 37.1252 19.4367C37.1252 17.7504 37.1959 16.3873 37.1677 15.3615Z" fill="#FB3640"/>
</g>
<path d="M99.1569 38.1C105.037 38.1 108.957 34.74 108.957 28.3C108.957 21.86 104.897 18.5 99.0169 18.5H92.2969V38.1H99.1569ZM96.0769 21.86H98.7369C102.517 21.86 105.177 23.4 105.177 28.3C105.177 33.2 102.517 34.74 98.7369 34.74H96.0769V21.86Z" fill="#7F94AD"/>
<path d="M118.245 38.38C122.445 38.38 125.245 35.3 125.245 31.1C125.245 26.9 122.445 23.82 118.245 23.82C114.045 23.82 111.245 26.9 111.245 31.1C111.245 35.3 114.045 38.38 118.245 38.38ZM118.133 35.44C116.173 35.44 114.913 33.844 114.913 31.1C114.913 28.356 116.173 26.76 118.133 26.76H118.357C120.317 26.76 121.577 28.356 121.577 31.1C121.577 33.844 120.317 35.44 118.357 35.44H118.133Z" fill="#7F94AD"/>
<path d="M134.125 38.38C137.765 38.38 140.145 36.7 140.425 33.2H136.785C136.561 34.572 135.749 35.44 134.237 35.44H134.013C131.941 35.44 131.045 33.48 131.045 31.1C131.045 28.72 131.941 26.76 134.013 26.76H134.237C135.749 26.76 136.561 27.628 136.785 29H140.425C140.145 25.5 137.765 23.82 134.125 23.82C130.345 23.82 127.405 26.62 127.405 31.1C127.405 35.58 130.345 38.38 134.125 38.38Z" fill="#7F94AD"/>
<path d="M148.379 38.38C152.159 38.38 154.091 36.448 154.091 34.068C154.091 31.856 152.859 30.568 150.171 29.896L148.295 29.42C147.147 29.14 146.447 28.748 146.447 27.992C146.447 27.012 147.287 26.62 148.267 26.62H148.491C149.751 26.62 150.451 27.376 150.591 28.58H154.231C154.231 25.64 152.131 23.82 148.491 23.82C144.991 23.82 142.863 25.612 142.863 28.132C142.863 30.4 144.263 31.632 147.203 32.36L149.023 32.808C150.031 33.06 150.507 33.48 150.507 34.208C150.507 35.048 149.723 35.58 148.603 35.58H148.379C146.979 35.58 146.027 34.74 146.027 33.48H142.303C142.303 36.56 144.599 38.38 148.379 38.38Z" fill="#7F94AD"/>
<defs>
<clipPath id="clip0_2864_20926">
<rect width="80" height="37" fill="white" transform="translate(0 0.929688)"/>
</clipPath>
</defs>
</svg>
