<svg width="80" height="80" viewBox="0 0 90 90" fill="none" xmlns="http://www.w3.org/2000/svg">
  <g clip-path="url(#clip0_2770_20648)">
    <path d="M84 0H0V84H84V0Z" fill="#512BD4"/>
    <path d="M14.9741 53.6666C14.3802 53.6666 13.8753 53.4688 13.4596 53.0729C13.0438 52.6669 12.8359 52.1848 12.8359 51.6267C12.8359 51.0582 13.0438 50.5712 13.4596 50.1652C13.8753 49.7592 14.3802 49.5562 14.9741 49.5562C15.578 49.5562 16.0878 49.7592 16.5035 50.1652C16.9292 50.5712 17.142 51.0582 17.142 51.6267C17.142 52.1848 16.9292 52.6669 16.5035 53.0729C16.0878 53.4688 15.578 53.6666 14.9741 53.6666Z" fill="white"/>
    <path d="M38.7122 53.3317H34.8515L24.6803 37.2853C24.423 36.8793 24.21 36.458 24.0419 36.0216H23.9527C24.0319 36.4886 24.0715 37.4883 24.0715 39.0208V53.3317H20.6562V31.5H24.7693L34.5991 47.1658C35.0149 47.8155 35.2822 48.2621 35.401 48.5056H35.4603C35.3614 47.9272 35.3119 46.9477 35.3119 45.5672V31.5H38.7122V53.3317Z" fill="white"/>
    <path d="M55.3437 53.3317H43.3906V31.5H54.8686V34.5754H46.9247V40.7564H54.245V43.8165H46.9247V50.2716H55.3437V53.3317Z" fill="white"/>
    <path d="M72.3404 34.5754H66.2227V53.3317H62.6886V34.5754H56.5859V31.5H72.3404V34.5754Z" fill="white"/>
  </g>
  <defs>
    <clipPath id="clip0_2770_20648">
    <rect width="84" height="84" fill="white"/>
    </clipPath>
  </defs>
</svg>