<svg width="80" height="80" viewBox="0 0 90 90" fill="none" xmlns="http://www.w3.org/2000/svg">
        <g clip-path="url(#clip0_2770_20654)">
          <path d="M84 0H0V84H84V0Z" fill="#F7DF1E"/>
          <path d="M34.286 75.7927C31.5319 75.7927 29.2184 75.2605 27.3456 74.1953C25.5095 73.1302 23.9673 71.4963 22.7188 69.293L28.2269 65.2169C28.8879 66.4288 29.6591 67.3284 30.5404 67.916C31.4217 68.5035 32.3214 68.7973 33.2394 68.7973C34.7082 68.7973 35.8099 68.3566 36.5443 67.4753C37.3155 66.5573 37.701 64.9048 37.701 62.5179V39.2183H45.7981V63.1789C45.7981 64.9048 45.5594 66.5389 45.082 68.0812C44.6414 69.6235 43.9437 70.9641 42.9889 72.1022C42.0709 73.2403 40.8774 74.1402 39.4086 74.8012C37.9765 75.4622 36.2689 75.7927 34.286 75.7927Z" fill="black"/>
          <path d="M64.5169 75.7928C62.1668 75.7928 59.8167 75.3707 57.4664 74.5259C55.153 73.6446 53.0783 72.3412 51.2422 70.6151L55.8691 65.0518C57.1543 66.1534 58.5681 67.0531 60.1104 67.7508C61.6894 68.4485 63.2317 68.7974 64.7373 68.7974C66.4265 68.7974 67.675 68.4853 68.4828 67.861C69.3276 67.2367 69.7497 66.3921 69.7497 65.3272C69.7497 64.7764 69.6209 64.299 69.3641 63.8951C69.1438 63.4911 68.795 63.1423 68.3176 62.8485C67.8769 62.518 67.3261 62.2242 66.6651 61.9672C66.0409 61.6734 65.3432 61.3613 64.572 61.0308L59.8901 59.0479C58.972 58.6807 58.0724 58.2033 57.191 57.6157C56.3465 57.0282 55.5753 56.3489 54.8776 55.5777C54.2166 54.7699 53.6842 53.8518 53.2802 52.8236C52.8763 51.7587 52.6743 50.5652 52.6743 49.2433C52.6743 47.7744 52.9865 46.3974 53.6107 45.1121C54.235 43.7902 55.1163 42.6518 56.2546 41.697C57.3931 40.7056 58.7333 39.9344 60.2756 39.3836C61.8547 38.8328 63.5805 38.5574 65.4533 38.5574C67.5464 38.5574 69.603 38.9613 71.6224 39.7692C73.6791 40.577 75.4782 41.7521 77.0205 43.2944L72.8893 48.417C71.714 47.499 70.5394 46.8013 69.3641 46.3239C68.1891 45.8098 66.8855 45.5528 65.4533 45.5528C64.058 45.5528 62.9379 45.8466 62.0933 46.4341C61.2855 46.9849 60.8815 47.7744 60.8815 48.8026C60.8815 49.3534 61.0101 49.8308 61.2671 50.2347C61.5609 50.6019 61.9465 50.9508 62.4238 51.2813C62.9379 51.5751 63.5255 51.8688 64.1864 52.1626C64.8474 52.4196 65.5635 52.7134 66.3346 53.0439L70.9615 54.9167C73.1647 55.798 74.8909 57.0098 76.1392 58.5521C77.4246 60.0944 78.067 62.1325 78.067 64.6662C78.067 66.1718 77.7551 67.604 77.1306 68.9626C76.5433 70.2846 75.662 71.4599 74.4867 72.4879C73.3486 73.4793 71.9343 74.287 70.2454 74.9115C68.5563 75.4988 66.6468 75.7928 64.5169 75.7928Z" fill="black"/>
        </g>
        <defs>
          <clipPath id="clip0_2770_20654">
            <rect width="84" height="84" fill="white"/>
          </clipPath>
        </defs>
      </svg>