<svg fill="none" width="80" height="80" viewBox="0 0 90 90" xmlns="http://www.w3.org/2000/svg">
        <path d="M50.1703 0C50.5374 0.0601613 50.9046 0.120324 51.2671 0.180485C53.3598 0.52757 55.2644 1.32818 56.967 2.59619C59.6931 4.62317 61.4646 7.29803 62.2402 10.6393C62.4696 11.6343 62.5706 12.6385 62.5752 13.6566C62.5798 18.1502 62.5981 22.6438 62.5706 27.1374C62.5431 31.2978 60.9414 34.7547 57.8436 37.4944C56.0584 39.0725 53.9794 40.0952 51.6434 40.5348C50.7761 40.6968 49.8857 40.7847 49.0046 40.7894C44.273 40.8125 39.5414 40.7755 34.8098 40.8125C30.8997 40.8449 27.4532 42.187 24.4976 44.7785C22.2213 46.7777 20.6426 49.2443 19.7477 52.1506C19.2658 53.7055 19.0547 55.3021 19.0501 56.9265C19.0455 58.537 19.0501 60.1474 19.0501 61.7579C19.0501 61.8505 19.0501 61.943 19.0501 62.0448C18.995 62.0541 18.9537 62.0726 18.9078 62.0726C17.0584 62.0726 15.2089 62.0865 13.3594 62.0633C10.9592 62.0356 8.72416 61.3969 6.65896 60.1567C4.79111 59.0321 3.26746 57.5466 2.10177 55.6909C0.76628 53.5621 0.0365791 51.2343 0.0228111 48.7168C-0.00472477 44.0982 -0.0047242 39.4843 0.00904374 34.8658C0.0136331 32.3483 0.669905 30.002 1.97327 27.8501C3.29958 25.6657 5.08942 23.9766 7.34277 22.7873C8.82971 22.0005 10.413 21.5239 12.0789 21.3388C12.6021 21.2832 13.1299 21.2647 13.6577 21.2647C22.8822 21.2601 32.1113 21.2601 41.3358 21.2601C41.4506 21.2601 41.5607 21.2601 41.6846 21.2601C41.6846 20.5659 41.6846 19.8949 41.6846 19.2053C34.9429 19.2053 28.2012 19.2053 21.4549 19.2053C21.4457 19.1313 21.4366 19.0804 21.4366 19.0295C21.4412 17.0257 21.4182 15.0218 21.4595 13.018C21.5008 11.1669 21.9643 9.40368 22.7766 7.73767C24.1121 4.98413 26.1314 2.90163 28.8299 1.49015C30.2664 0.740447 31.7901 0.27304 33.3963 0.0925559C33.5432 0.0740447 33.69 0.0370229 33.8369 0.00925615C39.2798 5.64778e-07 44.7273 0 50.1703 0ZM30.4087 6.00225C28.2609 5.98836 26.471 7.76544 26.4573 9.92662C26.4435 12.1341 28.1966 13.925 30.3903 13.9435C32.5381 13.9667 34.3279 12.1711 34.3417 9.99141C34.3555 7.80246 32.6024 6.02076 30.4087 6.00225Z" fill="#346C99"/>
        <path d="M64.977 21.9266C65.0871 21.9266 65.1651 21.9266 65.2477 21.9266C66.9504 21.9266 68.6576 21.9174 70.3602 21.9312C73.2836 21.9544 75.9546 22.7781 78.3365 24.5043C80.2273 25.8741 81.6775 27.6188 82.6826 29.7291C83.3159 31.0572 83.7381 32.4548 83.885 33.9265C83.9446 34.5235 83.9951 35.1204 83.9951 35.7221C84.0043 40.1231 83.9997 44.5241 83.9997 48.9251C83.9997 51.0678 83.5775 53.1179 82.6367 55.0431C81.6087 57.1487 80.1447 58.8795 78.2493 60.2401C76.6935 61.3554 74.9725 62.0912 73.1092 62.48C72.2052 62.6697 71.2827 62.7345 70.3602 62.7345C61.1174 62.7299 51.8745 62.7299 42.6316 62.7299C42.5352 62.7299 42.4343 62.7299 42.3149 62.7299C42.3149 63.424 42.3149 64.0997 42.3149 64.8031C49.0612 64.8031 55.7983 64.8031 62.5492 64.8031C62.5538 64.8864 62.5584 64.9466 62.5584 65.0067C62.5584 66.918 62.5676 68.8293 62.5492 70.7406C62.5309 72.6565 62.0719 74.4752 61.2596 76.206C60.5758 77.6591 59.6671 78.9503 58.5244 80.0702C56.551 82.0139 54.2104 83.2634 51.489 83.7724C50.6308 83.9344 49.768 83.9992 48.896 83.9992C44.1323 83.9946 39.3686 84.0084 34.6095 83.9899C32.8472 83.9807 31.1583 83.5688 29.5429 82.8561C27.9366 82.1481 26.5231 81.1577 25.3023 79.8943C23.3748 77.8998 22.1403 75.5257 21.6538 72.7814C21.5162 71.9993 21.4565 71.1941 21.4519 70.3981C21.4335 65.849 21.4335 61.2999 21.4473 56.7554C21.4519 53.8491 22.3239 51.2159 24.0173 48.865C25.7567 46.4493 28.0422 44.7786 30.8554 43.8531C32.168 43.4181 33.5172 43.2052 34.8986 43.2052C39.7311 43.2006 44.5637 43.2191 49.3917 43.1913C51.5486 43.1821 53.6092 42.6823 55.5781 41.7891C57.3495 40.9839 58.9237 39.8871 60.2959 38.5034C61.9021 36.8836 63.1137 35.0047 63.926 32.8621C64.3941 31.6265 64.7429 30.3538 64.8393 29.0349C64.9219 27.915 64.9494 26.7904 64.9678 25.6705C64.9907 24.5135 64.9724 23.3566 64.9724 22.1996C64.977 22.1117 64.977 22.033 64.977 21.9266ZM53.6047 77.9877C55.7111 78.0201 57.5147 76.2523 57.5515 74.1189C57.5882 71.879 55.8534 70.0464 53.623 70.0418C51.3742 70.0418 49.7496 71.805 49.667 73.8597C49.5752 76.1643 51.4339 78.0201 53.6047 77.9877Z" fill="#FFCD3A"/>
      </svg>