<svg width="24" height="16" viewBox="0 0 24 16" fill="none" xmlns="http://www.w3.org/2000/svg">
<path d="M8.56576 6.5975L12.0161 1.11718L2.60257 0.00678773C2.34004 -0.0290313 2.11502 0.0784259 2.0025 0.329159L0.0522817 3.9827C-0.0977355 4.34089 0.089786 4.7349 0.427325 4.80654L7.81567 6.84823C8.1157 6.91987 8.41574 6.81241 8.56576 6.5975ZM23.9425 3.9827L21.9923 0.29334C21.8798 0.0784259 21.6548 -0.0290313 21.3922 0.00678773L12.0161 1.11718L15.429 6.5975C15.5791 6.81241 15.8791 6.91987 16.1416 6.84823L23.5675 4.80654C23.9425 4.69909 24.0925 4.30508 23.9425 3.9827ZM15.9541 8.06608C15.3165 8.06608 14.7165 7.74371 14.4164 7.24224L12.0161 3.4096L9.57837 7.20642C9.27834 7.74371 8.67827 8.06608 8.0407 8.06608C7.85317 8.06608 7.70316 8.03026 7.55314 7.99444L2.41505 6.5975V12.9017C2.41505 13.4389 2.75259 13.8688 3.31515 14.012L11.4161 15.9463C11.7911 16.0179 12.2037 16.0179 12.5787 15.9463L20.6796 14.012C21.2047 13.9046 21.6172 13.4389 21.6172 12.9375V6.5975L16.4792 7.99444C16.2916 8.03026 16.1416 8.06608 15.9541 8.06608Z" fill="#D7DFEB"/>
</svg>
