<svg width="24" height="17" viewBox="0 0 24 17" fill="none" xmlns="http://www.w3.org/2000/svg">
<path d="M4.8 3.42857C4.8 2.87629 5.24772 2.42857 5.8 2.42857H18.2C18.7523 2.42857 19.2 2.87629 19.2 3.42857V11.1429C19.2 11.6951 19.6477 12.1429 20.2 12.1429H20.6C21.1523 12.1429 21.6 11.6951 21.6 11.1429V1.82143C21.6 0.834821 20.775 0 19.8 0H4.2C3.1875 0 2.4 0.834821 2.4 1.82143V11.1429C2.4 11.6951 2.84772 12.1429 3.4 12.1429H3.8C4.35229 12.1429 4.8 11.6951 4.8 11.1429V3.42857ZM23.4 13.3571H0.6C0.2625 13.3571 0 13.6607 0 13.9643V14.5714C0 15.9375 1.05 17 2.4 17H21.6C22.9125 17 24 15.9375 24 14.5714V13.9643C24 13.6607 23.7 13.3571 23.4 13.3571ZM13.6875 9.67634C13.8375 9.82813 14.025 9.86607 14.25 9.86607C14.4375 9.86607 14.625 9.82813 14.775 9.67634L16.575 7.85491C16.8375 7.55134 16.8375 7.05804 16.575 6.75446L14.775 4.93304C14.475 4.66741 13.9875 4.66741 13.6875 4.93304C13.425 5.23661 13.425 5.72991 13.6875 6.03348L14.2468 6.58284C14.6417 6.97067 14.6465 7.60551 14.2574 7.9992L13.6875 8.57589C13.425 8.87946 13.425 9.37277 13.6875 9.67634ZM10.275 4.93304C9.975 4.66741 9.4875 4.66741 9.1875 4.93304L7.3875 6.75446C7.125 7.05804 7.125 7.55134 7.3875 7.85491L9.1875 9.67634C9.3375 9.82813 9.525 9.86607 9.75 9.86607C9.9375 9.86607 10.125 9.82813 10.275 9.67634C10.5375 9.37277 10.5375 8.87946 10.275 8.57589L9.70509 7.99919C9.31603 7.60551 9.32077 6.97067 9.71566 6.58284L10.275 6.03348C10.5375 5.72991 10.5375 5.23661 10.275 4.93304Z" fill="#D7DFEB"/>
</svg>
