<svg width="101" height="96" viewBox="0 0 101 96" fill="none" xmlns="http://www.w3.org/2000/svg">
<path d="M50.1387 49.8038C71.5668 49.8038 88.9376 41.4846 88.9376 31.2222C88.9376 20.9599 71.5668 12.6406 50.1387 12.6406C28.7107 12.6406 11.3398 20.9599 11.3398 31.2222C11.3398 41.4846 28.7107 49.8038 50.1387 49.8038Z" stroke="#AAB8CD" stroke-width="2" stroke-miterlimit="10"/>
<path d="M11.3418 31.2227V54.8502C11.3418 65.1122 28.7115 73.4318 50.1407 73.4318C71.5698 73.4318 88.9396 65.1122 88.9396 54.8502V31.2227" stroke="#AAB8CD" stroke-width="2" stroke-miterlimit="10"/>
<path d="M88.8345 44.1914C95.3468 48.1823 99.2286 53.2031 99.2286 58.6593C99.2286 71.6452 77.2501 82.1695 50.1411 82.1695C23.0321 82.1695 1.05078 71.6452 1.05078 58.6593C1.05078 53.2617 4.84937 48.2856 11.2368 44.317" stroke="#AAB8CD" stroke-width="2" stroke-miterlimit="10"/>
<path d="M32.8569 34.4797C31.6721 35.2026 30.2431 35.5654 28.5811 35.5654C27.4101 35.5654 26.4251 35.4007 25.6288 35.0686C24.8352 34.7393 24.2081 34.2844 23.7447 33.7011C23.2869 33.1234 22.9955 32.4396 22.8762 31.6526C22.7569 30.8767 22.7763 30.0395 22.929 29.1464C23.1176 28.2645 23.445 27.4691 23.914 26.7546C24.3774 26.0485 24.9434 25.4429 25.6121 24.935C26.2753 24.4298 27.0161 24.0419 27.8347 23.7656C28.6504 23.4893 29.5106 23.3525 30.4207 23.3525C31.6055 23.3525 32.56 23.5479 33.287 23.9414C34.0195 24.3377 34.5855 24.8457 34.9879 25.4652C35.393 26.0932 35.6455 26.7853 35.7454 27.5416C35.8453 28.3091 35.8369 29.0487 35.7204 29.7576H25.2375C25.1182 30.2767 25.096 30.7707 25.1681 31.2423C25.2403 31.7196 25.4262 32.141 25.7259 32.5122C26.0255 32.8861 26.4445 33.1848 26.98 33.408C27.5156 33.6341 28.1759 33.7457 28.9584 33.7457C29.9629 33.7457 30.8175 33.5448 31.5139 33.1429C32.2076 32.7438 32.7098 32.1438 33.0178 31.3456H35.3208C34.8491 32.7131 34.0278 33.7625 32.8569 34.4769V34.4797ZM33.3147 26.8188C33.1649 26.4281 32.9374 26.0932 32.6349 25.8169C32.3325 25.5406 31.9634 25.3201 31.5278 25.1582C31.0922 24.9964 30.5955 24.9154 30.0406 24.9154C29.4856 24.9154 28.9362 24.9964 28.4479 25.1582C27.9567 25.3201 27.5183 25.5434 27.1354 25.828C26.7497 26.1155 26.4223 26.4476 26.1559 26.8328C25.8868 27.2179 25.6926 27.6309 25.5705 28.0747H33.509C33.5312 27.6337 33.4673 27.2151 33.3175 26.8216L33.3147 26.8188Z" fill="#AAB8CD"/>
<path d="M50.5197 35.2409C50.1063 35.4558 49.5292 35.5647 48.7939 35.5647C48.1723 35.5647 47.6784 35.4112 47.3177 35.107C46.9598 34.8028 46.7878 34.3088 46.8072 33.6278C46.1357 34.3088 45.356 34.8028 44.4681 35.107C43.5774 35.4112 42.6229 35.5647 41.6018 35.5647C40.9414 35.5647 40.3199 35.4977 39.7344 35.3665C39.1517 35.2354 38.6578 35.0288 38.2499 34.7497C37.8448 34.4707 37.5368 34.1106 37.3287 33.6641C37.1206 33.2231 37.0485 32.6929 37.1123 32.0761C37.1817 31.3868 37.3731 30.8286 37.6895 30.3988C38.003 29.9718 38.3915 29.6257 38.8576 29.3606C39.321 29.0982 39.8399 28.8973 40.417 28.7633C40.9914 28.6294 41.5768 28.5177 42.1706 28.4284C42.8033 28.3252 43.3998 28.247 43.9659 28.194C44.5291 28.1438 45.0286 28.0684 45.4587 27.9735C45.8887 27.8786 46.2328 27.7391 46.4853 27.5549C46.7378 27.3707 46.871 27.1056 46.8793 26.7567C46.8904 26.352 46.8072 26.0311 46.6296 25.7855C46.452 25.5427 46.2245 25.3585 45.9415 25.2329C45.6584 25.1045 45.3393 25.0208 44.9842 24.9789C44.629 24.9371 44.2794 24.9147 43.9298 24.9147C42.9919 24.9147 42.2011 25.0599 41.5546 25.3501C40.9053 25.6404 40.5197 26.1957 40.4031 27.019H38.1501C38.2527 26.3241 38.483 25.7436 38.841 25.2775C39.1989 24.8115 39.6456 24.4375 40.1895 24.1528C40.7305 23.8682 41.3354 23.6644 42.0041 23.5416C42.6728 23.4188 43.3859 23.3574 44.1407 23.3574C44.74 23.3574 45.3366 23.3909 45.9248 23.4607C46.5158 23.5305 47.0486 23.67 47.5258 23.8849C48.0031 24.0998 48.3888 24.4012 48.6773 24.7919C48.9687 25.1854 49.1102 25.7018 49.1046 26.3437L49.0491 32.3468C49.0436 32.8213 49.0741 33.1729 49.1379 33.3962C49.2018 33.6222 49.4182 33.7339 49.79 33.7339C49.9953 33.7339 50.2367 33.7004 50.517 33.6362V35.2493L50.5197 35.2409ZM46.7961 28.9866C46.5047 29.1652 46.1218 29.2964 45.6501 29.3801C45.1784 29.4638 44.6845 29.5308 44.1684 29.5838C43.6523 29.6369 43.1307 29.6983 42.6007 29.7653C42.0735 29.8322 41.5963 29.9439 41.1689 30.0946C40.7416 30.2453 40.3837 30.463 40.1007 30.7476C39.8149 31.0323 39.6512 31.423 39.6096 31.9198C39.5818 32.2491 39.6373 32.5282 39.776 32.7571C39.9148 32.9859 40.1035 33.1729 40.3449 33.318C40.5835 33.4632 40.8693 33.5664 41.1995 33.6306C41.5297 33.6948 41.8821 33.7255 42.2539 33.7255C43.0363 33.7255 43.7106 33.6334 44.2766 33.4492C44.8427 33.265 45.3033 33.0362 45.6668 32.7571C46.0275 32.4808 46.2939 32.1821 46.4687 31.8612C46.6435 31.543 46.7323 31.2444 46.7406 30.9653L46.7933 28.9866H46.7961Z" fill="#AAB8CD"/>
<path d="M54.5002 32.4896C54.7332 32.7994 55.0329 33.0449 55.3992 33.2291C55.7682 33.4133 56.1816 33.5473 56.6422 33.6254C57.1029 33.7064 57.5746 33.7455 58.0574 33.7455C58.4292 33.7455 58.8176 33.7203 59.2255 33.6729C59.6306 33.6254 60.0024 33.5361 60.3354 33.4078C60.6684 33.2794 60.9375 33.0924 61.1401 32.844C61.3398 32.5984 61.4259 32.2858 61.3926 31.9063C61.3482 31.39 61.0873 31.002 60.6101 30.7397C60.1356 30.4773 59.5529 30.268 58.862 30.1062C58.1739 29.9471 57.4275 29.802 56.6284 29.6736C55.8293 29.5452 55.0884 29.3638 54.4058 29.1294C53.726 28.8977 53.1572 28.5712 52.7021 28.1553C52.2499 27.7423 52.0196 27.1702 52.0112 26.4473C52.0029 25.8864 52.15 25.4119 52.4469 25.0156C52.7438 24.6221 53.1267 24.3039 53.5956 24.0611C54.0618 23.8183 54.5917 23.6397 55.18 23.5225C55.7682 23.4053 56.3537 23.3467 56.9364 23.3467C57.6911 23.3467 58.3903 23.3969 59.0313 23.5002C59.675 23.6034 60.2522 23.7821 60.7655 24.0388C61.2788 24.2956 61.7061 24.6444 62.0418 25.0882C62.3804 25.5347 62.6107 26.0929 62.73 26.7711H60.4797C60.4159 26.4111 60.2771 26.1124 60.0662 25.8752C59.8554 25.6408 59.5973 25.451 59.2893 25.3087C58.9841 25.1663 58.6484 25.0659 58.2877 25.0017C57.9269 24.9375 57.5662 24.9068 57.2 24.9068C56.8698 24.9068 56.5368 24.9291 56.1983 24.971C55.8626 25.0128 55.5546 25.0882 55.2826 25.1942C55.0079 25.3003 54.786 25.4426 54.6195 25.6184C54.4502 25.7971 54.3698 26.0287 54.3809 26.3162C54.3919 26.6343 54.5362 26.8995 54.8193 27.1088C55.1023 27.3209 55.4574 27.4967 55.8903 27.6362C56.3232 27.7758 56.8087 27.893 57.3498 27.9907C57.8909 28.0884 58.4319 28.186 58.973 28.2893C59.5529 28.3926 60.119 28.5209 60.6767 28.6689C61.2344 28.8196 61.7366 29.0177 62.1834 29.2661C62.6301 29.5145 63.0047 29.8299 63.3043 30.2122C63.6068 30.5946 63.7871 31.0746 63.8482 31.6495C63.9259 32.3891 63.8093 33.0087 63.4958 33.5054C63.1823 34.005 62.7439 34.4125 62.1806 34.7223C61.6173 35.0348 60.9653 35.2525 60.2327 35.3753C59.4974 35.5009 58.7594 35.5623 58.0241 35.5623C57.2138 35.5623 56.4341 35.487 55.6933 35.339C54.9524 35.1911 54.2976 34.9483 53.726 34.6106C53.1572 34.2757 52.6994 33.8376 52.3553 33.2989C52.014 32.7631 51.8226 32.1184 51.7754 31.3676H54.1062C54.1367 31.8058 54.2671 32.177 54.4974 32.4868L54.5002 32.4896Z" fill="#AAB8CD"/>
<path d="M72.899 37.022C72.7187 37.6695 72.5244 38.2193 72.3191 38.6686C72.111 39.1207 71.8585 39.4919 71.5644 39.785C71.2675 40.0752 70.9179 40.2901 70.5183 40.4241C70.116 40.558 69.6415 40.625 69.0921 40.625C68.798 40.625 68.5011 40.6083 68.2042 40.572C67.9073 40.5357 67.6132 40.4743 67.3302 40.385L67.0805 38.3337C67.3024 38.4202 67.5577 38.4928 67.8463 38.5542C68.1321 38.6156 68.3735 38.6463 68.5677 38.6463C69.0699 38.6463 69.475 38.5375 69.7803 38.3226C70.0855 38.1077 70.2963 37.8007 70.4101 37.4099L71.076 35.2219L63.9922 23.6035H66.4672L71.9001 33.0087H71.9556L74.1532 23.6035H76.4756L72.9018 37.0276L72.899 37.022Z" fill="#AAB8CD"/>
</svg>
