<svg width="24" height="24" viewBox="0 0 24 24" fill="none" xmlns="http://www.w3.org/2000/svg">
<path d="M8.55 0.55C5.2 1.55 2.45 4.05 1.05 7.2H6.05C6.5 4.45 7.4 2.1 8.55 0.55ZM7.25 12C7.25 13.15 7.3 14.2 7.4 15.2H16.65C16.75 14.2 16.85 13.15 16.85 12C16.85 10.9 16.75 9.85 16.65 8.8H7.4C7.3 9.85 7.25 10.9 7.25 12ZM16.4 7.2C15.6 2.8 13.75 0 12.05 0C10.3 0 8.45 2.8 7.65 7.2H16.4ZM23 7.2C21.6 4.05 18.85 1.55 15.5 0.55C16.65 2.1 17.55 4.45 18 7.2H23ZM15.5 23.5C18.85 22.5 21.6 20 23 16.8H18C17.55 19.6 16.65 21.95 15.5 23.5ZM23.6 8.8H18.25C18.35 9.85 18.4 10.9 18.4 12C18.4 13.15 18.35 14.2 18.25 15.2H23.6C23.85 14.2 24 13.15 24 12C24 10.9 23.85 9.85 23.6 8.8ZM7.65 16.8C8.45 21.25 10.3 24 12 24C13.75 24 15.6 21.25 16.4 16.8H7.65ZM5.65 12C5.65 10.9 5.7 9.85 5.8 8.8H0.45C0.2 9.85 0 10.9 0 12C0 13.15 0.2 14.2 0.45 15.2H5.8C5.7 14.2 5.65 13.15 5.65 12ZM1.05 16.8C2.45 20 5.15 22.5 8.55 23.5C7.4 21.95 6.5 19.6 6.05 16.8H1.05Z" fill="#D7DFEB"/>
</svg>
