<svg width="24" height="20" viewBox="0 0 24 20" fill="none" xmlns="http://www.w3.org/2000/svg">
<path d="M24 9.35564V10.6079C24 10.9601 23.7 11.2341 23.4 11.2341H19.3422C18.9574 11.2341 18.6067 11.4549 18.4404 11.802L16.65 15.5388C16.425 16.0084 15.975 16.2823 15.45 16.204C14.9625 16.1649 14.55 15.8127 14.4375 15.304L13.2056 10.6591C12.9346 9.63767 11.4707 9.67996 11.2592 10.7154L9.5625 19.0217C9.45 19.5695 8.9625 20 8.4375 20H8.4C7.8375 20 7.3875 19.6478 7.2375 19.0999L5.26532 11.9675C5.14548 11.5342 4.75113 11.2341 4.30149 11.2341H0.6C0.2625 11.2341 0 10.9601 0 10.6471V9.35564C0 9.04257 0.2625 8.76864 0.6 8.76864H6C6.525 8.76864 6.975 9.15997 7.125 9.70784V9.70784C7.40023 10.6983 8.8209 10.6491 9.02705 9.64207L10.8 0.981036C10.9125 0.394031 11.4 0.00269451 11.9625 0.00269451C12.4875 -0.0364392 13.0125 0.354898 13.125 0.902769L15.3246 9.3091C15.524 10.0711 16.5616 10.1782 16.9125 9.47304V9.47304C17.1 9.00344 17.5125 8.7295 18 8.7295H23.4C23.7 8.7295 24 9.04257 24 9.35564Z" fill="#D7DFEB"/>
</svg>
