<svg width="24" height="24" viewBox="0 0 24 24" fill="none" xmlns="http://www.w3.org/2000/svg">
<path d="M2.7768 15.9642C5.88264 19.0794 10.7048 19.5233 14.2998 17.2959L20.9836 23.9999L24 20.9744L17.3133 14.2676C17.5957 13.8073 17.8347 13.327 18.0303 12.8328C17.9095 12.5983 17.7931 12.3253 17.6787 12.0161C17.5309 11.6169 17.402 11.2611 17.2869 10.9431C16.9929 10.1314 16.7884 9.56685 16.588 9.15936C16.5483 9.07859 16.5131 9.01362 16.4825 8.96159C16.4722 8.98248 16.4614 9.00518 16.4501 9.02981C16.2704 9.42095 16.1208 9.97637 15.9439 10.6529L15.9261 10.721C15.7677 11.3277 15.5821 12.0381 15.3302 12.5979C15.1983 12.891 15.0168 13.2175 14.7538 13.4818C14.4731 13.764 14.0706 14 13.5568 14C12.8626 14 12.4063 13.5471 12.155 13.2022C11.8921 12.8416 11.6911 12.3849 11.528 11.9339C11.2243 11.0943 10.9634 10.013 10.7158 8.98675L10.6551 8.73516C10.3788 7.59343 10.1143 6.54245 9.80814 5.77812C9.77787 5.70256 9.75025 5.62267 9.72379 5.54612C9.65092 5.33534 9.5868 5.14988 9.50023 5.14988C9.41367 5.14988 9.34955 5.33533 9.27668 5.54611C9.25022 5.62266 9.2226 5.70256 9.19233 5.77812C8.88614 6.54245 8.62164 7.59343 8.3454 8.73516L8.28465 8.98672C8.03704 10.013 7.77613 11.0943 7.47249 11.9339C7.30937 12.3849 7.10833 12.8416 6.84547 13.2022C6.59413 13.5471 6.13789 14 5.44371 14C4.92979 14 4.52723 13.7639 4.24656 13.4815C3.9837 13.2171 3.80231 12.8905 3.67058 12.5974C3.41931 12.0383 3.23427 11.3287 3.07621 10.7226L3.05794 10.6526C2.88134 9.97611 2.73184 9.42093 2.55222 9.0301C2.54057 9.00475 2.52944 8.98146 2.51884 8.96007C2.48807 9.01236 2.45255 9.0778 2.41245 9.15936C2.21207 9.56685 2.00763 10.1313 1.7136 10.9431C1.59845 11.261 1.46957 11.6169 1.32181 12.0161C1.18579 12.3836 1.04693 12.7 0.901039 12.9616C0.870203 13.0168 0.837542 13.0724 0.802836 13.1276C1.26301 14.1597 1.92099 15.1245 2.7768 15.9642Z" fill="#D7DFEB"/>
<path d="M0.00989956 9.77451C-0.107232 7.23162 0.815069 4.64948 2.7768 2.72462C6.39872 -0.908206 12.3548 -0.908206 15.9767 2.72462C17.6939 4.44699 18.5969 6.69561 18.6858 8.97148C18.5817 8.71061 18.4816 8.47787 18.3828 8.27685C18.208 7.92139 17.9876 7.55479 17.6733 7.27567C17.3221 6.96378 16.8981 6.8 16.423 6.8C15.3792 6.8 14.8623 7.69475 14.6325 8.19519C14.3693 8.76842 14.179 9.49658 14.0179 10.1129L14.009 10.1471C13.8509 10.7518 13.7164 11.2597 13.5636 11.6421C13.5149 11.5329 13.4631 11.404 13.4087 11.2536C13.1447 10.5234 12.909 9.54783 12.651 8.48018L12.599 8.26484C12.3308 7.15657 12.0345 5.95755 11.6647 5.03438C11.4808 4.57534 11.2514 4.11227 10.95 3.74858C10.647 3.38304 10.1672 3 9.50023 3C8.83322 3 8.35347 3.38304 8.0505 3.74858C7.74906 4.11227 7.51965 4.57534 7.33576 5.03438C6.96594 5.95755 6.66963 7.15657 6.40149 8.26484L6.34944 8.48018C6.09151 9.54783 5.85581 10.5234 5.59172 11.2536C5.53748 11.4036 5.48578 11.5322 5.43724 11.6413C5.28484 11.2591 5.15082 10.7516 4.99309 10.1474L4.98462 10.115C4.82365 9.49821 4.63332 8.76898 4.36948 8.1949C4.13885 7.69309 3.6213 6.8 2.57746 6.8C2.1024 6.8 1.67839 6.96378 1.32719 7.27567C1.01289 7.55479 0.792464 7.92139 0.617682 8.27685C0.426373 8.66591 0.230294 9.17382 0.00989956 9.77451Z" fill="#D7DFEB"/>
</svg>
