<svg width="24" height="20" viewBox="0 0 24 20" fill="none" xmlns="http://www.w3.org/2000/svg">
<path fill-rule="evenodd" clip-rule="evenodd" d="M0 10C0 9.6875 0.1125 9.375 0.3375 9.14062C0.5625 8.90625 0.8625 8.75 1.2 8.75H2.4V16.25H1.2C0.8625 16.25 0.5625 16.1328 0.3375 15.8984C0.1125 15.6641 0 15.3516 0 15V10ZM13.2 3.75H17.4C19.05 3.75 20.4 5.15625 20.4 6.875V17.5C20.4 18.9062 19.3125 20 18 20H6C4.65 20 3.6 18.9062 3.6 17.5V6.875C3.6 5.15625 4.9125 3.75 6.6 3.75H10.8V1.25C10.8 0.585938 11.325 0 12 0C12.6375 0 13.2 0.585938 13.2 1.25V3.75ZM6.9 10C6.9 10.8984 7.5375 11.5625 8.4 11.5625C9.225 11.5625 9.9 10.8984 9.9 10C9.9 9.14062 9.225 8.4375 8.4 8.4375C7.5375 8.4375 6.9 9.14062 6.9 10ZM14.1 10C14.1 10.8984 14.7375 11.5625 15.6 11.5625C16.425 11.5625 17.1 10.8984 17.1 10C17.1 9.14062 16.425 8.4375 15.6 8.4375C14.7375 8.4375 14.1 9.14062 14.1 10ZM22.8 8.75C23.1 8.75 23.4 8.90625 23.625 9.14062C23.85 9.375 24 9.6875 24 10V15C24 15.3516 23.85 15.6641 23.625 15.8984C23.4 16.1328 23.1 16.25 22.8 16.25H21.6V8.75H22.8ZM8.64453 14.3523C9.10605 14.8166 10.0857 15.3589 11.2725 15.5278C12.4838 15.7002 13.9397 15.4877 15.3115 14.3902L14.6868 13.6094C13.5586 14.5119 12.3895 14.6767 11.4134 14.5378C10.4127 14.3954 9.64229 13.9376 9.35381 13.6473L8.64453 14.3523Z" fill="#D7DFEB"/>
</svg>
