<svg width="44" height="96" viewBox="0 0 44 96" fill="none" xmlns="http://www.w3.org/2000/svg">
<path d="M12.9925 64.7492C9.91633 66.8768 8.2835 70.1428 8.60423 73.4901L8.63339 73.7883C8.88123 76.2547 10.1642 78.5585 12.2635 80.2796L12.9487 80.8488L12.7738 79.6698C12.5843 78.3824 13.5465 77.1762 15.0189 76.8374C16.6372 76.4715 18.3138 77.2847 18.7511 78.6534C19.101 79.724 18.8095 80.8624 17.9639 81.7026C16.5497 83.1255 16.0978 85.1719 16.8559 86.9878C18.0368 89.766 21.3899 90.7417 23.9412 92.0969L23.6351 91.1889C23.1394 89.7389 22.7312 88.0855 23.2414 86.5813C23.7663 85.0092 24.3203 84.0606 25.4137 82.8003C26.9591 80.9979 27.5714 78.938 28.6065 76.9052C29.8457 77.4337 32.2658 80.5507 32.5865 81.7026L32.8052 81.418C34.1465 79.6427 35.1378 77.6912 35.721 75.6449C36.2167 73.8967 36.1729 72.0672 35.5898 70.3461C34.8171 68.0558 33.1114 66.0501 30.7933 64.7085" stroke="#AAB8CD" stroke-width="2" stroke-linecap="round" stroke-linejoin="round"/>
<path fill-rule="evenodd" clip-rule="evenodd" d="M2 25.8099C2 14.9191 10.8611 6.0918 21.8129 6.0918C32.7646 6.0918 41.6258 14.9191 41.6258 25.8099C41.6258 32.0861 38.6735 37.6865 34.0847 41.2947L34.059 41.315L34.0346 41.3369C32.9414 42.3189 32.0618 43.489 31.4251 44.7759H12.2114C11.5752 43.4928 10.6971 42.3249 9.6072 41.3391L9.32156 41.0808H9.27303C4.82634 37.4683 2 31.9651 2 25.8099ZM12.9798 46.7759C13.2597 47.7743 13.4052 48.8153 13.4052 49.8736V50.2173H23.5549V52.2173H13.4052V55.6455H23.5549V57.6455H13.4052V59.1041C13.4052 60.1896 14.2924 61.0868 15.4017 61.0868H28.2376C29.3393 61.0868 30.234 60.1972 30.234 59.1041V57.6455H26.4414V55.6455H30.234V52.2173H26.4414V50.2173H30.234V49.8736C30.234 48.8167 30.3793 47.7752 30.6586 46.7759H12.9798ZM21.8129 4.0918C9.76518 4.0918 0 13.806 0 25.8099C0 32.7265 3.24201 38.897 8.30589 42.8677L8.36846 42.9168C10.3094 44.7237 11.4052 47.2346 11.4052 49.8736V59.1041C11.4052 61.2969 13.1906 63.0868 15.4017 63.0868H15.5709C15.7107 64.5733 16.3688 65.9042 17.3762 66.907L17.3812 66.912C18.515 68.0247 20.0716 68.73 21.8069 68.73C25.0641 68.73 27.747 66.2582 28.0549 63.0868H28.2376C30.4293 63.0868 32.234 61.3162 32.234 59.1041V49.8736C32.234 47.1969 33.3611 44.6425 35.3476 42.8459C40.3808 38.8755 43.6258 32.7156 43.6258 25.8099C43.6258 13.806 33.8606 4.0918 21.8129 4.0918ZM26.0407 63.0868H17.5839C17.7135 64.0193 18.1438 64.8481 18.7846 65.4871C19.5672 66.2539 20.6281 66.73 21.8069 66.73C23.9653 66.73 25.7434 65.1443 26.0407 63.0868Z" fill="#AAB8CD"/>
</svg>
