<svg width="24" height="22" viewBox="0 0 24 22" fill="none" xmlns="http://www.w3.org/2000/svg">
<path d="M11.9711 1.83343C16.3572 1.83343 20.0246 4.97163 20.8717 9.17194C20.9309 9.46551 20.6996 9.73087 20.4001 9.73088C20.0097 9.7309 19.7739 10.1629 19.9852 10.4913L20.9068 11.9235C21.3002 12.535 22.1941 12.5354 22.5881 11.9243L23.5489 10.4345C23.7447 10.1308 23.5267 9.73072 23.1653 9.73074C22.9334 9.73075 22.7393 9.55624 22.7045 9.32697C21.8959 4.00077 17.3664 -4.86786e-07 11.9711 0C7.79193 3.77056e-07 4.11857 2.43509 2.33008 6.01315C2.10517 6.4631 2.27628 7.01601 2.71225 7.24812C3.14822 7.48024 3.68397 7.30365 3.90887 6.8537C5.39759 3.87537 8.46763 1.83343 11.9711 1.83343Z" fill="#D7DFEB"/>
<path d="M3.13355 12.8281C3.07434 12.5345 3.30565 12.2691 3.60513 12.2691C3.99559 12.2691 4.23133 11.8371 4.02005 11.5087L3.0985 10.0765C2.70503 9.46502 1.81121 9.46458 1.41714 10.0757L0.456399 11.5655C0.260539 11.8692 0.478595 12.2693 0.839993 12.2693C1.0719 12.2692 1.26598 12.4438 1.30079 12.673C2.10941 17.9992 6.63883 22 12.0342 22C16.2133 22 19.8867 19.5649 21.6752 15.9869C21.9001 15.5369 21.729 14.984 21.293 14.7519C20.857 14.5198 20.3213 14.6964 20.0964 15.1463C18.6077 18.1246 15.5376 20.1666 12.0342 20.1666C7.64808 20.1666 3.98066 17.0284 3.13355 12.8281Z" fill="#D7DFEB"/>
<path fill-rule="evenodd" clip-rule="evenodd" d="M18.5251 12.7766C18.6639 12.8626 18.7472 13.0345 18.7472 13.1777C18.7472 13.6934 17.5259 16.0138 16.9707 16.0424C16.9336 16.0424 16.8965 16.0367 16.8618 16.0254C16.7775 15.9977 16.7099 15.9336 16.6336 15.8883L16.0617 15.5492C15.6926 15.3304 15.2298 15.3792 14.8737 15.6185C14.723 15.7198 14.5681 15.8135 14.4088 15.8991C14.0417 16.0964 13.7786 16.4617 13.7786 16.8785V17.7326C13.7786 17.9618 13.612 18.1337 13.39 18.191C12.9181 18.3056 12.4184 18.3342 11.9743 18.3342C11.5024 18.3342 11.0306 18.2769 10.5587 18.191C10.3644 18.1337 10.2256 17.9618 10.2256 17.7326V16.8892C10.2256 16.4672 9.95573 16.0989 9.58206 15.9028C9.41673 15.816 9.25731 15.7208 9.10316 15.6179C8.74629 15.3796 8.28383 15.3304 7.91472 15.5492L7.34283 15.8883C7.26645 15.9336 7.19893 15.9977 7.11457 16.0254C7.07991 16.0367 7.0428 16.0424 7.00569 16.0424C6.39502 16.0424 5.2292 13.6074 5.2292 13.1777C5.2292 13.0345 5.31247 12.8626 5.45126 12.7766L6.15397 12.3755C6.51601 12.1688 6.70411 11.7593 6.68178 11.343C6.67566 11.2289 6.6726 11.1147 6.6726 11.0005C6.6726 10.8937 6.67528 10.7896 6.68065 10.6865C6.70232 10.2702 6.51601 9.86092 6.15397 9.65423L5.45126 9.25303C5.31247 9.16709 5.2292 8.99521 5.2292 8.82333C5.2292 8.33632 6.45054 5.98724 7.00569 5.98724C7.0428 5.98724 7.07991 5.99293 7.11457 6.00431C7.19893 6.03202 7.26645 6.09613 7.34284 6.14142L7.89359 6.46795C8.27287 6.69281 8.74884 6.63271 9.11696 6.38999C9.26603 6.2917 9.42003 6.20252 9.57952 6.12129C9.95558 5.92977 10.2256 5.56252 10.2256 5.1405V4.29705C10.2256 4.06788 10.3644 3.89599 10.5587 3.8387C11.0306 3.72411 11.5024 3.66682 12.0021 3.66682C12.474 3.66682 12.9458 3.72411 13.4177 3.8387C13.612 3.86735 13.7786 4.06788 13.7786 4.29705V5.1512C13.7786 5.56795 14.0419 5.93221 14.4114 6.12494C14.5649 6.20501 14.7144 6.29278 14.8599 6.38934C15.2273 6.63318 15.7035 6.69281 16.0828 6.46795L16.6336 6.14142C16.7099 6.09613 16.7775 6.03202 16.8618 6.00431C16.8965 5.99293 16.9336 5.98724 16.9707 5.98724C17.5814 5.98724 18.7472 8.42226 18.7472 8.82333C18.7472 8.99521 18.6639 9.16709 18.5251 9.25303L17.8224 9.65423C17.4604 9.86092 17.2778 10.2691 17.3158 10.6842C17.3257 10.7921 17.3316 10.8978 17.3316 11.0005C17.3316 11.1155 17.3253 11.2304 17.315 11.3454C17.2777 11.7606 17.4604 12.1688 17.8224 12.3755L18.5251 12.7766ZM9.78146 11.0005C9.78146 12.2896 10.753 13.2923 12.0021 13.2923C13.2234 13.2923 14.2227 12.2896 14.2227 11.0005C14.2227 9.74004 13.2234 8.70874 12.0021 8.70874C10.753 8.70874 9.78146 9.74004 9.78146 11.0005Z" fill="#D7DFEB"/>
</svg>
