
<svg width="170" height="170" viewBox="0 0 170 170" fill="none" xmlns="http://www.w3.org/2000/svg">
<path d="M115.076 68.0653C114.667 72.8583 118.118 77.1567 122.934 77.7575C122.934 77.7575 122.935 77.7575 122.935 77.7575L169.185 83.5115V86.4885L122.935 92.2425C122.935 92.2425 122.934 92.2425 122.934 92.2425C121.323 92.4436 119.796 93.0768 118.514 94.0732C114.593 97.1277 113.889 102.782 116.943 106.702L116.943 106.702L145.581 143.473L143.476 145.579L106.704 116.946C105.422 115.949 103.895 115.316 102.284 115.115C97.3519 114.504 92.858 118.004 92.2428 122.936C92.2427 122.936 92.2427 122.936 92.2427 122.937L86.4885 169.185H83.5115L77.7573 122.937C77.7573 122.937 77.7573 122.936 77.7572 122.936C77.5561 121.325 76.923 119.798 75.9265 118.516C72.8724 114.593 67.2178 113.891 63.2968 116.945L63.2966 116.945L26.5241 145.579L24.4191 143.473L53.0566 106.703C54.0529 105.422 54.6861 103.895 54.8872 102.284C55.4992 97.3521 51.9985 92.8578 47.0657 92.2425C47.0656 92.2425 47.0655 92.2425 47.0653 92.2425L0.814815 86.4885L0.814815 83.5115L47.0652 77.7575C48.6765 77.5565 50.2042 76.9233 51.4859 75.9268C55.4094 72.8729 56.1113 67.2186 53.0573 63.2977L53.0573 63.2977L24.4191 26.5267L26.524 24.4214L63.2993 53.0543L115.076 68.0653ZM115.076 68.0653L115.12 67.7172C115.321 66.1065 115.954 64.5792 116.95 63.2977L115.076 68.0653ZM67.72 54.885C72.6516 55.4964 77.1455 51.9958 77.7607 47.0638C77.7607 47.0637 77.7608 47.0635 77.7608 47.0634L83.515 0.8148L86.492 0.814689L92.2497 47.0633C92.2497 47.0634 92.2497 47.0636 92.2497 47.0637C92.4508 48.6747 93.084 50.2022 94.0805 51.4838C97.1346 55.4071 102.789 56.109 106.71 53.0551L106.71 53.055L143.483 24.4215L145.588 26.5267L116.95 63.2967L67.72 54.885ZM67.72 54.885C66.1091 54.6841 64.5816 54.0511 63.3001 53.0549L67.72 54.885Z" fill="#38EDAC" stroke="#38EDAC" stroke-width="3"/>
</svg>