<svg width="24" height="24" viewBox="0 0 24 24" fill="none" xmlns="http://www.w3.org/2000/svg">
<path d="M21.0087 2.4155C22.9178 4.02886 23.8952 6.38055 23.9957 9.36118C24.0056 9.72215 23.9967 10.1475 23.9865 10.6358C23.9778 11.0476 23.9683 11.5041 23.9683 12.0046V14.6115C23.7308 20.8705 20.1684 24 13.281 24H3.23322V18.8591H13.1349C13.7082 18.9069 14.2852 18.8404 14.8325 18.6636C15.3798 18.4868 15.8864 18.2031 16.3228 17.8291C17.0989 16.9134 17.4944 15.736 17.4281 14.5385C17.5011 13.8731 17.5011 13.0254 17.5011 11.9681C17.5011 10.9107 17.4737 10.0722 17.4281 9.43411C17.4549 8.84174 17.3638 8.24994 17.16 7.69294C16.9562 7.13595 16.6437 6.62482 16.2406 6.18914C15.3264 5.42617 14.1496 5.05 12.9613 5.1409H6.47628V12.0049H0V0.000386006L13.1349 0C16.5238 0 19.0997 0.802127 21.0087 2.4155Z" fill="#D7DFEB"/>
</svg>
