<svg width="22" height="24" viewBox="0 0 22 24" fill="none" xmlns="http://www.w3.org/2000/svg">
<path d="M21.9017 11.8164C20.9981 9.79687 19.7933 5.32812 18.7606 3.82422C17.0824 1.41797 14.3286 0 11.4457 0H10.9723V4.64062C12.6074 5.41406 13.7262 7.04687 13.7262 8.9375C13.7262 11.6016 11.5317 13.75 8.90696 13.75C6.28221 13.75 4.08774 11.6016 4.08774 8.9375C4.08774 7.04687 5.20649 5.41406 6.84158 4.64062V0.128906C2.96899 0.816406 0 4.16797 0 8.25C0 10.6133 0.989663 12.8477 2.75384 14.3945V24H13.7692V19.25H16.48C18.0291 19.25 19.2339 18.0469 19.2339 16.543V13.75H20.5678C21.0411 13.75 21.4714 13.5352 21.6865 13.1484C22.0308 12.7617 22.0738 12.2461 21.9017 11.8164ZM5.50769 8.9375C5.50769 10.8711 7.0137 12.375 8.90696 12.375C10.7572 12.375 12.3062 10.8711 12.3062 8.9375C12.3062 7.04687 10.8433 5.5 8.94999 5.5C7.0137 5.5 5.50769 7.04687 5.50769 8.9375ZM8.90696 7.5625C9.63845 7.5625 10.2839 8.20703 10.2839 8.9375C10.2839 9.71094 9.63845 10.3125 8.90696 10.3125C8.13245 10.3125 7.53004 9.71094 7.53004 8.9375C7.53004 8.20703 8.17547 7.5625 8.90696 7.5625Z" fill="#D7DFEB"/>
</svg>
