<svg width="24" height="22" viewBox="0 0 24 22" fill="none" xmlns="http://www.w3.org/2000/svg">
<path d="M22.5 0H6C5.15625 0 4.5 0.736607 4.5 1.57143V18.0714C4.5 18.5134 4.125 18.8571 3.75 18.8571C3.32812 18.8571 3 18.5134 3 18.0714V3.14286H1.5C0.65625 3.14286 0 3.87946 0 4.71429V18.8571C0 20.625 1.3125 22 3 22H21C22.6406 22 24 20.625 24 18.8571V1.57143C24 0.736607 23.2969 0 22.5 0ZM12.75 18.8571H8.25C7.82812 18.8571 7.5 18.5134 7.5 18.0714C7.5 17.6786 7.82812 17.2857 8.25 17.2857H12.75C13.125 17.2857 13.5 17.6786 13.5 18.0714C13.5 18.5134 13.125 18.8571 12.75 18.8571ZM12.75 14.1429H8.25C7.82812 14.1429 7.5 13.7991 7.5 13.3571C7.5 12.9643 7.82812 12.5714 8.25 12.5714H12.75C13.125 12.5714 13.5 12.9643 13.5 13.3571C13.5 13.7991 13.125 14.1429 12.75 14.1429ZM20.25 18.8571H15.75C15.3281 18.8571 15 18.5134 15 18.0714C15 17.6786 15.3281 17.2857 15.75 17.2857H20.25C20.625 17.2857 21 17.6786 21 18.0714C21 18.5134 20.625 18.8571 20.25 18.8571ZM20.25 14.1429H15.75C15.3281 14.1429 15 13.7991 15 13.3571C15 12.9643 15.3281 12.5714 15.75 12.5714H20.25C20.625 12.5714 21 12.9643 21 13.3571C21 13.7991 20.625 14.1429 20.25 14.1429ZM21 8.64286C21 9.08482 20.625 9.42857 20.25 9.42857H8.25C7.82812 9.42857 7.5 9.08482 7.5 8.64286V3.92857C7.5 3.53571 7.82812 3.14286 8.25 3.14286H20.25C20.625 3.14286 21 3.53571 21 3.92857V8.64286Z" fill="#D7DFEB"/>
</svg>
