<svg width="24" height="24" viewBox="0 0 24 24" fill="none" xmlns="http://www.w3.org/2000/svg">
<path d="M15.1875 4.875L18 6L19.125 8.8125C19.2188 8.95312 19.3594 9 19.5 9C19.6406 9 19.7344 8.95312 19.8281 8.8125L21 6L23.7656 4.875C23.9062 4.78125 24 4.64062 24 4.5C24 4.35938 23.9062 4.26562 23.7656 4.17188L21 3L19.8281 0.234375C19.7344 0.09375 19.6406 0 19.5 0C19.3594 0 19.2188 0.09375 19.125 0.234375L18 3L15.1875 4.17188C15.0469 4.26562 15 4.35938 15 4.5C15 4.64062 15.0469 4.78125 15.1875 4.875ZM23.7656 19.1719L21 18L19.8281 15.2344C19.7344 15.0938 19.6406 15 19.5 15C19.3594 15 19.2188 15.0938 19.125 15.2344L18 18L15.1875 19.1719C15.0469 19.2656 15 19.3594 15 19.5C15 19.6406 15.0469 19.7812 15.1875 19.875L18 21L19.125 23.8125C19.2188 23.9531 19.3594 24 19.5 24C19.6406 24 19.7344 23.9531 19.8281 23.8125L21 21L23.7656 19.875C23.9062 19.7812 24 19.6406 24 19.5C24 19.3594 23.9062 19.2656 23.7656 19.1719ZM18 12C18 11.7188 17.8125 11.4375 17.5781 11.3438L12.2812 8.67188L9.65625 3.42188C9.375 2.90625 8.57812 2.90625 8.29688 3.42188L5.67188 8.67188L0.375 11.3438C0.140625 11.4375 0 11.7188 0 12C0 12.2812 0.140625 12.5625 0.375 12.6562L5.67188 15.3281L8.29688 20.625C8.4375 20.8594 8.67188 21 9 21C9.23438 21 9.51562 20.8594 9.65625 20.625L12.2812 15.3281L17.5781 12.6562C17.8125 12.5625 18 12.2812 18 12Z" fill="#D7DFEB"/>
</svg>
