<svg width="72" height="96" viewBox="0 0 72 96" fill="none" xmlns="http://www.w3.org/2000/svg">
<path d="M35.826 22.5192C35.826 15.0572 30.1011 9 22.9714 9C15.8417 9 10.1168 15.0572 10.1168 22.5192C10.1168 22.9271 10.1168 23.35 10.1923 23.8485C5.2378 26.4164 1.824 31.7184 1.824 37.8511C1.824 41.9144 3.31942 45.5699 5.72117 48.3795C2.98711 50.7812 1.25 54.3461 1.25 58.3339C1.25 64.3005 5.07164 69.2852 10.283 70.7655C10.2074 71.5057 10.1168 72.261 10.1168 73.0011C10.1168 80.4631 15.8417 86.5203 22.9714 86.5203C30.1011 86.5203 35.826 80.4631 35.826 73.0011V22.5192Z" stroke="#AAB8CD" stroke-width="2"/>
<path d="M35.6606 58.9229H29.7695" stroke="#AAB8CD" stroke-width="2"/>
<path d="M25.7961 62.5634C27.8051 62.5634 29.4516 60.932 29.4516 58.9079C29.4516 56.8838 27.8202 55.2524 25.7961 55.2524C23.772 55.2524 22.1406 56.8838 22.1406 58.9079C22.1406 60.932 23.772 62.5634 25.7961 62.5634Z" stroke="#AAB8CD" stroke-width="2"/>
<path d="M5.48047 48.395H11.3715" stroke="#AAB8CD" stroke-width="2"/>
<path d="M15.343 52.0351C17.352 52.0351 18.9985 50.4037 18.9985 48.3796C18.9985 46.3555 17.3671 44.7241 15.343 44.7241C13.3189 44.7241 11.6875 46.3555 11.6875 48.3796C11.6875 50.4037 13.3189 52.0351 15.343 52.0351V52.0351Z" stroke="#AAB8CD" stroke-width="2"/>
<path d="M35.6593 22.5195H27.291" stroke="#AAB8CD" stroke-width="2"/>
<path d="M23.3039 26.1596C25.3129 26.1596 26.9594 24.5282 26.9594 22.5041C26.9594 20.48 25.328 18.8486 23.3039 18.8486C21.2798 18.8486 19.6484 20.48 19.6484 22.5041C19.6484 24.5282 21.2798 26.1596 23.3039 26.1596Z" stroke="#AAB8CD" stroke-width="2"/>
<path d="M10.207 23.8486C10.207 23.8486 10.207 33.2139 20.4937 35.2984" stroke="#AAB8CD" stroke-width="2"/>
<path d="M10.2832 70.7806C10.2832 70.7806 18.3343 72.7745 23.8024 67.8804" stroke="#AAB8CD" stroke-width="2"/>
<path d="M35.8262 73.107C35.8262 80.569 41.5511 86.6263 48.6808 86.6263C55.8105 86.6263 61.5354 80.569 61.5354 73.107C61.5354 72.6992 61.5354 72.2762 61.4599 71.7778C66.4295 69.2099 69.8282 63.8928 69.8282 57.7601C69.8282 53.6967 68.3328 50.0413 65.931 47.2317C68.6651 44.8299 70.4022 41.2651 70.4022 37.2773C70.4022 31.3107 66.5805 26.326 61.3692 24.8456C61.4447 24.1055 61.5354 23.3502 61.5354 22.6101C61.5354 15.148 55.8105 9.09082 48.6808 9.09082C41.5511 9.09082 35.8262 15.148 35.8262 22.6101" stroke="#AAB8CD" stroke-width="2"/>
<path d="M35.9922 36.7031H41.8832" stroke="#AAB8CD" stroke-width="2"/>
<path d="M45.9465 40.3437C47.9555 40.3437 49.602 38.7123 49.602 36.6882C49.602 34.6641 47.9706 33.0327 45.9465 33.0327C43.9224 33.0327 42.291 34.6641 42.291 36.6882C42.291 38.7123 43.9224 40.3437 45.9465 40.3437V40.3437Z" stroke="#AAB8CD" stroke-width="2"/>
<path d="M66.1872 47.2314H60.3867" stroke="#AAB8CD" stroke-width="2"/>
<path d="M56.3098 50.872C58.3188 50.872 59.9653 49.2406 59.9653 47.2165C59.9653 45.1924 58.3339 43.561 56.3098 43.561C54.2857 43.561 52.6543 45.1924 52.6543 47.2165C52.6543 49.2406 54.2857 50.872 56.3098 50.872Z" stroke="#AAB8CD" stroke-width="2"/>
<path d="M35.9922 73.1069H44.3605" stroke="#AAB8CD" stroke-width="2"/>
<path d="M48.4387 76.747C50.4477 76.747 52.0942 75.1156 52.0942 73.0915C52.0942 71.0674 50.4628 69.436 48.4387 69.436C46.4146 69.436 44.7832 71.0674 44.7832 73.0915C44.7832 75.1156 46.4146 76.747 48.4387 76.747V76.747Z" stroke="#AAB8CD" stroke-width="2"/>
<path d="M61.5348 71.7774C61.5348 71.7774 61.5347 62.4122 51.248 60.3276" stroke="#AAB8CD" stroke-width="2"/>
<path d="M61.3688 24.8458C61.3688 24.8458 53.3177 22.8519 47.8496 27.746" stroke="#AAB8CD" stroke-width="2"/>
</svg>
