<svg width="20" height="24" viewBox="0 0 20 24" fill="none" xmlns="http://www.w3.org/2000/svg">
<path d="M20 15.75V2.25C20 1.03125 19.0179 0 17.8571 0H4.28571C1.875 0 0 2.01562 0 4.5V19.5C0 22.0312 1.875 24 4.28571 24H18.5714C19.3304 24 20 23.3438 20 22.5469C20 22.2107 19.8672 21.8944 19.6633 21.6371C19.4607 21.3813 19.2857 21.0869 19.2857 20.7606V17.8543C19.2857 17.6156 19.3759 17.3881 19.5133 17.1929C19.7995 16.7861 20 16.3132 20 15.75ZM6.38393 6H14.9554C15.3571 6 15.7143 6.375 15.7143 6.75C15.7143 7.17188 15.3571 7.5 15 7.5H6.38393C6.02679 7.5 5.71429 7.17188 5.71429 6.75C5.71429 6.375 6.02679 6 6.38393 6ZM6.38393 9H14.9554C15.3571 9 15.7143 9.375 15.7143 9.75C15.7143 10.1719 15.3571 10.5 15 10.5H6.38393C6.02679 10.5 5.71429 10.1719 5.71429 9.75C5.71429 9.375 6.02679 9 6.38393 9ZM17.1429 20C17.1429 20.5523 16.6951 21 16.1429 21H4.28571C3.48214 21 2.85714 20.3438 2.85714 19.5C2.85714 18.7031 3.48214 18 4.28571 18H16.1429C16.6951 18 17.1429 18.4477 17.1429 19V20Z" fill="#D7DFEB"/>
</svg>
