<svg width="24" height="24" viewBox="0 0 24 24" fill="none" xmlns="http://www.w3.org/2000/svg">
<path d="M6.75 17.25C6.75 17.6719 7.07813 18 7.5 18C7.875 18 8.25 17.6719 8.25 17.25C8.25 16.875 7.875 16.5 7.5 16.5C7.07813 16.5 6.75 16.875 6.75 17.25ZM17.25 6.75C17.25 6.375 16.875 6 16.5 6C16.0781 6 15.75 6.375 15.75 6.75C15.75 7.17188 16.0781 7.5 16.5 7.5C16.875 7.5 17.25 7.17188 17.25 6.75ZM8.625 0C7.26563 0 6.1875 1.03125 6.04688 2.34375C4.73438 2.67188 3.75 3.84375 3.75 5.25C3.75 5.53125 3.75 5.8125 3.84375 6.09375C2.48438 6.375 1.5 7.54688 1.5 9C1.5 9.70313 1.73438 10.3594 2.10938 10.875C0.890625 11.4844 0 12.75 0 14.25C0 15.8438 0.984375 17.2031 2.4375 17.7656C2.29688 18.0469 2.25 18.375 2.25 18.75C2.25 20.3906 3.60938 21.75 5.25 21.75C5.48438 21.75 5.76563 21.7031 6.04688 21.6563C6.14063 22.9688 7.26563 24 8.625 24C10.0781 24 11.25 22.8281 11.25 21.375V12.75H9C8.57813 12.75 8.25 13.125 8.25 13.5V15.5625C8.90625 15.8438 9.375 16.5 9.375 17.25C9.375 18.3281 8.53125 19.125 7.5 19.125C6.42188 19.125 5.625 18.3281 5.625 17.25C5.625 16.5 6.04688 15.8438 6.75 15.5625V13.5C6.75 12.2813 7.73438 11.25 9 11.25H11.25V7.5H9.1875C8.90625 8.20313 8.25 8.625 7.5 8.625C6.42188 8.625 5.625 7.82813 5.625 6.75C5.625 5.71875 6.42188 4.875 7.5 4.875C8.25 4.875 8.90625 5.34375 9.1875 6H11.25V2.625C11.25 1.17188 10.0781 0 8.625 0ZM6.75 6.75C6.75 7.17188 7.07813 7.5 7.5 7.5C7.875 7.5 8.25 7.17188 8.25 6.75C8.25 6.375 7.875 6 7.5 6C7.07813 6 6.75 6.375 6.75 6.75ZM24 14.25C24 12.75 23.1094 11.4844 21.8438 10.875C22.2656 10.3594 22.5 9.70313 22.5 9C22.5 7.54688 21.4688 6.375 20.1094 6.09375C20.2031 5.8125 20.2031 5.53125 20.2031 5.25C20.2031 3.84375 19.2188 2.67188 17.9063 2.34375C17.8125 1.03125 16.7344 0 15.375 0C13.9219 0 12.75 1.17188 12.75 2.625V11.25H15C15.375 11.25 15.75 10.9219 15.75 10.5V8.48438C15.0469 8.20313 14.625 7.54688 14.625 6.75C14.625 5.71875 15.4219 4.875 16.5 4.875C17.5313 4.875 18.375 5.71875 18.375 6.75C18.375 7.54688 17.9063 8.20313 17.25 8.48438V10.5C17.25 11.7656 16.2188 12.75 15 12.75H12.75V16.5H14.7656C15.0469 15.8438 15.7031 15.375 16.5 15.375C17.5313 15.375 18.375 16.2188 18.375 17.25C18.375 18.3281 17.5313 19.125 16.5 19.125C15.7031 19.125 15.0469 18.7031 14.7656 18H12.75V21.375C12.75 22.8281 13.9219 24 15.375 24C16.7344 24 17.8594 22.9688 17.9531 21.6563C18.2344 21.7031 18.4219 21.75 18.75 21.75C20.3906 21.75 21.75 20.3906 21.75 18.75C21.75 18.375 21.6563 18.0469 21.5625 17.7656C22.9219 17.2031 24 15.8438 24 14.25ZM17.25 17.25C17.25 16.875 16.875 16.5 16.5 16.5C16.0781 16.5 15.75 16.875 15.75 17.25C15.75 17.6719 16.0781 18 16.5 18C16.875 18 17.25 17.6719 17.25 17.25Z" fill="#D7DFEB"/>
</svg>