<svg width="24" height="24" viewBox="0 0 24 24" fill="none" xmlns="http://www.w3.org/2000/svg">
<path d="M12 8.25V8.29688L13.9688 6.32813L13.7813 5.53125C13.2188 5.39063 12.6094 5.25 12 5.25C8.25 5.25 5.25 8.29688 5.25 12C5.25 15.75 8.25 18.75 12 18.75C15.7031 18.75 18.75 15.75 18.75 12C18.75 11.3906 18.6094 10.7813 18.4688 10.2188L17.6719 10.0313L15.7031 12H15.75C15.75 14.1094 14.0625 15.75 12 15.75C9.89063 15.75 8.25 14.1094 8.25 12C8.25 9.9375 9.89063 8.25 12 8.25ZM23.3906 8.29688L21.7969 9.84375C21.5625 10.125 21.1875 10.3125 20.8125 10.4531C20.9063 10.9688 21 11.4844 21 12C21 16.9688 16.9688 21 12 21C6.98438 21 3 17.0156 3 12C3 7.03125 6.98438 3 12 3C12.5156 3 13.0313 3.09375 13.5469 3.1875C13.6875 2.8125 13.875 2.48438 14.1563 2.20313L15.7031 0.609375C14.5313 0.234375 13.2656 0 12 0C5.34375 0 0 5.39063 0 12C0 18.6563 5.34375 24 12 24C18.6094 24 24 18.6563 24 12C24 10.7344 23.7656 9.46875 23.3906 8.29688ZM15 3.9375L15.5625 6.84375L11.5781 10.8281C11.1094 11.2969 11.1094 12 11.5781 12.4219C11.7656 12.6563 12.0469 12.75 12.375 12.75C12.6563 12.75 12.9375 12.6563 13.125 12.4219L17.1563 8.4375L20.0625 9C20.1094 9 20.1563 9.04688 20.25 9.04688C20.4375 9.04688 20.625 8.95313 20.7656 8.8125L23.7656 5.8125C23.9531 5.625 24.0469 5.34375 23.9531 5.0625C23.8594 4.78125 23.625 4.59375 23.3906 4.54688L20.25 3.79688L19.4531 0.609375C19.4063 0.375 19.2188 0.140625 18.9375 0.046875C18.6563 -0.046875 18.375 0.046875 18.1875 0.234375L15.1875 3.23438C15 3.42188 14.9531 3.65625 15 3.9375Z" fill="#D7DFEB"/>
</svg>
