<svg width="24" height="22" viewBox="0 0 24 22" fill="none" xmlns="http://www.w3.org/2000/svg">
<path d="M23.4491 3.42082C24.0587 2.905 24.1994 1.96715 23.6836 1.31065C23.1678 0.701043 22.183 0.560365 21.5734 1.07619L14.9615 6.37507L9.89711 2.57675C9.3344 2.15472 8.58411 2.15472 8.06829 2.57675L0.565452 8.57903C-0.0910466 9.09485 -0.184832 10.0796 0.330988 10.6892C0.846808 11.3457 1.78466 11.4395 2.44116 10.9237L9.00615 5.67168L14.0706 9.46999C14.6333 9.89202 15.3836 9.89202 15.9463 9.4231L23.4491 3.42082ZM7.50558 11.2519V20.2553C7.50558 21.0994 8.16208 21.7559 9.00615 21.7559C9.80332 21.7559 10.5067 21.0994 10.5067 20.2553V11.2519C10.5067 10.4547 9.80332 9.75135 9.00615 9.75135C8.16208 9.75135 7.50558 10.4547 7.50558 11.2519ZM1.50331 15.7536V20.2553C1.50331 21.0994 2.15981 21.7559 3.00388 21.7559C3.80105 21.7559 4.50444 21.0994 4.50444 20.2553V15.7536C4.50444 14.9564 3.80105 14.2531 3.00388 14.2531C2.15981 14.2531 1.50331 14.9564 1.50331 15.7536ZM15.0084 12.7525C14.1643 12.7525 13.5079 13.4559 13.5079 14.2531V20.2553C13.5079 21.0994 14.1643 21.7559 15.0084 21.7559C15.8056 21.7559 16.509 21.0994 16.509 20.2553V14.2531C16.509 13.4559 15.8056 12.7525 15.0084 12.7525ZM19.5101 11.2519V20.2553C19.5101 21.0994 20.1666 21.7559 21.0107 21.7559C21.8079 21.7559 22.5113 21.0994 22.5113 20.2553V11.2519C22.5113 10.4547 21.8079 9.75135 21.0107 9.75135C20.1666 9.75135 19.5101 10.4547 19.5101 11.2519Z" fill="#D7DFEB"/>
</svg>