<svg width="84" height="96" viewBox="0 0 84 96" fill="none" xmlns="http://www.w3.org/2000/svg">
<mask id="path-1-inside-1_698_14930" fill="white">
<path fill-rule="evenodd" clip-rule="evenodd" d="M70.1127 16L83.2676 29.1549L45.9581 66.4643L46.042 66.5482L32.8871 79.7031L32.8033 79.6192L32.7195 79.703L19.5646 66.5481L19.6484 66.4643L0 46.8159L13.1549 33.6611L32.8033 53.3095L70.1127 16Z"/>
</mask>
<path d="M83.2676 29.1549L84.6818 30.5691L86.096 29.1549L84.6818 27.7406L83.2676 29.1549ZM70.1127 16L71.5269 14.5858L70.1127 13.1716L68.6985 14.5858L70.1127 16ZM45.9581 66.4643L44.5439 65.0501L43.1297 66.4643L44.5439 67.8785L45.9581 66.4643ZM46.042 66.5482L47.4562 67.9624L48.8704 66.5482L47.4562 65.134L46.042 66.5482ZM32.8871 79.7031L31.473 81.1173L32.8872 82.5315L34.3014 81.1173L32.8871 79.7031ZM32.8033 79.6192L34.2174 78.2049L32.8032 76.7908L31.389 78.205L32.8033 79.6192ZM32.7195 79.703L31.3052 81.1172L32.7195 82.5314L34.1337 81.1172L32.7195 79.703ZM19.5646 66.5481L18.1504 65.1339L16.7361 66.5481L18.1504 67.9623L19.5646 66.5481ZM19.6484 66.4643L21.0626 67.8786L22.4768 66.4643L21.0626 65.0501L19.6484 66.4643ZM0 46.8159L-1.41421 45.4017L-2.82843 46.8159L-1.41421 48.2301L0 46.8159ZM13.1549 33.6611L14.5691 32.2469L13.1549 30.8326L11.7406 32.2469L13.1549 33.6611ZM32.8033 53.3095L31.389 54.7237L32.8033 56.1379L34.2175 54.7237L32.8033 53.3095ZM84.6818 27.7406L71.5269 14.5858L68.6985 17.4142L81.8534 30.5691L84.6818 27.7406ZM47.3723 67.8785L84.6818 30.5691L81.8534 27.7406L44.5439 65.0501L47.3723 67.8785ZM44.5439 67.8785L44.6278 67.9624L47.4562 65.134L47.3723 65.0501L44.5439 67.8785ZM44.6278 65.134L31.4729 78.2889L34.3014 81.1173L47.4562 67.9624L44.6278 65.134ZM34.3013 78.2888L34.2174 78.2049L31.3891 81.0334L31.473 81.1173L34.3013 78.2888ZM34.1337 81.1172L34.2175 81.0334L31.389 78.205L31.3052 78.2888L34.1337 81.1172ZM18.1504 67.9623L31.3052 81.1172L34.1337 78.2888L20.9788 65.1339L18.1504 67.9623ZM18.2342 65.0501L18.1504 65.1339L20.9788 67.9624L21.0626 67.8786L18.2342 65.0501ZM21.0626 65.0501L1.41421 45.4017L-1.41421 48.2301L18.2342 67.8785L21.0626 65.0501ZM1.41421 48.2301L14.5691 35.0753L11.7406 32.2469L-1.41421 45.4017L1.41421 48.2301ZM11.7406 35.0753L31.389 54.7237L34.2175 51.8952L14.5691 32.2469L11.7406 35.0753ZM68.6985 14.5858L31.389 51.8952L34.2175 54.7237L71.5269 17.4142L68.6985 14.5858Z" fill="#AAB8CD" mask="url(#path-1-inside-1_698_14930)"/>
</svg>
