<svg width="182" height="96" viewBox="0 0 182 96" fill="none" xmlns="http://www.w3.org/2000/svg">
<path d="M84.4023 47.6689C83.8501 47.6689 83.4023 48.1167 83.4023 48.6689C83.4023 49.2212 83.8501 49.6689 84.4023 49.6689V47.6689ZM98.8534 49.3761C99.2439 48.9855 99.2439 48.3524 98.8534 47.9618L92.4894 41.5979C92.0989 41.2074 91.4657 41.2074 91.0752 41.5979C90.6847 41.9884 90.6847 42.6216 91.0752 43.0121L96.7321 48.6689L91.0752 54.3258C90.6847 54.7163 90.6847 55.3495 91.0752 55.74C91.4657 56.1305 92.0989 56.1305 92.4894 55.74L98.8534 49.3761ZM84.4023 49.6689H98.1463V47.6689H84.4023V49.6689Z" fill="#AAB8CD"/>
<g opacity="0.7">
<path d="M35.248 18.5809V17.5955V14.5234" stroke="#AAB8CD" stroke-width="2" stroke-miterlimit="10" stroke-linecap="round" stroke-linejoin="round"/>
<path d="M42.0176 24.9568V22.0586" stroke="#AAB8CD" stroke-width="2" stroke-miterlimit="10" stroke-linecap="round" stroke-linejoin="round"/>
<path d="M48.7852 37.187V35.6799V34.5786" stroke="#AAB8CD" stroke-width="2" stroke-miterlimit="10" stroke-linecap="round" stroke-linejoin="round"/>
<path d="M55.4629 31.7964V28.2026" stroke="#AAB8CD" stroke-width="2" stroke-miterlimit="10" stroke-linecap="round" stroke-linejoin="round"/>
<path d="M62.2305 37.3609V36.0857V34.9844" stroke="#AAB8CD" stroke-width="2" stroke-miterlimit="10" stroke-linecap="round" stroke-linejoin="round"/>
<path d="M68.998 35.3325V33.5356" stroke="#AAB8CD" stroke-width="2" stroke-miterlimit="10" stroke-linecap="round" stroke-linejoin="round"/>
<path d="M75.7656 40.839V39.5059" stroke="#AAB8CD" stroke-width="2" stroke-miterlimit="10" stroke-linecap="round" stroke-linejoin="round"/>
<path d="M1.5 34.9268V33.1299" stroke="#AAB8CD" stroke-width="2" stroke-miterlimit="10" stroke-linecap="round" stroke-linejoin="round"/>
<path d="M8.17773 37.3609V36.0277V34.9844" stroke="#AAB8CD" stroke-width="2" stroke-miterlimit="10" stroke-linecap="round" stroke-linejoin="round"/>
<path d="M14.9453 30.7535V30.9274V26.9858" stroke="#AAB8CD" stroke-width="2" stroke-miterlimit="10" stroke-linecap="round" stroke-linejoin="round"/>
<path d="M21.7129 36.6655V35.2164V34.0571" stroke="#AAB8CD" stroke-width="2" stroke-miterlimit="10" stroke-linecap="round" stroke-linejoin="round"/>
<path d="M28.4805 25.3044V22.4062" stroke="#AAB8CD" stroke-width="2" stroke-miterlimit="10" stroke-linecap="round" stroke-linejoin="round"/>
</g>
<g opacity="0.5">
<path d="M35.248 72.8755V73.8029V76.875" stroke="#AAB8CD" stroke-width="2" stroke-miterlimit="10" stroke-linecap="round" stroke-linejoin="round"/>
<path d="M42.0176 67.1948V70.093" stroke="#AAB8CD" stroke-width="2" stroke-miterlimit="10" stroke-linecap="round" stroke-linejoin="round"/>
<path d="M48.7852 77.6865V79.1356V80.2949" stroke="#AAB8CD" stroke-width="2" stroke-miterlimit="10" stroke-linecap="round" stroke-linejoin="round"/>
<path d="M55.4629 81.4541V84.9899" stroke="#AAB8CD" stroke-width="2" stroke-miterlimit="10" stroke-linecap="round" stroke-linejoin="round"/>
<path d="M62.2305 75.3101V76.5853V77.6866" stroke="#AAB8CD" stroke-width="2" stroke-miterlimit="10" stroke-linecap="round" stroke-linejoin="round"/>
<path d="M68.998 66.6733V68.4702" stroke="#AAB8CD" stroke-width="2" stroke-miterlimit="10" stroke-linecap="round" stroke-linejoin="round"/>
<path d="M75.7656 68.644V69.9772" stroke="#AAB8CD" stroke-width="2" stroke-miterlimit="10" stroke-linecap="round" stroke-linejoin="round"/>
<path d="M1.5 66.8472V68.5861" stroke="#AAB8CD" stroke-width="2" stroke-miterlimit="10" stroke-linecap="round" stroke-linejoin="round"/>
<path d="M8.17773 77.5127V78.7879V79.8892" stroke="#AAB8CD" stroke-width="2" stroke-miterlimit="10" stroke-linecap="round" stroke-linejoin="round"/>
<path d="M14.9453 84.0626V83.8887V87.8882" stroke="#AAB8CD" stroke-width="2" stroke-miterlimit="10" stroke-linecap="round" stroke-linejoin="round"/>
<path d="M21.7129 78.1504V79.5995V80.7587" stroke="#AAB8CD" stroke-width="2" stroke-miterlimit="10" stroke-linecap="round" stroke-linejoin="round"/>
<path d="M28.4805 66.9053V69.8034" stroke="#AAB8CD" stroke-width="2" stroke-miterlimit="10" stroke-linecap="round" stroke-linejoin="round"/>
</g>
<path d="M35.248 61.0785V52.1521V23.75" stroke="#AAB8CD" stroke-width="2" stroke-miterlimit="10" stroke-linecap="round" stroke-linejoin="round"/>
<path d="M42.0176 56.0936V29.3145" stroke="#AAB8CD" stroke-width="2" stroke-miterlimit="10" stroke-linecap="round" stroke-linejoin="round"/>
<path d="M48.7852 65.7154V52.1519V41.6025" stroke="#AAB8CD" stroke-width="2" stroke-miterlimit="10" stroke-linecap="round" stroke-linejoin="round"/>
<path d="M55.4629 69.1352V36.2119" stroke="#AAB8CD" stroke-width="2" stroke-miterlimit="10" stroke-linecap="round" stroke-linejoin="round"/>
<path d="M62.2305 64.2086V52.1522V42.1245" stroke="#AAB8CD" stroke-width="2" stroke-miterlimit="10" stroke-linecap="round" stroke-linejoin="round"/>
<path d="M68.998 56.0935V39.6318" stroke="#AAB8CD" stroke-width="2" stroke-miterlimit="10" stroke-linecap="round" stroke-linejoin="round"/>
<path d="M75.7656 52.1523V45.3706" stroke="#AAB8CD" stroke-width="2" stroke-miterlimit="10" stroke-linecap="round" stroke-linejoin="round"/>
<path d="M1.5 56.0935V39.6318" stroke="#AAB8CD" stroke-width="2" stroke-miterlimit="10" stroke-linecap="round" stroke-linejoin="round"/>
<path d="M8.17773 64.2086V52.1522V42.1245" stroke="#AAB8CD" stroke-width="2" stroke-miterlimit="10" stroke-linecap="round" stroke-linejoin="round"/>
<path d="M14.9453 71.3958V73.1347V36.2119" stroke="#AAB8CD" stroke-width="2" stroke-miterlimit="10" stroke-linecap="round" stroke-linejoin="round"/>
<path d="M21.7129 65.7154V52.1519V41.6025" stroke="#AAB8CD" stroke-width="2" stroke-miterlimit="10" stroke-linecap="round" stroke-linejoin="round"/>
<path d="M28.4805 56.0936V29.3145" stroke="#AAB8CD" stroke-width="2" stroke-miterlimit="10" stroke-linecap="round" stroke-linejoin="round"/>
<g opacity="0.5">
<path d="M35.25 11.7786V10.7933V7.72119" stroke="#AAB8CD" stroke-width="2" stroke-miterlimit="10" stroke-linecap="round" stroke-linejoin="round"/>
<path d="M42.0176 18.1545V15.2563" stroke="#AAB8CD" stroke-width="2" stroke-miterlimit="10" stroke-linecap="round" stroke-linejoin="round"/>
<path d="M48.7852 30.3847V28.8777V27.7764" stroke="#AAB8CD" stroke-width="2" stroke-miterlimit="10" stroke-linecap="round" stroke-linejoin="round"/>
<path d="M55.4629 24.9941V21.4004" stroke="#AAB8CD" stroke-width="2" stroke-miterlimit="10" stroke-linecap="round" stroke-linejoin="round"/>
<path d="M62.2305 30.5591V29.2839V28.1826" stroke="#AAB8CD" stroke-width="2" stroke-miterlimit="10" stroke-linecap="round" stroke-linejoin="round"/>
<path d="M68.998 28.5303V26.7334" stroke="#AAB8CD" stroke-width="2" stroke-miterlimit="10" stroke-linecap="round" stroke-linejoin="round"/>
<path d="M75.7656 34.0368V32.7036" stroke="#AAB8CD" stroke-width="2" stroke-miterlimit="10" stroke-linecap="round" stroke-linejoin="round"/>
<path d="M1.5 28.1245V26.3276" stroke="#AAB8CD" stroke-width="2" stroke-miterlimit="10" stroke-linecap="round" stroke-linejoin="round"/>
<path d="M8.17773 30.5591V29.226V28.1826" stroke="#AAB8CD" stroke-width="2" stroke-miterlimit="10" stroke-linecap="round" stroke-linejoin="round"/>
<path d="M14.9453 23.9512V24.1251V20.1836" stroke="#AAB8CD" stroke-width="2" stroke-miterlimit="10" stroke-linecap="round" stroke-linejoin="round"/>
<path d="M21.7129 29.8632V28.4142V27.2549" stroke="#AAB8CD" stroke-width="2" stroke-miterlimit="10" stroke-linecap="round" stroke-linejoin="round"/>
<path d="M28.4805 18.5022V15.604" stroke="#AAB8CD" stroke-width="2" stroke-miterlimit="10" stroke-linecap="round" stroke-linejoin="round"/>
</g>
<g opacity="0.7">
<path d="M35.248 64.9385V65.8659V68.938" stroke="#AAB8CD" stroke-width="2" stroke-miterlimit="10" stroke-linecap="round" stroke-linejoin="round"/>
<path d="M42.0176 59.2578V62.156" stroke="#AAB8CD" stroke-width="2" stroke-miterlimit="10" stroke-linecap="round" stroke-linejoin="round"/>
<path d="M48.7852 69.7495V71.1986V72.3579" stroke="#AAB8CD" stroke-width="2" stroke-miterlimit="10" stroke-linecap="round" stroke-linejoin="round"/>
<path d="M55.4629 73.5171V77.0529" stroke="#AAB8CD" stroke-width="2" stroke-miterlimit="10" stroke-linecap="round" stroke-linejoin="round"/>
<path d="M62.2305 67.373V68.6482V69.7496" stroke="#AAB8CD" stroke-width="2" stroke-miterlimit="10" stroke-linecap="round" stroke-linejoin="round"/>
<path d="M68.998 58.7363V60.5332" stroke="#AAB8CD" stroke-width="2" stroke-miterlimit="10" stroke-linecap="round" stroke-linejoin="round"/>
<path d="M75.7656 60.707V62.0402" stroke="#AAB8CD" stroke-width="2" stroke-miterlimit="10" stroke-linecap="round" stroke-linejoin="round"/>
<path d="M1.5 58.9102V60.6491" stroke="#AAB8CD" stroke-width="2" stroke-miterlimit="10" stroke-linecap="round" stroke-linejoin="round"/>
<path d="M8.17773 69.5757V70.8509V71.9522" stroke="#AAB8CD" stroke-width="2" stroke-miterlimit="10" stroke-linecap="round" stroke-linejoin="round"/>
<path d="M14.9453 76.1256V75.9517V79.9511" stroke="#AAB8CD" stroke-width="2" stroke-miterlimit="10" stroke-linecap="round" stroke-linejoin="round"/>
<path d="M21.7129 70.2129V71.662V72.8212" stroke="#AAB8CD" stroke-width="2" stroke-miterlimit="10" stroke-linecap="round" stroke-linejoin="round"/>
<path d="M28.4805 58.9683V61.8664" stroke="#AAB8CD" stroke-width="2" stroke-miterlimit="10" stroke-linecap="round" stroke-linejoin="round"/>
</g>
<path d="M139.967 61.0785V52.1521V23.75" stroke="#AAB8CD" stroke-width="2" stroke-miterlimit="10" stroke-linecap="round" stroke-linejoin="round"/>
<path d="M146.734 56.0936V29.3145" stroke="#AAB8CD" stroke-width="2" stroke-miterlimit="10" stroke-linecap="round" stroke-linejoin="round"/>
<path d="M153.504 65.7154V52.1519V41.6025" stroke="#AAB8CD" stroke-width="2" stroke-miterlimit="10" stroke-linecap="round" stroke-linejoin="round"/>
<path d="M160.182 69.1352V36.2119" stroke="#AAB8CD" stroke-width="2" stroke-miterlimit="10" stroke-linecap="round" stroke-linejoin="round"/>
<path d="M166.949 64.2086V52.1522V42.1245" stroke="#AAB8CD" stroke-width="2" stroke-miterlimit="10" stroke-linecap="round" stroke-linejoin="round"/>
<path d="M173.717 56.0935V39.6318" stroke="#AAB8CD" stroke-width="2" stroke-miterlimit="10" stroke-linecap="round" stroke-linejoin="round"/>
<path d="M180.484 52.1523V45.3706" stroke="#AAB8CD" stroke-width="2" stroke-miterlimit="10" stroke-linecap="round" stroke-linejoin="round"/>
<path d="M106.219 56.0935V39.6318" stroke="#AAB8CD" stroke-width="2" stroke-miterlimit="10" stroke-linecap="round" stroke-linejoin="round"/>
<path d="M112.896 64.2086V52.1522V42.1245" stroke="#AAB8CD" stroke-width="2" stroke-miterlimit="10" stroke-linecap="round" stroke-linejoin="round"/>
<path d="M119.664 71.3958V73.1347V36.2119" stroke="#AAB8CD" stroke-width="2" stroke-miterlimit="10" stroke-linecap="round" stroke-linejoin="round"/>
<path d="M126.432 65.7154V52.1519V41.6025" stroke="#AAB8CD" stroke-width="2" stroke-miterlimit="10" stroke-linecap="round" stroke-linejoin="round"/>
<path d="M133.199 56.0936V29.3145" stroke="#AAB8CD" stroke-width="2" stroke-miterlimit="10" stroke-linecap="round" stroke-linejoin="round"/>
</svg>
