<svg width="166" height="96" viewBox="0 0 166 96" fill="none" xmlns="http://www.w3.org/2000/svg">
<path d="M68.3225 85.3888L86.01 58.0527L103.697 85.3888L68.3225 85.3888Z" stroke="#AAB8CD" stroke-width="2"/>
<path d="M6.33984 56.2119H164.137" stroke="#AAB8CD" stroke-width="2" stroke-linecap="round"/>
<path d="M59.6523 35.4042C57.7034 37.3531 57.7102 40.5477 59.7022 42.5398C61.6943 44.5318 64.889 44.5386 66.8379 42.5897C68.7868 40.6408 68.78 37.4461 66.7879 35.4541C64.7959 33.4621 61.6012 33.4553 59.6523 35.4042Z" stroke="#AAB8CD" stroke-width="2" stroke-miterlimit="10"/>
<path d="M55.9388 31.6894C51.962 35.6663 51.988 42.1682 56.0319 46.2121C60.0757 50.2559 66.5777 50.282 70.5546 46.3051C74.5314 42.3283 74.5053 35.8263 70.4615 31.7825C66.4177 27.7386 59.9157 27.7125 55.9388 31.6894Z" stroke="#AAB8CD" stroke-width="2" stroke-miterlimit="10"/>
<path d="M51.8101 27.5609C45.58 33.7911 45.6275 43.9679 51.9511 50.2915C58.2747 56.6151 68.4515 56.6626 74.6816 50.4325C80.9118 44.2023 80.8643 34.0255 74.5406 27.7019C68.217 21.3783 58.0403 21.3308 51.8101 27.5609Z" stroke="#AAB8CD" stroke-width="2" stroke-miterlimit="10"/>
<path d="M49.2147 25.0339L49.203 21.3187L47.0685 19.1843L47.1141 22.9333" stroke="#AAB8CD" stroke-width="2" stroke-miterlimit="10" stroke-linecap="round"/>
<path d="M63.3613 39.1802L49.1747 24.9935L45.4784 25.0006L43.3654 22.8877L47.0953 22.9142" stroke="#AAB8CD" stroke-width="2" stroke-miterlimit="10" stroke-linecap="round"/>
<path d="M138.84 41.9148C138.84 44.0176 140.819 45.8201 143.222 45.8201C145.624 45.8201 147.603 44.1678 147.603 41.9148C147.603 39.8119 146.048 38.0094 143.222 38.0094C140.395 38.0094 138.84 36.3572 138.84 34.1041C138.84 32.0012 140.819 30.1987 143.222 30.1987C145.624 30.1987 147.603 31.851 147.603 34.1041" stroke="#AAB8CD" stroke-width="2" stroke-miterlimit="10" stroke-linecap="round" stroke-linejoin="round"/>
<path d="M143.221 30.0486V27.4951" stroke="#AAB8CD" stroke-width="2" stroke-miterlimit="10" stroke-linecap="round" stroke-linejoin="round"/>
<path d="M143.221 48.6741V46.1206" stroke="#AAB8CD" stroke-width="2" stroke-miterlimit="10" stroke-linecap="round" stroke-linejoin="round"/>
<path d="M143.221 54.9826C152.589 54.9826 160.183 47.3834 160.183 38.0093C160.183 28.6353 152.589 21.0361 143.221 21.0361C133.854 21.0361 126.26 28.6353 126.26 38.0093C126.26 47.3834 133.854 54.9826 143.221 54.9826Z" stroke="#AAB8CD" stroke-width="2" stroke-miterlimit="10" stroke-linecap="round" stroke-linejoin="round"/>
<path d="M40.9851 39.3342C40.9851 48.0248 33.945 55.0688 25.2621 55.0688C16.5792 55.0688 9.53906 48.0248 9.53906 39.3342C9.53906 30.6436 16.5792 23.5996 25.2621 23.5996C33.945 23.5996 40.9851 30.6436 40.9851 39.3342Z" stroke="#AAB8CD" stroke-width="2" stroke-miterlimit="10" stroke-linecap="round" stroke-linejoin="round"/>
<path d="M25.2402 22.5004L25.2402 17.2778" stroke="#AAB8CD" stroke-width="2" stroke-miterlimit="10" stroke-linecap="round" stroke-linejoin="round"/>
<path d="M25.459 26.4175L25.459 39.4738L30.6779 34.6865" stroke="#AAB8CD" stroke-width="2" stroke-miterlimit="10" stroke-linecap="round" stroke-linejoin="round"/>
<path d="M20.459 16.8979H30.1175" stroke="#AAB8CD" stroke-width="2" stroke-miterlimit="10" stroke-linecap="round" stroke-linejoin="round"/>
<path d="M18.7727 36.0757H4.3125" stroke="#AAB8CD" stroke-width="2" stroke-miterlimit="10" stroke-linecap="round" stroke-linejoin="round"/>
<path d="M15.9569 41.1567H1" stroke="#AAB8CD" stroke-width="2" stroke-miterlimit="10" stroke-linecap="round" stroke-linejoin="round"/>
<path d="M18.7727 46.2383H4.3125" stroke="#AAB8CD" stroke-width="2" stroke-miterlimit="10" stroke-linecap="round" stroke-linejoin="round"/>
</svg>
