<svg width="20" height="17" viewBox="0 0 20 17" fill="none" xmlns="http://www.w3.org/2000/svg">
<path d="M4.5 15.5H0V11C0 9.0625 1.25 7.375 3 6.78125V6.5C3 3.75 5.21875 1.5 8 1.5C9.84375 1.5 11.4688 2.53125 12.3125 4.03125C12.7812 3.6875 13.375 3.5 14 3.5C15.6562 3.5 17 4.84375 17 6.5V7.625C18.7188 8.09375 20 9.65625 20 11.5V15.5H16H4.5ZM6.96875 10.2812L9.46875 12.7812L10 13.3125L10.5312 12.7812L13.0312 10.2812L13.5625 9.75L12.5 8.71875L11.9688 9.25L10.75 10.4688V6.25V5.5H9.25V6.25V10.4688L8.03125 9.25L7.5 8.71875L6.4375 9.75L6.96875 10.2812Z" fill="#341BCB"/>
</svg>
