<svg width="24" height="20" viewBox="0 0 24 20" fill="none" xmlns="http://www.w3.org/2000/svg">
<path d="M15.6 1.25C15.6 0.859375 15.3 0 14.4 0C13.875 0 13.3875 0.390625 13.2375 0.9375L8.4375 18.4375C8.4 18.5547 8.3625 18.6719 8.3625 18.75C8.3625 19.1797 8.7 20 9.6 20C10.0875 20 10.575 19.6484 10.725 19.1016L15.525 1.60156C15.5625 1.48437 15.6 1.36719 15.6 1.25ZM6.6 5.625C6.6 4.88281 6.0375 4.375 5.4 4.375C5.0625 4.375 4.7625 4.49219 4.5375 4.72656L0.3375 9.10156C0.1125 9.375 0 9.6875 0 10C0 10.2734 0.1125 10.6641 0.3375 10.8984L4.5375 15.2734C4.7625 15.5078 5.0625 15.625 5.4 15.625C6.0375 15.625 6.6 15.0781 6.6 14.375C6.6 14.0234 6.45 13.7109 6.225 13.4766L2.8875 10L6.225 6.48437C6.45 6.28906 6.6 5.97656 6.6 5.625ZM24 10C24 9.64844 23.85 9.33594 23.625 9.10156L19.425 4.72656C19.2 4.53125 18.9 4.375 18.6 4.375C17.925 4.375 17.4 4.88281 17.4 5.625C17.4 5.9375 17.5125 6.25 17.7375 6.48437L21.075 10L17.7375 13.4766C17.5125 13.75 17.4 14.0625 17.4 14.375C17.4 15.0781 17.925 15.625 18.6 15.625C18.9 15.625 19.2 15.4687 19.425 15.2344L23.625 10.8594C23.85 10.6641 24 10.3516 24 10Z" fill="#D7DFEB"/>
</svg>
