<svg width="25" height="24" viewBox="0 0 25 24" fill="none" xmlns="http://www.w3.org/2000/svg">
<path d="M8.77293 18.871C8.77293 18.7742 8.67616 18.6774 8.531 18.6774C8.38584 18.6774 8.28906 18.7742 8.28906 18.871C8.28906 18.9677 8.38584 19.0645 8.531 19.0161C8.67616 19.0161 8.77293 18.9677 8.77293 18.871ZM7.27293 18.629C7.27293 18.7258 7.36971 18.871 7.51487 18.871C7.61164 18.9194 7.7568 18.871 7.80519 18.7742C7.80519 18.6774 7.7568 18.5806 7.61164 18.5323C7.46648 18.4839 7.32132 18.5323 7.27293 18.629ZM9.45035 18.5806C9.30519 18.5806 9.20842 18.6774 9.20842 18.8226C9.20842 18.9194 9.35358 18.9677 9.49874 18.9194C9.6439 18.871 9.74067 18.8226 9.69229 18.7258C9.69229 18.629 9.54713 18.5323 9.45035 18.5806ZM12.5955 0C5.91809 0 0.789062 5.12903 0.789062 11.8065C0.789062 17.1774 4.12777 21.7742 8.96648 23.4194C9.59551 23.5161 9.78906 23.129 9.78906 22.8387C9.78906 22.5 9.78906 20.8548 9.78906 19.8387C9.78906 19.8387 6.40197 20.5645 5.67616 18.3871C5.67616 18.3871 5.1439 16.9839 4.36971 16.6452C4.36971 16.6452 3.2568 15.871 4.41809 15.871C4.41809 15.871 5.62777 15.9677 6.30519 17.129C7.36971 19.0161 9.11164 18.4839 9.83745 18.1452C9.93422 17.371 10.2245 16.8387 10.6116 16.5C7.90197 16.2097 5.1439 15.8226 5.1439 11.1774C5.1439 9.82258 5.531 9.19355 6.30519 8.32258C6.16003 7.98387 5.77293 6.72581 6.45035 5.03226C7.41809 4.74194 9.78906 6.33871 9.78906 6.33871C10.7568 6.04839 11.7729 5.95161 12.7891 5.95161C13.8536 5.95161 14.8697 6.04839 15.8374 6.33871C15.8374 6.33871 18.16 4.69355 19.1762 5.03226C19.8536 6.72581 19.4181 7.98387 19.3213 8.32258C20.0955 9.19355 20.5794 9.82258 20.5794 11.1774C20.5794 15.8226 17.7245 16.2097 15.0149 16.5C15.4504 16.8871 15.8374 17.6129 15.8374 18.7742C15.8374 20.371 15.7891 22.4032 15.7891 22.7903C15.7891 23.129 16.031 23.5161 16.66 23.371C21.4987 21.7742 24.7891 17.1774 24.7891 11.8065C24.7891 5.12903 19.3213 0 12.5955 0ZM5.48261 16.6935C5.38584 16.7419 5.43422 16.8871 5.48261 16.9839C5.57938 17.0323 5.67616 17.0806 5.77293 17.0323C5.82132 16.9839 5.82132 16.8387 5.72455 16.7419C5.62777 16.6935 5.531 16.6452 5.48261 16.6935ZM4.95035 16.3065C4.90197 16.4032 4.95035 16.4516 5.04713 16.5C5.1439 16.5484 5.24068 16.5484 5.28906 16.4516C5.28906 16.4032 5.24068 16.3548 5.1439 16.3065C5.04713 16.2581 4.99874 16.2581 4.95035 16.3065ZM6.49874 18.0484C6.45035 18.0968 6.45035 18.2419 6.59551 18.3387C6.69229 18.4355 6.83745 18.4839 6.88584 18.3871C6.93422 18.3387 6.93422 18.1935 6.83745 18.0968C6.74068 18 6.59551 17.9516 6.49874 18.0484ZM5.96648 17.3226C5.86971 17.371 5.86971 17.5161 5.96648 17.6129C6.06326 17.7097 6.16003 17.7581 6.2568 17.7097C6.30519 17.6613 6.30519 17.5161 6.2568 17.4194C6.16003 17.3226 6.06326 17.2742 5.96648 17.3226Z" fill="#D7DFEB"/>
</svg>
