<svg width="24" height="17" viewBox="0 0 24 17" fill="none" xmlns="http://www.w3.org/2000/svg">
<path d="M23.3625 3.97711L12.75 0.142379C12.225 -0.0474595 11.6625 -0.0474595 11.1375 0.142379L0.6 3.97711C0.225 4.12898 0 4.47069 0 4.85036C0 5.26801 0.225 5.60972 0.6 5.76159L1.57579 6.10737C2.20937 6.33189 2.43681 7.10793 2.17989 7.72907C2.12776 7.85512 2.08075 7.98364 2.03931 8.11464C1.94255 8.4205 1.71826 8.67157 1.50524 8.91143C1.31696 9.12344 1.2 9.40203 1.2 9.71022C1.2 9.88784 1.23283 10.0572 1.29465 10.2104C1.42386 10.5307 1.57952 10.8667 1.52525 11.2078L0.7125 16.3166C0.6375 16.6963 0.9375 17 1.275 17H3.4875C3.825 17 4.125 16.6963 4.05 16.3166L3.23725 11.2078C3.18298 10.8667 3.33651 10.5329 3.48369 10.2205C3.55713 10.0646 3.6 9.89176 3.6 9.71022C3.6 9.5683 3.56856 9.43169 3.51548 9.30633C3.36024 8.93969 3.15669 8.54219 3.30883 8.17426C3.40053 7.9525 3.51242 7.74158 3.64126 7.54315C3.86172 7.20358 4.29831 7.10449 4.67895 7.24242L11.175 9.59631C11.7 9.78615 12.2625 9.78615 12.7875 9.59631L23.3625 5.76159C23.7375 5.60972 24 5.26801 24 4.85036C24 4.47069 23.7375 4.12898 23.3625 3.97711ZM13.1625 10.7353C12.7875 10.8872 12.375 10.9252 12 10.9252C11.5875 10.9252 11.175 10.8872 10.8 10.7353L6.53571 9.19762C5.92188 8.97627 5.26393 9.39258 5.20113 10.0421L4.8 14.1904C4.8 15.7471 7.9875 17 12 17C15.9375 17 19.2 15.7471 19.2 14.1904L18.7692 10.0322C18.7022 9.38596 18.0465 8.97416 17.4353 9.19455L13.1625 10.7353Z" fill="#D7DFEB"/>
</svg>
