<svg width="17" height="24" viewBox="0 0 17 24" fill="none" xmlns="http://www.w3.org/2000/svg">
<path d="M8.5 0C5.94034 0 3.86364 2.01562 3.86364 4.5V12C3.86364 14.4844 5.94034 16.5 8.5 16.5C11.0597 16.5 13.1364 14.4844 13.1364 12V4.5C13.1364 2.01562 11.0597 0 8.5 0ZM2.31818 10.125C2.31818 9.51562 1.78693 9 1.15909 9C0.482955 9 0 9.51562 0 10.125V12C0 16.2188 3.1875 19.6406 7.34091 20.2031V21.75H5.02273C4.34659 21.75 3.86364 22.2656 3.86364 22.875C3.86364 23.5312 4.34659 24 5.02273 24H8.5H11.9773C12.6051 24 13.1364 23.5312 13.1364 22.875C13.1364 22.2656 12.6051 21.75 11.9773 21.75H9.65909V20.2031C13.7642 19.6406 17 16.2188 17 12V10.125C17 9.51562 16.4687 9 15.8409 9C15.1648 9 14.6818 9.51562 14.6818 10.125V12C14.6818 15.3281 11.8807 18 8.5 18C5.07102 18 2.31818 15.3281 2.31818 12V10.125Z" fill="#D7DFEB"/>
</svg>
