<svg width="24" height="24" viewBox="0 0 24 24" fill="none" xmlns="http://www.w3.org/2000/svg">
<path fill-rule="evenodd" clip-rule="evenodd" d="M9.27344 2.96326C9.27344 3.40017 9.36916 3.81498 9.54102 4.18837L4.9742 6.4811C4.48231 5.77637 3.6594 5.31445 2.72726 5.31445C1.22104 5.31445 0 6.52054 0 8.00833C0 9.49612 1.22104 10.7022 2.72726 10.7022C3.08284 10.7022 3.42254 10.635 3.73402 10.5127L4.92392 12.0488L3.73341 13.5857C3.42209 13.4636 3.08261 13.3965 2.72726 13.3965C1.22104 13.3965 0 14.6026 0 16.0904C0 17.5781 1.22104 18.7842 2.72726 18.7842C3.65973 18.7842 4.48291 18.322 4.97473 17.6168L9.50594 19.8917C9.35618 20.2442 9.27344 20.6313 9.27344 21.0375C9.27344 22.674 10.6166 24.0007 12.2734 24.0007C13.9303 24.0007 15.2734 22.674 15.2734 21.0375C15.2734 20.3323 15.0241 19.6847 14.6077 19.176L19.2843 14.4803C19.7705 14.8157 20.362 15.0125 21 15.0125C22.6569 15.0125 24 13.6858 24 12.0492C24 10.4126 22.6569 9.08594 21 9.08594C20.3622 9.08594 19.7708 9.28256 19.2847 9.61778L14.5636 4.87741C15.0064 4.36105 15.2734 3.69296 15.2734 2.96326C15.2734 1.3267 13.9303 0 12.2734 0C10.6166 0 9.27344 1.3267 9.27344 2.96326ZM13.7918 5.51952C13.3464 5.77819 12.8274 5.92653 12.2734 5.92653C11.8609 5.92653 11.4679 5.8443 11.1102 5.69554L7.89169 9.85052L9.64473 10.6201C10.1555 9.70549 11.1412 9.08594 12.2734 9.08594C13.7576 9.08594 14.9901 10.1505 15.2308 11.5488H18.0426C18.121 11.0937 18.3044 10.6739 18.5674 10.3147L13.7918 5.51952ZM10.26 5.16009L6.94776 9.43613L5.35376 8.73635C5.41941 8.50478 5.45452 8.26061 5.45452 8.00833C5.45452 7.7972 5.42993 7.59174 5.38342 7.3946L10.1136 5.01986C10.1608 5.06821 10.2096 5.11498 10.26 5.16009ZM10.0514 19.0466C10.1041 18.9892 10.159 18.9339 10.2161 18.8808L6.94889 14.663L5.35399 15.3632C5.41949 15.5945 5.45452 15.8384 5.45452 16.0904C5.45452 16.3012 5.43001 16.5063 5.38364 16.7032L10.0514 19.0466ZM7.89282 14.2486L11.0538 18.3293C11.4264 18.1654 11.8392 18.0742 12.2734 18.0742C12.8527 18.0742 13.3937 18.2364 13.8523 18.5173L18.5671 13.7833C18.3041 13.424 18.1208 13.0041 18.0425 12.5488H15.2309C14.9905 13.9475 13.7579 15.0125 12.2734 15.0125C11.1416 15.0125 10.1561 14.3933 9.64527 13.4793L7.89282 14.2486ZM9.31321 12.5329L7.26152 13.4336L6.18884 12.0488L7.26039 10.6655L9.31302 11.5666C9.28698 11.7237 9.27344 11.8849 9.27344 12.0492C9.27344 12.2139 9.28704 12.3755 9.31321 12.5329ZM6.31759 13.848L4.90483 14.4682C4.80882 14.3427 4.70193 14.2257 4.58555 14.1186L5.55638 12.8653L6.31759 13.848ZM6.31647 10.2511L4.9043 9.63116C4.80855 9.75629 4.702 9.8729 4.58602 9.97965L5.55638 11.2323L6.31647 10.2511Z" fill="#D7DFEB"/>
</svg>
