<svg width="24" height="22" viewBox="0 0 24 22" fill="none" xmlns="http://www.w3.org/2000/svg">
<path d="M23.3333 19.2461H21.3333V4.87406C21.3333 3.71225 20.4167 2.72256 19.3333 2.72256L14.6667 2.76559V5.47648H18.6667V22H23.3333C23.6667 22 24 21.6988 24 21.3546V20.0206C24 19.5903 23.6667 19.2461 23.3333 19.2461ZM11.6667 0.0546998L3.66667 2.16317C3.04167 2.33529 2.66667 2.89468 2.66667 3.54013V19.2461H0.666667C0.291667 19.2461 0 19.5903 0 19.9346V21.2685C0 21.6988 0.291667 22 0.666667 22H13.3333V1.43166C13.3333 0.485 12.5 -0.20348 11.6667 0.0546998ZM9.66667 12.3613C9.08333 12.3613 8.66667 11.7589 8.66667 11.0274C8.66667 10.2958 9.08333 9.69342 9.66667 9.69342C10.2083 9.69342 10.6667 10.2528 10.6667 10.9843C10.6667 11.7589 10.2083 12.3613 9.66667 12.3613Z" fill="#D7DFEB"/>
</svg>
