<svg width="24" height="20" viewBox="0 0 24 20" fill="none" xmlns="http://www.w3.org/2000/svg">
<path d="M9.6151 12.6196C9.6151 12.0187 9.65266 12.3192 6.38508 5.82156C6.08461 5.1455 5.44612 4.80748 4.80762 4.80748C4.16913 4.80748 3.49308 5.1455 3.19261 5.82156C-0.0749718 12.3567 0.000145136 12.0563 0.000145136 12.6196C0.000145136 14.3098 2.14098 15.6243 4.77007 15.6243C7.3616 15.6243 9.6151 14.3098 9.6151 12.6196ZM4.77007 6.61028L7.51183 12.0187H2.06586L4.77007 6.61028ZM19.493 17.4271H12.9202V5.85912C13.9343 5.55865 14.723 4.6948 14.9484 3.60561H19.5305C20.0188 3.60561 20.3944 3.23002 20.3944 2.74177C20.3944 2.21595 20.0188 1.8028 19.493 1.8028H14.723C14.2723 0.751169 13.2207 0 12.0188 0C10.7794 0 9.72778 0.751169 9.23952 1.8028H4.50716C3.98134 1.8028 3.60575 2.21595 3.60575 2.70421C3.60575 3.15491 3.98134 3.60561 4.50716 3.60561H9.05173C9.27708 4.6948 10.0658 5.55865 11.0799 5.85912V17.4271H4.50716C3.98134 17.4271 3.60575 17.8403 3.60575 18.3285C3.60575 18.7792 3.98134 19.2299 4.50716 19.2299H19.493C19.9812 19.2299 20.3568 18.8543 20.3568 18.3661C20.3944 17.8403 20.0188 17.4271 19.493 17.4271ZM12.0188 4.20654C11.3428 4.20654 10.817 3.68073 10.817 3.00467C10.817 2.36618 11.3803 1.8028 12.0188 1.8028C12.6198 1.8028 13.1832 2.36618 13.1832 3.00467C13.1832 3.68073 12.6573 4.20654 12.0188 4.20654ZM24 12.6196C24 12.0187 24.0375 12.3192 20.77 5.82156C20.507 5.1455 19.831 4.80748 19.1925 4.80748C18.554 4.80748 17.878 5.1455 17.5775 5.82156C14.3475 12.3567 14.4226 12.0563 14.4226 12.6196C14.4226 14.3098 16.5634 15.6243 19.2301 15.6243C21.8592 15.6243 24 14.3098 24 12.6196ZM16.4883 12.0187C16.4883 12.0187 18.4789 8.0375 19.1925 6.61028L21.8967 12.0187H16.4883Z" fill="#D7DFEB"/>
</svg>