<svg width="20" height="18" viewBox="0 0 20 18" fill="none" xmlns="http://www.w3.org/2000/svg">
<path d="M18.75 10.2857H1.25C0.546875 10.2857 0 10.8884 0 11.5714V16.7143C0 17.4375 0.546875 18 1.25 18H18.75C19.4141 18 20 17.4375 20 16.7143V11.5714C20 10.8884 19.4141 10.2857 18.75 10.2857ZM13.75 15.1071C13.2031 15.1071 12.8125 14.7054 12.8125 14.1429C12.8125 13.6205 13.2031 13.1786 13.75 13.1786C14.2578 13.1786 14.6875 13.6205 14.6875 14.1429C14.6875 14.7054 14.2578 15.1071 13.75 15.1071ZM16.25 15.1071C15.7031 15.1071 15.3125 14.7054 15.3125 14.1429C15.3125 13.6205 15.7031 13.1786 16.25 13.1786C16.7578 13.1786 17.1875 13.6205 17.1875 14.1429C17.1875 14.7054 16.7578 15.1071 16.25 15.1071ZM18.75 0H1.25C0.546875 0 0 0.602679 0 1.28571V6.42857C0 7.15179 0.546875 7.71429 1.25 7.71429H18.75C19.4141 7.71429 20 7.15179 20 6.42857V1.28571C20 0.602679 19.4141 0 18.75 0ZM13.75 4.82143C13.2031 4.82143 12.8125 4.41964 12.8125 3.85714C12.8125 3.33482 13.2031 2.89286 13.75 2.89286C14.2578 2.89286 14.6875 3.33482 14.6875 3.85714C14.6875 4.41964 14.2578 4.82143 13.75 4.82143ZM16.25 4.82143C15.7031 4.82143 15.3125 4.41964 15.3125 3.85714C15.3125 3.33482 15.7031 2.89286 16.25 2.89286C16.7578 2.89286 17.1875 3.33482 17.1875 3.85714C17.1875 4.41964 16.7578 4.82143 16.25 4.82143Z" fill="#D7DFEB"/>
</svg>
